<svg xmlns="http://www.w3.org/2000/svg" viewBox="0 0 82.16 60.9"><defs><style>.cls-1,.cls-2{fill:#fff;}.cls-2{font-size:5.07px;font-family:Kalam-Bold, Kalam;font-weight:700;}</style></defs><g id="Layer_2" data-name="Layer 2"><g id="infoThird"><g id="infoArrow"><path class="cls-1" d="M4.88,59A15.66,15.66,0,0,1,.56,60l.45.46A20.9,20.9,0,0,0,.9,55.38a.46.46,0,0,0-.57-.32.48.48,0,0,0-.32.56A19.93,19.93,0,0,1,.1,60.44a.46.46,0,0,0,.46.45,16.54,16.54,0,0,0,4.56-1A.46.46,0,0,0,4.88,59Z" transform="translate(0)"/><path class="cls-1" d="M1.1,60.58A141.28,141.28,0,0,0,22.59,25c1.46-3.42,2.79-6.9,3.92-10.45.19-.56-.7-.8-.88-.24A140.74,140.74,0,0,1,7.19,51.07c-2.11,3-4.35,6-6.73,8.86-.38.45.26,1.1.64.65Z" transform="translate(0)"/></g><text class="cls-2" transform="matrix(1, 0.05, -0.05, 1, 11.04, 4.46)"><tspan xml:space="preserve">   Fight for the 3rd place</tspan><tspan x="0" y="6.09">(you can change this anytime)</tspan></text></g></g></svg>