<?xml version="1.0" encoding="utf-8"?>
<!-- Generator: Adobe Illustrator 24.1.3, SVG Export Plug-In . SVG Version: 6.00 Build 0)  -->
<svg version="1.1" id="Layer_1" xmlns="http://www.w3.org/2000/svg" xmlns:xlink="http://www.w3.org/1999/xlink" x="0px" y="0px"
	 viewBox="0 0 82.2 60.9" style="enable-background:new 0 0 82.2 60.9;" xml:space="preserve">
<style type="text/css">
	.st0{fill:#FFFFFF;}
	.st1{enable-background:new    ;}
</style>
<g id="Layer_2_1_">
	<g id="infoThird">
		<g id="infoArrow">
			<path class="st0" d="M4.9,59c-1.4,0.5-2.8,0.9-4.3,1L1,60.5c0.2-1.7,0.1-3.4-0.1-5.1c-0.1-0.2-0.3-0.4-0.6-0.3c0,0,0,0,0,0
				C0.1,55.1,0,55.4,0,55.6c0.2,1.6,0.3,3.2,0.1,4.8c0,0.3,0.2,0.5,0.5,0.5c1.6-0.1,3.1-0.5,4.6-1c0.2-0.1,0.4-0.3,0.3-0.6
				S5.1,58.9,4.9,59z"/>
			<path class="st0" d="M1.1,60.6C10,49.8,17.2,37.9,22.6,25c1.5-3.4,2.8-6.9,3.9-10.4c0.2-0.6-0.7-0.8-0.9-0.2
				C21.3,27.4,15.1,39.8,7.2,51.1c-2.1,3-4.3,6-6.7,8.9C0.1,60.4,0.7,61,1.1,60.6z"/>
		</g>
		<g class="st1">
			<path class="st0" d="M18.1,1.1c0.2,0,0.5,0,0.8,0c0.4,0,0.6,0.1,0.8,0.1s0.3,0.2,0.3,0.3c0,0,0,0.1-0.1,0.1c0,0-0.1,0-0.1,0
				c0,0-0.1,0-0.1,0c0,0-0.1,0-0.1,0c0,0-0.1,0-0.2,0s-0.1,0-0.2,0c0,0-0.1,0-0.2,0s-0.1,0-0.2,0s-0.2,0-0.5,0.1l0,0
				c0,0.1-0.1,0.4-0.2,1c0,0,0.1,0,0.2,0s0.3,0,0.5,0c0.2,0,0.3,0,0.4,0c0.1,0,0.1,0,0.1,0.1s0.1,0.1,0.1,0.1c0,0.1-0.1,0.2-0.2,0.2
				c-0.1,0.1-0.2,0.1-0.4,0.1c-0.3,0.1-0.6,0.1-0.9,0.1c-0.1,0.4-0.2,0.7-0.2,0.8c0,0.1-0.1,0.2-0.1,0.3c-0.1,0.2-0.1,0.3-0.1,0.3
				c-0.1,0-0.2-0.1-0.3-0.3c-0.1-0.2-0.2-0.3-0.2-0.4c0-0.1,0.1-0.6,0.3-1.3c0.2-0.7,0.3-1.2,0.3-1.4l0,0c0,0,0-0.1,0-0.1
				C17.9,1.2,18,1.2,18.1,1.1z"/>
			<path class="st0" d="M20.5,2.2c0.1,0,0.2,0.1,0.3,0.2c0.1,0.1,0.1,0.3,0.1,0.4c0,0.1-0.1,0.3-0.2,0.7c-0.1,0.4-0.3,0.8-0.4,1.1
				c0,0.1-0.1,0.2-0.3,0.2c-0.1,0-0.1,0-0.2-0.1c-0.1-0.1-0.1-0.1-0.1-0.2c0-0.1,0.1-0.3,0.2-0.7C20,3.5,20.1,3.2,20.2,3
				c0.1-0.2,0.1-0.4,0.2-0.5C20.4,2.3,20.4,2.2,20.5,2.2z M20.4,1.6c0-0.1,0-0.2,0.1-0.3c0.1-0.1,0.2-0.1,0.2-0.1
				c0.1,0,0.2,0.1,0.3,0.3c0.1,0.2,0.1,0.3,0.1,0.4c0,0.1,0,0.1-0.1,0.2c-0.1,0-0.1,0.1-0.2,0.1c-0.1,0-0.2-0.1-0.3-0.2
				C20.5,1.8,20.4,1.7,20.4,1.6z"/>
			<path class="st0" d="M23.2,3.5c0,0.1,0.1,0.1,0.1,0.2c0,0.1,0,0.2-0.1,0.3c-0.1,0.2-0.2,0.4-0.3,0.7c-0.1,0.3-0.2,0.5-0.2,0.7
				c-0.1,0.2-0.1,0.3-0.2,0.5c-0.1,0.1-0.2,0.2-0.3,0.3c-0.1,0.1-0.3,0.1-0.4,0.1c-0.2,0-0.4-0.1-0.6-0.3c-0.2-0.2-0.3-0.3-0.2-0.4
				c0-0.1,0-0.2,0.1-0.3C21,5.3,21,5.2,21.1,5.3s0.1,0,0.1,0.1c0,0.1,0.1,0.1,0.1,0.2c0,0.1,0.1,0.1,0.1,0.2
				c0.1,0.1,0.1,0.1,0.2,0.1c0.1,0,0.2,0,0.2-0.1s0.1-0.2,0.2-0.3c0.1-0.3,0.2-0.5,0.2-0.6c-0.2,0.1-0.4,0.2-0.6,0.2
				c-0.1,0-0.3-0.1-0.4-0.3c-0.1-0.2-0.2-0.3-0.2-0.5c0-0.1,0.1-0.3,0.1-0.5c0.1-0.2,0.2-0.4,0.3-0.6c0.1-0.2,0.3-0.4,0.5-0.5
				c0.2-0.1,0.4-0.2,0.6-0.2c0.1,0,0.2,0,0.3,0.1c0.1,0.1,0.1,0.2,0.2,0.3c0.1,0.2,0.1,0.4,0.1,0.6C23.2,3.4,23.2,3.4,23.2,3.5z
				 M21.7,4.2C21.7,4.3,21.7,4.3,21.7,4.2c0.2,0.1,0.3,0,0.5-0.2c0.2-0.2,0.4-0.3,0.5-0.5l0-0.1c0-0.2,0-0.4,0-0.4c0,0,0,0-0.1,0
				c-0.2,0-0.4,0.2-0.6,0.5C21.8,3.8,21.7,4.1,21.7,4.2z"/>
			<path class="st0" d="M24.4,1.2c0-0.1,0.1-0.2,0.2-0.2c0.1,0,0.2,0.1,0.3,0.2C24.9,1.4,25,1.6,25,1.7s0,0.3-0.1,0.5
				c-0.1,0.2-0.1,0.4-0.2,0.5S24.6,3,24.5,3.3c-0.1,0.3-0.2,0.5-0.2,0.6c0.2-0.4,0.5-0.8,0.8-1.1c0.3-0.3,0.5-0.4,0.6-0.4
				c0.1,0,0.2,0.1,0.3,0.3c0.1,0.2,0.2,0.4,0.2,0.5c0,0.1,0,0.4-0.1,0.6s-0.2,0.5-0.3,0.8c-0.1,0.3-0.3,0.4-0.4,0.4
				c-0.1,0-0.2-0.1-0.2-0.2c0-0.1,0-0.3,0.1-0.6c0.1-0.4,0.2-0.6,0.2-0.7c0-0.1,0-0.1,0-0.1c-0.2,0-0.5,0.3-0.9,0.9
				c-0.1,0.2-0.3,0.4-0.3,0.5S24,5,23.9,5c-0.1,0-0.2-0.1-0.3-0.2c-0.1-0.1-0.2-0.2-0.1-0.3s0-0.2,0.1-0.3c0-0.1,0.1-0.3,0.2-0.6
				c0.1-0.2,0.2-0.7,0.4-1.3C24.3,1.7,24.4,1.3,24.4,1.2z"/>
			<path class="st0" d="M27.7,3.6c-0.1,0.2-0.1,0.4-0.2,0.6c-0.1,0.2-0.1,0.4-0.1,0.4c0,0,0,0,0.1,0c0.1,0,0.2,0,0.4-0.1
				c0.2-0.1,0.3-0.1,0.4-0.1c0.1,0,0.1,0.1,0.1,0.2c0,0.1-0.1,0.2-0.4,0.4c-0.2,0.1-0.5,0.2-0.7,0.2c-0.1,0-0.2-0.1-0.4-0.2
				c-0.1-0.1-0.2-0.2-0.2-0.4c0-0.1,0.1-0.3,0.2-0.6c0.1-0.3,0.2-0.5,0.2-0.7c-0.1,0-0.2,0-0.3,0c-0.1,0-0.1-0.1-0.2-0.1
				C26.5,3.1,26.4,3,26.4,3c0-0.1,0.3-0.2,0.8-0.2c0.1-0.3,0.1-0.6,0.1-0.8c0-0.1,0.1-0.1,0.2-0.1c0.1,0,0.2,0.1,0.3,0.2
				c0.1,0.1,0.2,0.2,0.2,0.3c0,0.1,0,0.2-0.1,0.4c0.2,0,0.3,0,0.4,0c0.3,0,0.4,0.1,0.4,0.2c0,0.1-0.1,0.1-0.2,0.2
				c-0.1,0-0.4,0.1-0.7,0.1C27.8,3.3,27.7,3.4,27.7,3.6z"/>
			<path class="st0" d="M32.7,2.5c0-0.1,0-0.1-0.1-0.2c0-0.1-0.1-0.1-0.1-0.1c0,0-0.1,0-0.1,0.1s-0.1,0.2-0.1,0.3
				c-0.1,0.2-0.2,0.5-0.2,0.7c0.3,0,0.5,0,0.6,0c0.1,0,0.2,0,0.3,0.1C33,3.4,33,3.4,33,3.5c0,0.1-0.1,0.2-0.3,0.2
				c-0.2,0-0.5,0.1-0.8,0.1c-0.2,0.7-0.3,1.1-0.4,1.3c-0.1,0.2-0.2,0.3-0.2,0.3c-0.1,0-0.1-0.1-0.2-0.2C31,5.1,30.9,5,30.9,5
				c0-0.1,0-0.1,0-0.2c0.1-0.3,0.2-0.6,0.3-0.8C31.1,4,31,4,31,4c-0.1,0-0.2,0-0.2-0.1c-0.1-0.1-0.1-0.2-0.1-0.3
				c0-0.1,0.3-0.2,0.7-0.3c0.1-0.6,0.3-1.1,0.5-1.4c0.2-0.3,0.5-0.4,0.8-0.4c0.2,0,0.3,0.1,0.4,0.3c0.1,0.2,0.2,0.3,0.2,0.6
				c0,0.1,0,0.2-0.1,0.3c0,0.1-0.1,0.1-0.2,0.1c-0.1,0-0.1,0-0.2-0.1C32.8,2.6,32.8,2.5,32.7,2.5z"/>
			<path class="st0" d="M33.3,3.5c0.3-0.4,0.5-0.5,0.8-0.5c0.3,0,0.5,0.1,0.6,0.3C34.9,3.4,35,3.6,35,3.9c0,0.3-0.1,0.5-0.2,0.8
				c-0.1,0.3-0.3,0.5-0.5,0.6c-0.2,0.2-0.5,0.2-0.7,0.2c-0.2,0-0.3-0.1-0.5-0.3c-0.1-0.2-0.2-0.4-0.2-0.6C32.9,4.2,33,3.8,33.3,3.5z
				 M34.1,4.5c0.1-0.2,0.2-0.5,0.2-0.7c0-0.2,0-0.4-0.1-0.5c-0.1,0.1-0.3,0.2-0.5,0.5c-0.2,0.3-0.2,0.5-0.3,0.7c0,0.2,0,0.3,0,0.4
				C33.8,4.9,33.9,4.8,34.1,4.5z"/>
			<path class="st0" d="M35.5,3.9l0-0.6c0-0.2,0.1-0.3,0.2-0.3c0.1,0,0.1,0,0.2,0.1C36,3.1,36,3.2,36,3.3c0.1-0.1,0.2-0.2,0.4-0.2
				C36.6,3.1,36.7,3,36.8,3c0.2,0,0.4,0.1,0.4,0.2c0,0.1,0,0.1,0,0.1c0,0,0,0-0.1,0.1c0,0,0,0-0.1,0c0,0-0.1,0-0.1,0
				c-0.1,0-0.1,0.1-0.2,0.1c-0.2,0.1-0.3,0.2-0.4,0.3c-0.1,0.1-0.2,0.3-0.3,0.5c-0.1,0.4-0.2,0.7-0.3,0.9c-0.1,0.2-0.2,0.3-0.3,0.3
				s-0.2-0.1-0.2-0.2s-0.1-0.2-0.1-0.3c0-0.1,0-0.2,0.1-0.4c0.1-0.2,0.1-0.3,0.2-0.5S35.5,4,35.5,3.9z"/>
			<path class="st0" d="M40.2,4.2c-0.1,0.2-0.1,0.4-0.2,0.6c-0.1,0.2-0.1,0.4-0.1,0.4c0,0,0,0,0.1,0c0.1,0,0.2,0,0.4-0.1
				s0.3-0.1,0.4-0.1c0.1,0,0.1,0.1,0.1,0.2c0,0.1-0.1,0.2-0.4,0.4S40,5.8,39.7,5.8c-0.1,0-0.2-0.1-0.4-0.2c-0.1-0.1-0.2-0.2-0.2-0.4
				c0-0.1,0.1-0.3,0.2-0.6s0.2-0.5,0.2-0.7c-0.1,0-0.2,0-0.3,0c-0.1,0-0.1-0.1-0.2-0.2C39,3.8,39,3.7,39,3.6c0-0.1,0.3-0.2,0.8-0.2
				c0.1-0.3,0.1-0.6,0.1-0.8c0-0.1,0.1-0.1,0.2-0.1c0.1,0,0.2,0.1,0.3,0.2c0.1,0.1,0.2,0.2,0.2,0.3c0,0.1,0,0.2-0.1,0.4
				c0.2,0,0.3,0,0.4,0c0.3,0,0.4,0.1,0.4,0.2c0,0.1-0.1,0.1-0.2,0.2c-0.1,0-0.4,0.1-0.7,0.1C40.3,3.9,40.3,4.1,40.2,4.2z"/>
			<path class="st0" d="M42,2.1c0-0.1,0.1-0.2,0.2-0.2c0.1,0,0.2,0.1,0.3,0.2c0.1,0.2,0.2,0.3,0.2,0.4s0,0.3-0.1,0.5
				c-0.1,0.2-0.1,0.4-0.2,0.5s-0.1,0.4-0.2,0.7C42.1,4.5,42,4.7,42,4.8c0.2-0.4,0.5-0.8,0.8-1.1c0.3-0.3,0.5-0.4,0.6-0.4
				c0.1,0,0.2,0.1,0.3,0.3c0.1,0.2,0.2,0.4,0.2,0.5c0,0.1,0,0.4-0.1,0.6c-0.1,0.3-0.2,0.5-0.3,0.8C43.3,5.9,43.2,6,43,6
				c-0.1,0-0.2-0.1-0.2-0.2c0-0.1,0-0.3,0.1-0.6c0.1-0.4,0.2-0.6,0.2-0.7s0-0.1,0-0.1c-0.2,0-0.5,0.3-0.9,0.9
				c-0.1,0.2-0.3,0.4-0.3,0.5c-0.1,0.1-0.2,0.2-0.3,0.1c-0.1,0-0.2-0.1-0.3-0.2c-0.1-0.1-0.2-0.2-0.2-0.3s0-0.2,0.1-0.3
				c0-0.1,0.1-0.3,0.2-0.6c0.1-0.2,0.2-0.7,0.4-1.3C41.9,2.6,42,2.2,42,2.1z"/>
			<path class="st0" d="M46.1,4.9c-0.2,0.1-0.5,0.2-0.7,0.2c-0.2,0-0.4,0-0.6-0.1c0,0.1-0.1,0.2-0.1,0.3c0,0.1,0,0.2,0,0.2
				s0.1,0.1,0.2,0.1c0.3,0,0.5,0,0.7,0c0.2,0,0.3-0.1,0.3-0.1c0.1,0,0.2,0.1,0.2,0.1c0,0.1-0.1,0.3-0.3,0.4
				c-0.2,0.1-0.5,0.2-0.8,0.1S44.5,6,44.3,5.8c-0.2-0.2-0.2-0.4-0.2-0.6c0-0.2,0.1-0.5,0.3-0.8c0.2-0.3,0.3-0.5,0.6-0.6
				c0.2-0.2,0.4-0.2,0.7-0.2c0.2,0,0.4,0.1,0.6,0.3c0.2,0.2,0.3,0.4,0.2,0.6C46.4,4.7,46.3,4.8,46.1,4.9z M45.7,4.2
				c-0.1-0.1-0.1-0.1-0.2-0.1c-0.1,0-0.1,0-0.2,0.1S45.1,4.4,45,4.6c0,0,0.1,0,0.1,0c0.5,0,0.7,0,0.7-0.2
				C45.8,4.4,45.8,4.3,45.7,4.2z"/>
			<path class="st0" d="M49.2,4.6L49.2,4.6c0-0.1,0-0.1,0.1-0.1c0-0.1,0.1-0.1,0.3-0.2c0.1-0.1,0.3-0.2,0.4-0.2
				c0.1-0.1,0.2-0.2,0.3-0.3c0.1-0.1,0.1-0.2,0.2-0.3c0,0,0-0.1,0-0.1c-0.1,0-0.3,0-0.5,0.1c-0.2,0.1-0.3,0.1-0.4,0.1
				s-0.1-0.1-0.3-0.2C49.1,3.3,49,3.2,49,3.1c0-0.1,0.1-0.2,0.3-0.3c0.2-0.1,0.3-0.1,0.6-0.2c0.2,0,0.4-0.1,0.5,0
				c0.2,0,0.4,0.1,0.6,0.3c0.2,0.2,0.2,0.3,0.2,0.5c0,0.2-0.1,0.4-0.3,0.5c-0.2,0.2-0.4,0.3-0.6,0.5C50.8,4.6,51,4.8,51,5.1
				c0,0.2-0.1,0.4-0.4,0.6c-0.2,0.2-0.5,0.3-0.9,0.4c-0.3,0.1-0.7,0.1-1,0.1c-0.4,0-0.5-0.1-0.5-0.3c0-0.1,0.3-0.2,0.9-0.4
				c0.2-0.1,0.4-0.1,0.6-0.2c0.2-0.1,0.3-0.2,0.3-0.3c0-0.1,0-0.1-0.1-0.2c-0.1,0-0.1-0.1-0.2-0.1c-0.3,0-0.4-0.1-0.5-0.2
				C49.3,4.7,49.2,4.6,49.2,4.6z"/>
			<path class="st0" d="M51.6,4.7l0-0.6c0-0.2,0.1-0.3,0.2-0.3c0.1,0,0.1,0,0.2,0.1C52.1,4,52.1,4,52.2,4.1c0.1-0.1,0.3-0.2,0.4-0.2
				c0.1-0.1,0.3-0.1,0.4-0.1c0.2,0,0.4,0.1,0.4,0.2c0,0.1,0,0.1,0,0.1c0,0,0,0-0.1,0.1c0,0,0,0-0.1,0.1c0,0-0.1,0-0.1,0
				c-0.1,0-0.1,0.1-0.2,0.1c-0.2,0.1-0.3,0.2-0.4,0.3c-0.1,0.1-0.2,0.3-0.3,0.5C52.1,5.7,52,6,51.9,6.1c-0.1,0.2-0.2,0.3-0.3,0.3
				c-0.1,0-0.2-0.1-0.2-0.2c0-0.1-0.1-0.2-0.1-0.3c0-0.1,0-0.2,0.1-0.4c0.1-0.2,0.1-0.3,0.2-0.5C51.6,5,51.6,4.8,51.6,4.7z"/>
			<path class="st0" d="M55.5,2.6c0.1,0,0.2,0.1,0.3,0.2C55.9,3,56,3.1,56,3.2c0,0.1-0.1,0.3-0.2,0.8s-0.2,0.7-0.3,0.8
				c-0.3,1.2-0.6,1.7-0.7,1.7c-0.1,0-0.1,0-0.2-0.1c-0.1-0.1-0.1-0.2-0.1-0.3c0,0,0,0,0,0c-0.4,0.3-0.6,0.4-0.7,0.4
				c-0.1,0-0.3-0.1-0.4-0.3c-0.1-0.2-0.2-0.3-0.2-0.4s0-0.3,0.1-0.4c0-0.2,0.1-0.3,0.2-0.5c0.1-0.2,0.2-0.3,0.3-0.5
				c0.1-0.1,0.2-0.3,0.4-0.4c0.1-0.1,0.3-0.1,0.4-0.1c0.2,0,0.4,0.1,0.5,0.4c0.2-0.8,0.3-1.3,0.3-1.6C55.3,2.6,55.4,2.6,55.5,2.6z
				 M53.8,5.9c0.1,0,0.2-0.1,0.4-0.2s0.4-0.3,0.5-0.5c0,0,0-0.1,0-0.2c0-0.1,0-0.2-0.1-0.3c-0.1-0.1-0.1-0.1-0.2-0.1
				c-0.1,0-0.2,0-0.3,0.1C54.1,4.8,54,5,53.9,5.1C53.8,5.4,53.7,5.7,53.8,5.9C53.7,5.8,53.7,5.9,53.8,5.9
				C53.8,5.9,53.8,5.9,53.8,5.9z"/>
			<path class="st0" d="M59.8,4.2c0.1,0,0.3,0.1,0.4,0.4c0.1,0.2,0.2,0.5,0.2,0.7c0,0.1-0.1,0.3-0.2,0.5c-0.1,0.2-0.3,0.3-0.5,0.5
				S59.3,6.5,59,6.6c-0.2,0.1-0.5,0.1-0.7,0.1l-0.1,0c-0.3,0.9-0.4,1.3-0.5,1.3c-0.1,0-0.1-0.1-0.2-0.2c-0.1-0.1-0.1-0.2-0.1-0.3
				c0-0.1,0.1-0.3,0.2-0.7c0.3-1.2,0.5-2.1,0.6-2.7c0-0.1,0.1-0.1,0.2-0.1c0.1,0,0.2,0.1,0.3,0.2c0.1,0.1,0.2,0.2,0.2,0.4
				C59.2,4.3,59.5,4.2,59.8,4.2z M59.3,5.8c0.2-0.2,0.4-0.4,0.4-0.6c0-0.2,0-0.3-0.1-0.3c-0.1,0-0.3,0.1-0.5,0.2
				c-0.1,0.1-0.1,0.2-0.2,0.3c-0.1,0.1-0.2,0.3-0.2,0.5l-0.1,0.3C58.8,6.1,59,6,59.3,5.8z"/>
			<path class="st0" d="M61.7,3.1c0.1,0.2,0.2,0.3,0.2,0.4c0,0.1,0,0.4-0.1,0.7c-0.1,0.3-0.1,0.6-0.2,0.8c-0.3,1.2-0.6,1.8-0.7,1.8
				c-0.1,0-0.2-0.1-0.3-0.2c-0.1-0.1-0.2-0.2-0.1-0.3c0,0,0.1-0.2,0.2-0.5s0.2-0.8,0.3-1.3C61.2,4,61.2,3.5,61.3,3
				c0-0.1,0.1-0.1,0.2-0.1C61.5,2.9,61.6,3,61.7,3.1z"/>
			<path class="st0" d="M64.1,5.6c0.1,0.1,0.1,0.1,0.1,0.2c0,0,0,0.1-0.1,0.3c0,0.1-0.1,0.2-0.1,0.3s0,0.1,0,0.2c0,0,0,0.1,0,0.1
				s0,0.1,0,0.1c0,0,0,0.1,0,0.1c0,0,0,0,0,0.1c0,0,0,0,0,0.1c0,0,0,0,0,0c0,0-0.1,0-0.1,0c0,0-0.1-0.1-0.2-0.2
				c-0.1-0.1-0.1-0.2-0.1-0.4C63.1,6.8,62.8,7,62.6,7c-0.1,0-0.3-0.1-0.5-0.3s-0.2-0.3-0.2-0.5s0.1-0.4,0.3-0.7
				c0.2-0.3,0.4-0.6,0.6-0.8c0.3-0.2,0.5-0.4,0.8-0.3c0.1,0,0.3,0.1,0.5,0.3c0.2,0.2,0.3,0.3,0.3,0.5C64.3,5.3,64.2,5.4,64.1,5.6z
				 M62.6,6.3c0.1,0,0.3-0.1,0.6-0.2c0.2-0.2,0.4-0.4,0.5-0.7c0,0,0-0.1,0.1-0.1c0-0.2,0-0.3-0.1-0.3c-0.1,0-0.3,0.1-0.5,0.2
				c-0.2,0.2-0.3,0.3-0.4,0.5C62.6,6,62.5,6.2,62.6,6.3C62.5,6.3,62.5,6.3,62.6,6.3C62.5,6.3,62.5,6.3,62.6,6.3z"/>
			<path class="st0" d="M64.5,6.3c0-0.2,0.1-0.5,0.3-0.8c0.2-0.3,0.4-0.5,0.6-0.7c0.3-0.2,0.5-0.3,0.7-0.3c0.1,0,0.2,0.1,0.4,0.2
				c0.1,0.2,0.2,0.3,0.2,0.4c0,0.1,0,0.1-0.1,0.1c0,0-0.1,0-0.2-0.1c-0.1,0-0.1-0.1-0.2-0.1c-0.1,0-0.2,0.1-0.3,0.2
				c-0.1,0.1-0.3,0.3-0.4,0.4s-0.2,0.3-0.2,0.4c0,0.1,0,0.2,0,0.2c0,0,0.1,0.1,0.3,0.1c0.2,0,0.3,0,0.4,0c0.1,0,0.2,0,0.3-0.1
				s0.1,0,0.2,0c0.1,0,0.1,0,0.1,0.1c0,0.1-0.1,0.3-0.4,0.4c-0.3,0.1-0.5,0.2-0.8,0.2c-0.2,0-0.3-0.1-0.6-0.3
				C64.6,6.6,64.5,6.4,64.5,6.3z"/>
			<path class="st0" d="M68.9,6.1c-0.2,0.1-0.5,0.2-0.7,0.2c-0.2,0-0.4,0-0.6-0.1c0,0.1-0.1,0.2-0.1,0.3c0,0.1,0,0.2,0,0.2
				s0.1,0.1,0.2,0.1c0.3,0,0.5,0,0.7,0c0.2,0,0.3-0.1,0.3-0.1c0.1,0,0.2,0.1,0.2,0.1c0,0.1-0.1,0.3-0.3,0.4
				c-0.2,0.1-0.5,0.2-0.8,0.1s-0.5-0.1-0.7-0.3C67,6.7,67,6.5,67,6.3c0-0.2,0.1-0.5,0.3-0.8c0.2-0.3,0.3-0.5,0.6-0.6
				c0.2-0.2,0.4-0.2,0.7-0.2S68.9,4.8,69,5c0.2,0.2,0.3,0.4,0.2,0.6C69.3,5.8,69.2,5.9,68.9,6.1z M68.6,5.4
				c-0.1-0.1-0.1-0.1-0.2-0.1c-0.1,0-0.1,0-0.2,0.1c-0.1,0.1-0.2,0.2-0.3,0.3c0,0,0.1,0,0.1,0c0.5,0,0.7,0,0.7-0.2
				C68.7,5.5,68.7,5.4,68.6,5.4z"/>
		</g>
		<g class="st1">
			<path class="st0" d="M13.5,6.2c0.1,0,0.2,0,0.3,0.1c0.1,0.1,0.1,0.1,0.1,0.2c0,0.1-0.1,0.2-0.1,0.2c-0.1,0.1-0.2,0.2-0.4,0.3
				c-0.1,0.1-0.3,0.2-0.5,0.4c-0.2,0.1-0.3,0.3-0.5,0.5C12.3,8,12.2,8.2,12,8.5c-0.1,0.3-0.2,0.5-0.2,0.8s0,0.5,0.1,0.6
				c0.1,0.2,0.2,0.3,0.3,0.4c0.1,0.1,0.2,0.2,0.4,0.3c0.1,0.1,0.2,0.2,0.3,0.2c0.1,0.1,0.1,0.1,0.1,0.2c0,0.1-0.1,0.1-0.2,0.1
				c-0.3,0-0.6-0.1-0.8-0.3c-0.3-0.2-0.5-0.4-0.7-0.7c-0.2-0.3-0.2-0.6-0.2-1s0.1-0.7,0.2-1c0.1-0.3,0.3-0.6,0.5-0.8
				c0.2-0.2,0.4-0.4,0.6-0.6c0.2-0.2,0.4-0.3,0.6-0.4S13.4,6.2,13.5,6.2z"/>
			<path class="st0" d="M15.3,8.2c0-0.1,0.1-0.1,0.2-0.1c0.1,0,0.2,0.1,0.3,0.2s0.1,0.3,0.1,0.4c0,0.1,0,0.2-0.1,0.4
				c-0.1,0.2-0.1,0.3-0.1,0.4s-0.1,0.2-0.1,0.3c-0.1,0.1-0.1,0.3-0.1,0.4c0,0.1-0.1,0.3-0.2,0.4c-0.1,0.2-0.1,0.4-0.2,0.5
				c-0.1,0.3-0.3,0.5-0.4,0.7C14.4,12,14.2,12,13.9,12c-0.2,0-0.5-0.1-0.6-0.2c-0.2-0.1-0.3-0.3-0.3-0.4c0-0.1,0-0.2,0.1-0.3
				s0.1-0.1,0.2-0.1c0,0,0.1,0,0.2,0.1c0.1,0.1,0.2,0.2,0.2,0.3c0.1,0.1,0.2,0.1,0.2,0.1c0,0,0.1,0,0.1-0.1c0,0,0.1-0.1,0.1-0.1
				c0,0,0-0.1,0.1-0.1c0-0.1,0-0.1,0.1-0.2c0,0,0-0.1,0.1-0.2c0-0.1,0.1-0.1,0.1-0.2c0.1-0.2,0.1-0.3,0.2-0.5
				c-0.1,0.1-0.2,0.2-0.4,0.3c-0.1,0.1-0.2,0.1-0.3,0.1s-0.2-0.1-0.4-0.2c-0.1-0.2-0.2-0.3-0.2-0.5c0-0.2,0.1-0.4,0.2-0.7
				c0.1-0.3,0.2-0.6,0.3-0.8C14,8.1,14.1,8,14.2,8c0.1,0,0.2,0.1,0.3,0.1c0.1,0.1,0.1,0.2,0.1,0.3c0,0.1-0.1,0.2-0.1,0.4
				c-0.1,0.2-0.2,0.4-0.3,0.6C14.1,9.6,14,9.8,14,10c0,0,0,0,0,0c0,0,0.1-0.1,0.3-0.2c0.2-0.2,0.3-0.4,0.5-0.7
				C15,8.8,15.2,8.5,15.3,8.2z"/>
			<path class="st0" d="M16.4,8.7c0.3-0.4,0.6-0.5,0.8-0.5c0.3,0,0.5,0.1,0.6,0.3c0.2,0.2,0.2,0.4,0.2,0.7c0,0.3-0.1,0.5-0.2,0.8
				c-0.1,0.3-0.3,0.5-0.5,0.6c-0.2,0.2-0.5,0.2-0.7,0.2c-0.2,0-0.3-0.1-0.5-0.3c-0.1-0.2-0.2-0.4-0.2-0.6C16,9.5,16.1,9.1,16.4,8.7z
				 M17.2,9.8c0.1-0.2,0.2-0.5,0.2-0.7c0-0.2,0-0.4-0.1-0.5c-0.1,0.1-0.3,0.2-0.5,0.5c-0.2,0.3-0.2,0.5-0.3,0.7s0,0.3,0,0.4
				C16.9,10.2,17,10,17.2,9.8z"/>
			<path class="st0" d="M20.1,8.5c0-0.1,0.1-0.1,0.2-0.1s0.2,0.1,0.3,0.2c0.1,0.1,0.1,0.3,0.1,0.4c0,0-0.1,0.3-0.3,0.7
				c-0.2,0.5-0.3,0.8-0.4,1.1c-0.1,0.1-0.1,0.2-0.2,0.2c-0.1,0-0.1,0-0.2-0.1c0-0.1-0.1-0.1-0.1-0.2c0-0.1,0-0.3,0.1-0.4
				c-0.4,0.5-0.7,0.7-0.9,0.7c-0.1,0-0.2-0.1-0.4-0.2c-0.1-0.1-0.2-0.3-0.2-0.4c0-0.3,0.1-0.7,0.3-1.2c0.2-0.5,0.4-0.7,0.6-0.7
				c0.1,0,0.2,0.1,0.3,0.1c0.1,0.1,0.1,0.2,0.1,0.3c0,0-0.1,0.2-0.1,0.3c-0.3,0.5-0.4,0.9-0.4,1.2c0,0,0,0,0,0
				c0.1,0,0.1-0.1,0.3-0.2c0.1-0.2,0.3-0.4,0.5-0.7S20,8.8,20.1,8.5z"/>
			<path class="st0" d="M22.7,10.3c0-0.2,0.1-0.5,0.3-0.8c0.2-0.3,0.4-0.5,0.6-0.7c0.3-0.2,0.5-0.3,0.7-0.3c0.1,0,0.2,0.1,0.4,0.2
				c0.1,0.2,0.2,0.3,0.2,0.4c0,0.1,0,0.1-0.1,0.1c0,0-0.1,0-0.2-0.1c-0.1,0-0.1-0.1-0.2-0.1c-0.1,0-0.2,0.1-0.3,0.2
				c-0.1,0.1-0.3,0.3-0.4,0.4c-0.1,0.2-0.2,0.3-0.2,0.4c0,0.1,0,0.2,0,0.2c0,0,0.1,0.1,0.3,0.1c0.2,0,0.3,0,0.4,0s0.2,0,0.3-0.1
				c0.1,0,0.1,0,0.2,0c0.1,0,0.1,0,0.1,0.1c0,0.1-0.1,0.3-0.4,0.4c-0.3,0.1-0.5,0.2-0.8,0.2c-0.2,0-0.3-0.1-0.6-0.3
				C22.8,10.6,22.7,10.5,22.7,10.3z"/>
			<path class="st0" d="M27.4,9.9c0.1,0.1,0.1,0.1,0.1,0.2c0,0,0,0.1-0.1,0.3c0,0.1-0.1,0.2-0.1,0.3c0,0.1,0,0.1,0,0.2
				c0,0,0,0.1,0,0.1c0,0,0,0.1,0,0.1c0,0,0,0.1,0,0.1c0,0,0,0,0,0.1c0,0,0,0,0,0.1s0,0,0,0c0,0-0.1,0-0.1,0s-0.1-0.1-0.2-0.2
				s-0.1-0.2-0.1-0.4c-0.3,0.3-0.6,0.5-0.8,0.4c-0.1,0-0.3-0.1-0.5-0.3c-0.2-0.2-0.2-0.3-0.2-0.5c0-0.2,0.1-0.4,0.3-0.7
				C25.6,9.5,25.8,9.3,26,9c0.3-0.2,0.5-0.4,0.8-0.3c0.1,0,0.3,0.1,0.5,0.3c0.2,0.2,0.3,0.3,0.3,0.5S27.5,9.7,27.4,9.9z M25.8,10.6
				c0.1,0,0.3-0.1,0.6-0.2c0.2-0.2,0.4-0.4,0.5-0.7c0,0,0-0.1,0.1-0.1c0-0.2,0-0.3-0.1-0.3c-0.1,0-0.3,0.1-0.5,0.2
				c-0.2,0.2-0.3,0.3-0.4,0.5C25.8,10.3,25.8,10.4,25.8,10.6C25.8,10.6,25.8,10.6,25.8,10.6C25.8,10.6,25.8,10.6,25.8,10.6z"/>
			<path class="st0" d="M29.7,8.8c0.2,0,0.3,0.1,0.5,0.3c0.1,0.2,0.2,0.3,0.2,0.5c0,0.3-0.1,0.6-0.2,0.9c-0.1,0.3-0.2,0.5-0.3,0.7
				c-0.1,0.2-0.2,0.2-0.3,0.2c-0.1,0-0.2-0.1-0.2-0.2c0-0.1,0.1-0.4,0.2-0.7c0.1-0.3,0.2-0.5,0.2-0.6c0-0.1,0-0.2,0-0.2
				c0,0-0.1,0-0.1,0.1c0,0-0.1,0.1-0.1,0.1c0,0-0.1,0.1-0.1,0.1c0,0.1-0.1,0.1-0.1,0.1c0,0-0.1,0.1-0.1,0.2c0,0.1-0.1,0.1-0.1,0.2
				s-0.1,0.1-0.1,0.2c-0.3,0.6-0.6,0.9-0.8,0.8c-0.1,0-0.2-0.1-0.3-0.2s-0.2-0.2-0.1-0.3c0,0,0-0.1,0.1-0.2c0.1-0.1,0.1-0.2,0.1-0.3
				c0-0.1,0-0.1,0.1-0.2c0-0.1,0-0.2,0.1-0.2c0-0.1,0-0.2,0-0.2c0,0,0-0.1,0-0.2c0.1-0.4,0.1-0.7,0.1-0.7c0,0,0-0.1,0.1-0.1
				c0.1,0,0.2,0.1,0.4,0.2c0.1,0.1,0.2,0.2,0.2,0.3c0,0.2-0.1,0.5-0.2,0.9c0.2-0.4,0.5-0.7,0.6-0.9C29.4,8.9,29.6,8.8,29.7,8.8z"/>
			<path class="st0" d="M32.5,10.8c0-0.2,0.1-0.5,0.3-0.8c0.2-0.3,0.4-0.5,0.6-0.7C33.7,9.1,33.9,9,34.1,9c0.1,0,0.2,0.1,0.4,0.2
				c0.1,0.2,0.2,0.3,0.2,0.4c0,0.1,0,0.1-0.1,0.1c0,0-0.1,0-0.2-0.1c-0.1,0-0.1-0.1-0.2-0.1S34,9.8,33.8,9.9
				c-0.1,0.1-0.3,0.3-0.4,0.4c-0.1,0.2-0.2,0.3-0.2,0.4c0,0.1,0,0.2,0,0.2c0,0,0.1,0.1,0.3,0.1c0.2,0,0.3,0,0.4,0
				c0.1,0,0.2,0,0.3-0.1c0.1,0,0.1,0,0.2,0c0.1,0,0.1,0,0.1,0.1c0,0.1-0.1,0.3-0.4,0.4c-0.3,0.1-0.5,0.2-0.8,0.2
				c-0.2,0-0.3-0.1-0.6-0.3C32.6,11.1,32.5,10.9,32.5,10.8z"/>
			<path class="st0" d="M35.8,7.9c0-0.1,0.1-0.2,0.2-0.2c0.1,0,0.2,0.1,0.3,0.2c0.1,0.2,0.2,0.3,0.2,0.4c0,0.1,0,0.3-0.1,0.5
				c-0.1,0.2-0.1,0.4-0.2,0.5C36.1,9.5,36,9.7,35.9,10c-0.1,0.3-0.2,0.5-0.2,0.6c0.2-0.4,0.5-0.8,0.8-1.1c0.3-0.3,0.5-0.4,0.6-0.4
				c0.1,0,0.2,0.1,0.3,0.3c0.1,0.2,0.2,0.4,0.2,0.5c0,0.1,0,0.4-0.1,0.6s-0.2,0.5-0.3,0.8c-0.1,0.3-0.3,0.4-0.4,0.4
				c-0.1,0-0.2-0.1-0.2-0.2c0-0.1,0-0.3,0.1-0.6c0.1-0.4,0.2-0.6,0.2-0.7c0-0.1,0-0.1,0-0.1c-0.2,0-0.5,0.3-0.9,0.9
				c-0.1,0.2-0.3,0.4-0.3,0.5c-0.1,0.1-0.2,0.2-0.3,0.1c-0.1,0-0.2-0.1-0.3-0.2c-0.1-0.1-0.2-0.2-0.1-0.3s0-0.2,0.1-0.3
				c0-0.1,0.1-0.3,0.2-0.6s0.2-0.7,0.4-1.3C35.7,8.3,35.8,8,35.8,7.9z"/>
			<path class="st0" d="M40,10.5c0.1,0.1,0.1,0.1,0.1,0.2c0,0,0,0.1-0.1,0.3c0,0.1-0.1,0.2-0.1,0.3c0,0.1,0,0.1,0,0.2
				c0,0,0,0.1,0,0.1c0,0,0,0.1,0,0.1c0,0,0,0.1,0,0.1c0,0,0,0,0,0.1c0,0,0,0,0,0.1c0,0,0,0,0,0c0,0-0.1,0-0.1,0c0,0-0.1-0.1-0.2-0.2
				c-0.1-0.1-0.1-0.2-0.1-0.4c-0.3,0.3-0.6,0.5-0.8,0.4c-0.1,0-0.3-0.1-0.5-0.3c-0.2-0.2-0.2-0.3-0.2-0.5c0-0.2,0.1-0.4,0.3-0.7
				c0.2-0.3,0.4-0.6,0.6-0.8c0.3-0.2,0.5-0.4,0.8-0.3c0.1,0,0.3,0.1,0.5,0.3c0.2,0.2,0.3,0.3,0.3,0.5S40.1,10.3,40,10.5z M38.5,11.2
				c0.1,0,0.3-0.1,0.6-0.2c0.2-0.2,0.4-0.4,0.5-0.7c0,0,0-0.1,0.1-0.1c0-0.2,0-0.3-0.1-0.3c-0.1,0-0.3,0.1-0.5,0.2
				c-0.2,0.2-0.3,0.3-0.4,0.5C38.5,10.9,38.5,11.1,38.5,11.2C38.5,11.2,38.5,11.2,38.5,11.2C38.5,11.2,38.5,11.2,38.5,11.2z"/>
			<path class="st0" d="M42.4,9.4c0.2,0,0.3,0.1,0.5,0.3C43,9.9,43,10,43,10.2c0,0.3-0.1,0.6-0.2,0.9c-0.1,0.3-0.2,0.5-0.3,0.7
				c-0.1,0.2-0.2,0.2-0.3,0.2S42,12,42,11.8c0-0.1,0.1-0.4,0.2-0.7c0.1-0.3,0.2-0.5,0.2-0.6c0-0.1,0-0.2,0-0.2c0,0-0.1,0-0.1,0.1
				c0,0-0.1,0.1-0.1,0.1c0,0-0.1,0.1-0.1,0.1c0,0.1-0.1,0.1-0.1,0.1c0,0-0.1,0.1-0.1,0.2c0,0.1-0.1,0.1-0.1,0.2c0,0-0.1,0.1-0.1,0.2
				C41.2,11.7,41,12,40.8,12c-0.1,0-0.2-0.1-0.3-0.2c-0.1-0.1-0.2-0.2-0.1-0.3c0,0,0-0.1,0.1-0.2c0.1-0.1,0.1-0.2,0.1-0.3
				c0-0.1,0-0.1,0.1-0.2c0-0.1,0-0.2,0.1-0.2c0-0.1,0-0.2,0-0.2c0,0,0-0.1,0-0.2c0.1-0.4,0.1-0.7,0.1-0.7c0,0,0.1-0.1,0.1-0.1
				c0.1,0,0.2,0.1,0.4,0.2c0.1,0.1,0.2,0.2,0.2,0.3c0,0.2-0.1,0.5-0.2,0.9c0.2-0.4,0.5-0.7,0.6-0.9C42.1,9.6,42.3,9.4,42.4,9.4z"/>
			<path class="st0" d="M45.3,10.7c0,0.1,0.1,0.1,0.1,0.2c0,0.1,0,0.2-0.1,0.3c-0.1,0.2-0.2,0.4-0.3,0.7c-0.1,0.3-0.2,0.5-0.2,0.7
				c-0.1,0.2-0.1,0.3-0.2,0.5c-0.1,0.1-0.2,0.2-0.3,0.3s-0.3,0.1-0.4,0.1c-0.2,0-0.4-0.1-0.6-0.3c-0.2-0.2-0.3-0.3-0.2-0.4
				s0-0.2,0.1-0.3c0.1-0.1,0.1-0.1,0.2-0.1c0,0,0.1,0,0.1,0.1c0,0.1,0.1,0.1,0.1,0.2c0,0.1,0.1,0.1,0.1,0.2s0.1,0.1,0.2,0.1
				s0.2,0,0.2-0.1s0.1-0.2,0.2-0.3c0.1-0.3,0.2-0.5,0.2-0.6c-0.2,0.1-0.4,0.2-0.6,0.2c-0.1,0-0.3-0.1-0.4-0.3
				c-0.1-0.2-0.2-0.3-0.2-0.5c0-0.1,0.1-0.3,0.1-0.5c0.1-0.2,0.2-0.4,0.3-0.6c0.1-0.2,0.3-0.4,0.5-0.5c0.2-0.1,0.4-0.2,0.6-0.2
				c0.1,0,0.2,0,0.3,0.1c0.1,0.1,0.1,0.2,0.2,0.3c0.1,0.2,0.1,0.4,0.1,0.6C45.3,10.6,45.3,10.6,45.3,10.7z M43.8,11.4
				C43.8,11.5,43.9,11.5,43.8,11.4c0.2,0.1,0.3,0,0.5-0.2s0.4-0.3,0.5-0.5l0-0.1c0-0.2,0-0.4,0-0.4c0,0,0,0-0.1,0
				c-0.2,0-0.3,0.2-0.6,0.5C44,11,43.8,11.3,43.8,11.4z"/>
			<path class="st0" d="M47.6,11.1c-0.2,0.1-0.5,0.2-0.7,0.2c-0.2,0-0.4,0-0.6-0.1c0,0.1-0.1,0.2-0.1,0.3c0,0.1,0,0.2,0,0.2
				c0,0,0.1,0.1,0.2,0.1c0.3,0,0.5,0,0.7,0c0.2,0,0.3-0.1,0.3-0.1c0.1,0,0.2,0.1,0.2,0.1c0,0.1-0.1,0.3-0.3,0.4
				c-0.2,0.1-0.5,0.2-0.8,0.1c-0.3,0-0.5-0.1-0.7-0.3c-0.2-0.2-0.2-0.4-0.2-0.6s0.1-0.5,0.3-0.8s0.3-0.5,0.6-0.6
				c0.2-0.2,0.4-0.2,0.7-0.2c0.2,0,0.4,0.1,0.6,0.3c0.2,0.2,0.3,0.4,0.2,0.6C48,10.8,47.9,11,47.6,11.1z M47.3,10.4
				c-0.1-0.1-0.1-0.1-0.2-0.1s-0.1,0-0.2,0.1c-0.1,0.1-0.2,0.2-0.3,0.3c0,0,0.1,0,0.1,0c0.5,0,0.7,0,0.7-0.2
				C47.4,10.5,47.4,10.5,47.3,10.4z"/>
			<path class="st0" d="M51.3,10.9c-0.1,0.2-0.1,0.4-0.2,0.6S51,11.9,51,11.9c0,0,0,0,0.1,0c0.1,0,0.2,0,0.4-0.1
				c0.2-0.1,0.3-0.1,0.4-0.1c0.1,0,0.1,0.1,0.1,0.2c0,0.1-0.1,0.2-0.4,0.4c-0.2,0.1-0.5,0.2-0.7,0.2c-0.1,0-0.2-0.1-0.4-0.2
				c-0.1-0.1-0.2-0.2-0.2-0.4c0-0.1,0.1-0.3,0.2-0.6s0.2-0.5,0.2-0.7c-0.1,0-0.2,0-0.3,0c-0.1,0-0.1-0.1-0.2-0.2
				c-0.1-0.1-0.1-0.2-0.1-0.3c0-0.1,0.3-0.2,0.8-0.2c0.1-0.3,0.1-0.6,0.1-0.8c0-0.1,0.1-0.1,0.2-0.1c0.1,0,0.2,0.1,0.3,0.2
				c0.1,0.1,0.2,0.2,0.2,0.3c0,0.1,0,0.2-0.1,0.4c0.2,0,0.3,0,0.4,0c0.3,0,0.4,0.1,0.4,0.2c0,0.1-0.1,0.1-0.2,0.2
				c-0.1,0-0.4,0.1-0.7,0.1C51.5,10.6,51.4,10.7,51.3,10.9z"/>
			<path class="st0" d="M53.2,8.8c0-0.1,0.1-0.2,0.2-0.2c0.1,0,0.2,0.1,0.3,0.2c0.1,0.2,0.2,0.3,0.2,0.4c0,0.1,0,0.3-0.1,0.5
				s-0.1,0.4-0.2,0.5c-0.1,0.2-0.1,0.4-0.2,0.7c-0.1,0.3-0.2,0.5-0.2,0.6c0.2-0.4,0.5-0.8,0.8-1.1c0.3-0.3,0.5-0.4,0.6-0.4
				c0.1,0,0.2,0.1,0.3,0.3c0.1,0.2,0.2,0.4,0.2,0.5c0,0.1,0,0.4-0.1,0.6c-0.1,0.3-0.2,0.5-0.3,0.8c-0.1,0.3-0.3,0.4-0.4,0.4
				c-0.1,0-0.2-0.1-0.2-0.2c0-0.1,0-0.3,0.1-0.6c0.1-0.4,0.2-0.6,0.2-0.7c0-0.1,0-0.1,0-0.1c-0.2,0-0.5,0.3-0.9,0.9
				c-0.1,0.2-0.3,0.4-0.3,0.5c-0.1,0.1-0.2,0.2-0.3,0.1c-0.1,0-0.2-0.1-0.3-0.2c-0.1-0.1-0.2-0.2-0.2-0.3c0-0.1,0-0.2,0.1-0.3
				c0-0.1,0.1-0.3,0.2-0.6c0.1-0.2,0.2-0.7,0.4-1.3C53.1,9.2,53.2,8.9,53.2,8.8z"/>
			<path class="st0" d="M55.9,10.1c0.1,0,0.2,0.1,0.3,0.2c0.1,0.1,0.1,0.3,0.1,0.4c0,0.1-0.1,0.3-0.2,0.7c-0.1,0.4-0.3,0.8-0.4,1.1
				c0,0.1-0.1,0.2-0.3,0.2c-0.1,0-0.1,0-0.2-0.1c-0.1-0.1-0.1-0.1-0.1-0.2c0-0.1,0.1-0.3,0.2-0.7s0.2-0.7,0.2-0.9
				c0.1-0.2,0.1-0.4,0.2-0.5C55.8,10.2,55.9,10.1,55.9,10.1z M55.9,9.5c0-0.1,0-0.2,0.1-0.3c0.1-0.1,0.2-0.1,0.2-0.1
				c0.1,0,0.2,0.1,0.3,0.3c0.1,0.2,0.1,0.3,0.1,0.4c0,0.1,0,0.1-0.1,0.2c-0.1,0-0.1,0.1-0.2,0.1c-0.1,0-0.2-0.1-0.3-0.2
				C55.9,9.7,55.9,9.6,55.9,9.5z"/>
			<path class="st0" d="M58.3,10.2c0.1,0,0.3,0.1,0.4,0.2c0.1,0.2,0.2,0.3,0.2,0.4c0,0.1,0,0.1-0.1,0.1c0,0-0.1,0-0.2-0.1
				c-0.1,0-0.2-0.1-0.2-0.1c-0.1,0-0.2,0-0.4,0.1c-0.2,0-0.2,0.1-0.2,0.2c0,0,0,0.1,0.1,0.2c0.1,0.1,0.2,0.1,0.3,0.2
				s0.2,0.2,0.3,0.3c0.1,0.1,0.1,0.3,0.1,0.4c0,0.1-0.1,0.3-0.3,0.4c-0.2,0.1-0.5,0.2-0.7,0.2s-0.5-0.1-0.7-0.2
				c-0.2-0.1-0.3-0.3-0.3-0.4c0-0.1,0.1-0.2,0.2-0.2c0,0,0.1,0,0.2,0.1c0.2,0.1,0.4,0.2,0.6,0.2c0.2,0,0.4,0,0.4-0.1
				c0-0.1,0-0.1-0.1-0.2c-0.1-0.1-0.2-0.2-0.3-0.2c-0.1-0.1-0.2-0.2-0.3-0.3c-0.1-0.1-0.1-0.2-0.1-0.3c0-0.2,0.2-0.4,0.5-0.6
				C57.8,10.3,58.1,10.2,58.3,10.2z"/>
			<path class="st0" d="M63.1,11.7c0.1,0.1,0.1,0.1,0.1,0.2s0,0.1-0.1,0.3c0,0.1-0.1,0.2-0.1,0.3c0,0.1,0,0.1,0,0.2c0,0,0,0.1,0,0.1
				c0,0,0,0.1,0,0.1c0,0,0,0.1,0,0.1c0,0,0,0,0,0.1c0,0,0,0,0,0.1c0,0,0,0,0,0c0,0-0.1,0-0.1,0c0,0-0.1-0.1-0.2-0.2
				s-0.1-0.2-0.1-0.4C62,12.9,61.8,13,61.5,13c-0.1,0-0.3-0.1-0.5-0.3c-0.2-0.2-0.2-0.3-0.2-0.5c0-0.2,0.1-0.4,0.3-0.7
				c0.2-0.3,0.4-0.6,0.6-0.8c0.3-0.2,0.5-0.4,0.8-0.3c0.1,0,0.3,0.1,0.5,0.3c0.2,0.2,0.3,0.3,0.3,0.5S63.2,11.5,63.1,11.7z
				 M61.6,12.4c0.1,0,0.3-0.1,0.6-0.2c0.2-0.2,0.4-0.4,0.5-0.7c0,0,0-0.1,0.1-0.1c0-0.2,0-0.3-0.1-0.3c-0.1,0-0.3,0.1-0.5,0.2
				c-0.2,0.2-0.3,0.3-0.4,0.5C61.6,12.1,61.5,12.2,61.6,12.4C61.5,12.3,61.5,12.4,61.6,12.4C61.5,12.4,61.5,12.4,61.6,12.4z"/>
			<path class="st0" d="M65.4,10.6c0.2,0,0.3,0.1,0.5,0.3c0.1,0.2,0.2,0.3,0.2,0.5c0,0.3-0.1,0.6-0.2,0.9c-0.1,0.3-0.2,0.5-0.3,0.7
				c-0.1,0.2-0.2,0.2-0.3,0.2c-0.1,0-0.2-0.1-0.2-0.2c0-0.1,0.1-0.4,0.2-0.7c0.1-0.3,0.2-0.5,0.2-0.6c0-0.1,0-0.2,0-0.2
				c0,0-0.1,0-0.1,0.1c0,0-0.1,0.1-0.1,0.1c0,0-0.1,0.1-0.1,0.1c0,0.1-0.1,0.1-0.1,0.1c0,0-0.1,0.1-0.1,0.2c0,0.1-0.1,0.1-0.1,0.2
				c0,0-0.1,0.1-0.1,0.2c-0.3,0.6-0.6,0.9-0.8,0.8c-0.1,0-0.2-0.1-0.3-0.2c-0.1-0.1-0.2-0.2-0.2-0.3c0,0,0-0.1,0.1-0.2
				c0.1-0.1,0.1-0.2,0.1-0.3s0-0.1,0.1-0.2c0-0.1,0-0.2,0.1-0.2c0-0.1,0-0.2,0-0.2c0,0,0-0.1,0-0.2c0.1-0.4,0.1-0.7,0.1-0.7
				c0,0,0-0.1,0.1-0.1c0.1,0,0.2,0.1,0.4,0.2s0.2,0.2,0.2,0.3c0,0.2-0.1,0.5-0.2,0.9c0.2-0.4,0.5-0.7,0.6-0.9
				C65.1,10.7,65.3,10.6,65.4,10.6z"/>
			<path class="st0" d="M68.3,10.9c0-0.1,0.1-0.1,0.2-0.1c0.1,0,0.2,0.1,0.3,0.2s0.1,0.3,0.1,0.4c0,0.1,0,0.2-0.1,0.4
				c-0.1,0.2-0.1,0.3-0.1,0.4c0,0.1-0.1,0.2-0.1,0.3c-0.1,0.1-0.1,0.3-0.1,0.4c0,0.1-0.1,0.3-0.2,0.4c-0.1,0.2-0.1,0.4-0.2,0.5
				c-0.1,0.3-0.3,0.5-0.4,0.7c-0.2,0.2-0.4,0.2-0.6,0.2s-0.5-0.1-0.6-0.2C66.1,14.3,66,14.2,66,14c0-0.1,0-0.2,0.1-0.3
				s0.1-0.1,0.2-0.1s0.1,0,0.2,0.1c0.1,0.1,0.2,0.2,0.2,0.3c0.1,0.1,0.2,0.1,0.2,0.1c0,0,0.1,0,0.1-0.1c0,0,0.1-0.1,0.1-0.1
				c0,0,0-0.1,0.1-0.1s0-0.1,0.1-0.2c0,0,0-0.1,0.1-0.2c0-0.1,0.1-0.1,0.1-0.2c0.1-0.2,0.1-0.3,0.2-0.5c-0.1,0.1-0.2,0.2-0.4,0.3
				c-0.1,0.1-0.2,0.1-0.3,0.1c-0.1,0-0.2-0.1-0.4-0.2c-0.1-0.2-0.2-0.3-0.2-0.5c0-0.2,0.1-0.4,0.2-0.7c0.1-0.3,0.2-0.6,0.3-0.8
				c0.1-0.2,0.2-0.3,0.3-0.3c0.1,0,0.2,0.1,0.3,0.1c0.1,0.1,0.1,0.2,0.1,0.3c0,0.1-0.1,0.2-0.1,0.4c-0.1,0.2-0.2,0.4-0.3,0.6
				C67,12.3,67,12.5,67,12.6c0,0,0,0,0,0c0,0,0.1-0.1,0.3-0.2s0.3-0.4,0.5-0.7C68,11.5,68.2,11.2,68.3,10.9z"/>
			<path class="st0" d="M70.2,11.8c-0.1,0.2-0.1,0.4-0.2,0.6s-0.1,0.4-0.1,0.4s0,0,0.1,0c0.1,0,0.2,0,0.4-0.1
				c0.2-0.1,0.3-0.1,0.4-0.1c0.1,0,0.1,0.1,0.1,0.2c0,0.1-0.1,0.2-0.4,0.4c-0.2,0.1-0.5,0.2-0.7,0.2c-0.1,0-0.2-0.1-0.4-0.2
				c-0.1-0.1-0.2-0.2-0.2-0.4c0-0.1,0.1-0.3,0.2-0.6c0.1-0.3,0.2-0.5,0.2-0.7c-0.1,0-0.2,0-0.3,0c-0.1,0-0.1-0.1-0.2-0.2
				c-0.1-0.1-0.1-0.2-0.1-0.3c0-0.1,0.3-0.2,0.8-0.2c0.1-0.3,0.1-0.6,0.1-0.8c0-0.1,0.1-0.1,0.2-0.1c0.1,0,0.2,0.1,0.3,0.2
				c0.1,0.1,0.2,0.2,0.2,0.3c0,0.1,0,0.2-0.1,0.4c0.2,0,0.3,0,0.4,0c0.3,0,0.4,0.1,0.4,0.2c0,0.1-0.1,0.1-0.2,0.2
				c-0.1,0-0.4,0.1-0.7,0.1C70.3,11.5,70.2,11.7,70.2,11.8z"/>
			<path class="st0" d="M71.9,10.9c0.1,0,0.2,0.1,0.3,0.2c0.1,0.1,0.1,0.3,0.1,0.4c0,0.1-0.1,0.3-0.2,0.7c-0.1,0.4-0.3,0.8-0.4,1.1
				c0,0.1-0.1,0.2-0.3,0.2c-0.1,0-0.1,0-0.2-0.1c-0.1-0.1-0.1-0.1-0.1-0.2c0-0.1,0.1-0.3,0.2-0.7c0.1-0.4,0.2-0.7,0.2-0.9
				c0.1-0.2,0.1-0.4,0.2-0.5C71.8,11,71.8,10.9,71.9,10.9z M71.8,10.3c0-0.1,0-0.2,0.1-0.3c0.1-0.1,0.2-0.1,0.2-0.1
				c0.1,0,0.2,0.1,0.3,0.3c0.1,0.2,0.1,0.3,0.1,0.4s0,0.1-0.1,0.2c-0.1,0-0.1,0.1-0.2,0.1c-0.1,0-0.2-0.1-0.3-0.2
				C71.9,10.5,71.8,10.4,71.8,10.3z"/>
			<path class="st0" d="M76,11.1c0.1,0,0.2,0.1,0.3,0.3s0.1,0.3,0.1,0.5c0,0.1,0,0.4-0.1,0.6c-0.1,0.3-0.2,0.6-0.3,0.8
				c-0.1,0.3-0.3,0.4-0.4,0.4c-0.1,0-0.2-0.1-0.2-0.2c0-0.2,0.1-0.4,0.2-0.7c0.1-0.3,0.2-0.6,0.2-0.7c0-0.1,0-0.2,0-0.2
				c-0.1,0-0.2,0.1-0.3,0.2c-0.1,0.1-0.2,0.4-0.4,0.6c-0.1,0.3-0.2,0.4-0.3,0.5c0,0.1-0.1,0.1-0.1,0.2c0,0-0.1,0.1-0.1,0.1
				c-0.1,0.2-0.3,0.2-0.4,0c-0.1-0.1-0.1-0.2-0.1-0.3c0,0,0-0.1,0.1-0.4c0.1-0.2,0.1-0.5,0.1-0.8c0-0.1,0-0.2,0-0.2
				c0,0-0.1,0-0.1,0.1c-0.1,0.1-0.1,0.2-0.3,0.4c-0.1,0.2-0.2,0.4-0.3,0.5c-0.3,0.5-0.5,0.7-0.7,0.7c-0.1,0-0.2-0.1-0.3-0.2
				c-0.1-0.1-0.2-0.2-0.2-0.3c0-0.1,0-0.2,0.1-0.5c0.1-0.2,0.2-0.5,0.2-0.8c0-0.3,0.1-0.5,0.1-0.7c0-0.2,0.1-0.2,0.1-0.2
				c0.1,0,0.2,0.1,0.4,0.2c0.1,0.1,0.2,0.2,0.2,0.3c0,0.2-0.1,0.5-0.3,1c0.3-0.6,0.5-0.9,0.7-1.1c0.2-0.2,0.4-0.3,0.5-0.3
				c0.1,0,0.2,0.1,0.3,0.3c0.1,0.2,0.2,0.3,0.2,0.5c0,0.1,0,0.3,0,0.4c0.1-0.3,0.3-0.5,0.5-0.7C75.6,11.2,75.8,11.1,76,11.1z"/>
			<path class="st0" d="M78.6,12.7c-0.2,0.1-0.5,0.2-0.7,0.2s-0.4,0-0.6-0.1c0,0.1-0.1,0.2-0.1,0.3c0,0.1,0,0.2,0,0.2
				s0.1,0.1,0.2,0.1c0.3,0,0.5,0,0.7,0c0.2,0,0.3-0.1,0.3-0.1c0.1,0,0.2,0.1,0.2,0.1c0,0.1-0.1,0.3-0.3,0.4
				c-0.2,0.1-0.5,0.2-0.8,0.1c-0.3,0-0.5-0.1-0.7-0.3c-0.2-0.2-0.2-0.4-0.2-0.6c0-0.2,0.1-0.5,0.3-0.8c0.2-0.3,0.3-0.5,0.6-0.6
				c0.2-0.2,0.4-0.2,0.7-0.2s0.4,0.1,0.6,0.3S79,12,79,12.2C79,12.4,78.9,12.5,78.6,12.7z M78.3,12c-0.1-0.1-0.1-0.1-0.2-0.1
				c-0.1,0-0.1,0-0.2,0.1s-0.2,0.2-0.3,0.3c0,0,0.1,0,0.1,0c0.5,0,0.7,0,0.7-0.2C78.4,12.1,78.4,12,78.3,12z"/>
			<path class="st0" d="M81.4,11c0,0.4-0.1,0.8-0.3,1.2c-0.2,0.4-0.3,0.7-0.5,1c-0.2,0.3-0.4,0.5-0.7,0.7c-0.2,0.2-0.4,0.4-0.6,0.5
				c-0.2,0.1-0.3,0.1-0.4,0.1c-0.1,0-0.2-0.1-0.2-0.1c0-0.1,0.2-0.3,0.5-0.5c0.3-0.3,0.6-0.6,0.9-1c0.1-0.2,0.3-0.4,0.4-0.7
				c0.1-0.3,0.2-0.5,0.2-0.8c0-0.2,0-0.4-0.1-0.6c0-0.1-0.1-0.2-0.2-0.3c-0.1-0.1-0.1-0.1-0.2-0.2c-0.1-0.1-0.1-0.1-0.2-0.2
				C80,10,80,9.9,80,9.8c0-0.1,0-0.2,0.1-0.2s0.2-0.1,0.3-0.1c0.3,0,0.5,0.2,0.7,0.5C81.4,10.3,81.5,10.6,81.4,11z"/>
		</g>
	</g>
</g>
</svg>
