<svg xmlns="http://www.w3.org/2000/svg" viewBox="0 0 61.14 39.14"><defs><style>.cls-1,.cls-2{fill:#fff;}.cls-2{font-size:5.07px;font-family:Kalam-Bold, Kalam;font-weight:700;}</style></defs><g id="Layer_2" data-name="Layer 2"><g id="infoThemes"><g id="infoArrow"><path class="cls-1" d="M4.31,38.22a14.88,14.88,0,0,0-3.25-2l.2.75a41.11,41.11,0,0,1,2.38-3.48.55.55,0,0,0-.2-.74.55.55,0,0,0-.74.2A39.41,39.41,0,0,0,.32,36.42a.55.55,0,0,0,.19.74,13.74,13.74,0,0,1,3,1.83.57.57,0,0,0,.77,0,.55.55,0,0,0,0-.77Z" transform="translate(-0.25)"/><path class="cls-1" d="M1.33,37A59.75,59.75,0,0,0,26,24.47,58,58,0,0,0,31.65,19c.47-.52-.3-1.29-.76-.77A58.54,58.54,0,0,1,8.41,33.65,57.07,57.07,0,0,1,1,35.92c-.68.16-.39,1.21.29,1Z" transform="translate(-0.25)"/></g><text id="Choose_from_different_themes" data-name="Choose from  different themes" class="cls-2" transform="translate(20.92 4.24) rotate(18.25)">Choose from<tspan x="0" y="6.09" xml:space="preserve"> different themes</tspan></text></g></g></svg>