<?xml version="1.0" encoding="utf-8"?>
<!-- Generator: Adobe Illustrator 24.1.3, SVG Export Plug-In . SVG Version: 6.00 Build 0)  -->
<svg version="1.1" id="Layer_1" xmlns="http://www.w3.org/2000/svg" xmlns:xlink="http://www.w3.org/1999/xlink" x="0px" y="0px"
	 viewBox="0 0 50.2 46.4" style="enable-background:new 0 0 50.2 46.4;" xml:space="preserve">
<style type="text/css">
	.st0{fill:#FFFFFF;}
	.st1{enable-background:new    ;}
</style>
<g id="Layer_2_1_">
	<g id="infoPlayers">
		<g id="infoArrow">
			<path class="st0" d="M49.9,43.4c-9.2-1.6-18.5-4.8-24.4-12.4c-1.1-1.5-2.1-3-3-4.6c-0.3-0.6-1.3-0.1-0.9,0.5
				c1.6,3.1,3.8,5.8,6.3,8.2c3.4,3,7.3,5.3,11.6,6.7c3.3,1.2,6.7,2,10.2,2.6C50.2,44.6,50.5,43.5,49.9,43.4L49.9,43.4z"/>
			<path class="st0" d="M47.5,46.3c0.8-0.7,1.6-1.3,2.5-1.8c0.3-0.2,0.3-0.5,0.2-0.8l-1.6-3c-0.3-0.6-1.3-0.1-0.9,0.5l1.6,3l0.2-0.7
				c-1,0.6-1.9,1.2-2.7,1.9c-0.2,0.2-0.2,0.6,0,0.8c0,0,0,0,0,0C46.9,46.4,47.3,46.4,47.5,46.3L47.5,46.3z"/>
		</g>
		<g class="st1">
			<path class="st0" d="M4.1,11.2c0.1,0,0.2,0,0.4,0.1c0.2,0.1,0.3,0.2,0.3,0.3c0,0.1,0,0.2,0,0.2c0,0-0.1,0-0.1,0
				c-0.1,0-0.1,0-0.2,0.1c-0.2,0.1-0.3,0.3-0.4,0.5c-0.1,0.3-0.2,0.6-0.2,1c0,0.3,0,0.6,0.1,0.8c0,0.1,0.1,0.2,0.1,0.2
				c0.1,0,0.1,0,0.2,0c0.2-0.1,0.4-0.2,0.6-0.4c0.2-0.2,0.3-0.3,0.4-0.4c0.1-0.1,0.2-0.2,0.2-0.2s0,0,0.1,0s0.1,0.1,0.1,0.1
				c0,0.1,0,0.3-0.1,0.5c-0.1,0.2-0.2,0.4-0.4,0.6S4.9,15,4.7,15.1c-0.2,0.1-0.4,0.1-0.8-0.1c-0.3-0.1-0.5-0.3-0.6-0.5
				c-0.1-0.3-0.2-0.7-0.2-1.1c0-0.5,0.1-0.9,0.3-1.3C3.6,11.6,3.8,11.4,4.1,11.2z"/>
			<path class="st0" d="M5.5,10.5c-0.1-0.1,0-0.2,0.1-0.3c0.1,0,0.2,0,0.4,0.1c0.2,0.1,0.3,0.2,0.3,0.3c0,0.1,0.1,0.2,0.1,0.4
				c0,0.2,0.1,0.4,0.1,0.5c0,0.2,0.1,0.4,0.1,0.7c0,0.3,0.1,0.5,0.1,0.6c0-0.5,0.1-0.9,0.2-1.3C7,11.3,7.2,11,7.3,11
				c0.1,0,0.2,0,0.4,0.1c0.2,0.1,0.3,0.2,0.4,0.4c0.1,0.1,0.1,0.3,0.2,0.6c0.1,0.3,0.1,0.6,0.1,0.9c0,0.3-0.1,0.5-0.2,0.5
				c-0.1,0-0.2,0-0.3-0.1c0-0.1-0.1-0.3-0.1-0.6c-0.1-0.4-0.1-0.6-0.2-0.7c0-0.1-0.1-0.1-0.1-0.1c-0.2,0.1-0.3,0.5-0.4,1.3
				c0,0.3-0.1,0.5-0.1,0.6C7.1,13.9,7,14,6.9,14c-0.1,0-0.2,0-0.3-0.1c-0.2-0.1-0.2-0.1-0.3-0.2c0-0.1-0.1-0.2-0.1-0.3
				c0-0.1-0.1-0.3-0.1-0.6c-0.1-0.3-0.2-0.7-0.3-1.4C5.7,10.9,5.6,10.5,5.5,10.5z"/>
			<path class="st0" d="M10.5,10.8c0.1,0,0.1,0.1,0.1,0.1c0,0,0,0.1,0.1,0.3c0,0.1,0,0.3,0.1,0.3c0,0.1,0,0.1,0,0.2c0,0,0,0.1,0,0.1
				c0,0,0,0.1,0,0.1c0,0,0,0.1,0,0.1c0,0,0,0,0,0.1c0,0,0,0.1,0,0.1c0,0,0,0,0,0.1c0,0,0,0.1-0.1,0.1c0,0-0.1,0-0.2-0.1
				c-0.1-0.1-0.2-0.1-0.3-0.2c-0.2,0.4-0.3,0.7-0.5,0.8c-0.1,0.1-0.3,0.1-0.5,0c-0.2-0.1-0.4-0.2-0.4-0.3S8.7,12,8.8,11.6
				c0-0.3,0.1-0.7,0.2-1c0.1-0.3,0.3-0.6,0.5-0.7c0.1-0.1,0.3-0.1,0.6,0c0.2,0.1,0.4,0.2,0.4,0.3C10.5,10.4,10.5,10.6,10.5,10.8z
				 M9.5,12.1c0.1-0.1,0.2-0.2,0.4-0.5c0.1-0.3,0.2-0.5,0.1-0.8c0,0,0-0.1,0-0.1c-0.1-0.2-0.2-0.2-0.2-0.2c-0.1,0.1-0.2,0.2-0.3,0.4
				c-0.1,0.2-0.1,0.5-0.1,0.7C9.4,11.9,9.4,12,9.5,12.1C9.4,12.1,9.4,12.1,9.5,12.1C9.5,12.2,9.5,12.1,9.5,12.1z"/>
			<path class="st0" d="M12.1,8.7c0.2-0.1,0.3-0.1,0.5,0C12.8,8.9,13,9,13,9.1c0.1,0.3,0.2,0.6,0.3,0.9s0.1,0.6,0,0.8
				c0,0.2-0.1,0.3-0.2,0.4s-0.2,0-0.3-0.1c-0.1-0.1-0.1-0.4-0.2-0.7c-0.1-0.3-0.1-0.5-0.2-0.6s-0.1-0.2-0.1-0.2c0,0-0.1,0.1-0.1,0.1
				c0,0.1,0,0.1,0,0.1c0,0,0,0.1,0,0.2c0,0.1,0,0.1,0,0.2c0,0,0,0.1,0,0.2c0,0.1,0,0.1,0,0.2c0,0,0,0.1,0,0.2c0,0.7-0.1,1-0.3,1.1
				c-0.1,0-0.2,0-0.3-0.1c-0.2-0.1-0.2-0.1-0.3-0.2c0,0,0-0.1,0-0.2s0-0.2,0-0.3c0-0.1,0-0.1,0-0.2s0-0.2-0.1-0.2
				c0-0.1,0-0.1-0.1-0.2c0,0,0-0.1-0.1-0.2c-0.2-0.4-0.2-0.6-0.2-0.7s0-0.1,0-0.1c0.1-0.1,0.3-0.1,0.4,0c0.2,0,0.2,0.1,0.3,0.2
				c0.1,0.2,0.2,0.5,0.2,0.9c0-0.4,0.1-0.8,0.1-1.1C11.9,9,12,8.8,12.1,8.7z"/>
			<path class="st0" d="M15.3,8.5c0.1,0,0.1,0.1,0.2,0.2c0,0.1,0,0.2,0,0.3c0,0.2,0,0.5,0.1,0.8c0.1,0.3,0.1,0.5,0.1,0.7
				c0,0.2,0,0.4,0,0.5c0,0.1-0.1,0.3-0.1,0.4c-0.1,0.1-0.2,0.2-0.3,0.3c-0.2,0.1-0.4,0.1-0.6,0.1c-0.2-0.1-0.4-0.1-0.4-0.2
				s-0.1-0.2,0-0.3c0-0.1,0-0.2,0.1-0.2s0.1,0,0.2,0c0.1,0,0.1,0.1,0.2,0.1c0.1,0,0.1,0.1,0.2,0.1c0.1,0,0.2,0,0.2,0
				c0.1,0,0.1-0.1,0.1-0.2c0-0.1,0-0.2,0-0.4c0-0.3-0.1-0.5-0.1-0.6c-0.1,0.2-0.3,0.4-0.4,0.4c-0.1,0.1-0.3,0-0.5,0
				c-0.2-0.1-0.3-0.2-0.4-0.3c-0.1-0.1-0.1-0.3-0.1-0.5c0-0.2,0-0.5,0-0.7c0-0.2,0.1-0.5,0.2-0.7c0.1-0.2,0.2-0.4,0.4-0.4
				c0.1-0.1,0.2-0.1,0.3,0c0.1,0,0.2,0.1,0.3,0.1C15,8,15.1,8.2,15.2,8.4C15.2,8.4,15.2,8.5,15.3,8.5z M14.3,9.8
				C14.3,9.9,14.4,9.9,14.3,9.8c0.2,0,0.3-0.2,0.4-0.4c0.1-0.3,0.2-0.5,0.2-0.7l0-0.1c-0.1-0.2-0.2-0.3-0.2-0.3c0,0-0.1,0-0.1,0
				c-0.1,0.1-0.2,0.3-0.3,0.7C14.2,9.4,14.3,9.7,14.3,9.8z"/>
			<path class="st0" d="M17.5,7.8C17.4,8,17.2,8.2,17,8.3c-0.2,0.1-0.4,0.2-0.6,0.2c0,0.1,0,0.2,0.1,0.3s0.1,0.1,0.1,0.2
				c0,0,0.1,0,0.2,0c0.2-0.1,0.4-0.2,0.6-0.3c0.1-0.1,0.2-0.2,0.2-0.2c0.1-0.1,0.2,0,0.2,0c0.1,0.1,0,0.3-0.1,0.5
				c-0.1,0.2-0.4,0.4-0.6,0.5s-0.5,0.1-0.7,0c-0.2-0.1-0.4-0.2-0.5-0.5c-0.1-0.2-0.1-0.5-0.1-0.8c0-0.3,0.1-0.6,0.2-0.8
				s0.3-0.4,0.5-0.5c0.2-0.1,0.4-0.1,0.7,0s0.4,0.3,0.5,0.5C17.7,7.4,17.7,7.6,17.5,7.8z M16.9,7.3c-0.1,0-0.2,0-0.2,0
				s-0.1,0.1-0.2,0.2c-0.1,0.1-0.1,0.3-0.1,0.4c0,0,0.1,0,0.1-0.1c0.4-0.2,0.6-0.4,0.5-0.5C17.1,7.4,17,7.4,16.9,7.3z"/>
			<path class="st0" d="M20.7,5.9c0,0.2,0,0.4,0.1,0.6c0,0.3,0.1,0.4,0.1,0.4c0,0,0,0,0.1,0s0.2-0.1,0.3-0.3
				c0.2-0.2,0.3-0.2,0.3-0.3c0.1,0,0.1,0,0.2,0.1c0,0.1,0,0.3-0.1,0.5c-0.1,0.2-0.3,0.4-0.5,0.5c-0.1,0-0.2,0-0.4,0
				c-0.2,0-0.3-0.1-0.4-0.2c0-0.1-0.1-0.3-0.1-0.6s-0.1-0.6-0.1-0.7C20,6,19.9,6.1,19.8,6.1s-0.1,0-0.3,0c-0.1-0.1-0.2-0.1-0.2-0.2
				c0-0.1,0.2-0.3,0.6-0.6c-0.1-0.3-0.2-0.6-0.3-0.8c0-0.1,0-0.2,0.1-0.2c0.1,0,0.2,0,0.4,0c0.2,0,0.3,0.1,0.3,0.2
				c0,0.1,0.1,0.2,0.1,0.4c0.1-0.1,0.3-0.1,0.3-0.2c0.2-0.1,0.4-0.1,0.4,0c0,0.1,0,0.2-0.1,0.3c-0.1,0.1-0.3,0.3-0.5,0.4
				C20.7,5.6,20.7,5.7,20.7,5.9z"/>
			<path class="st0" d="M21.4,3.1c-0.1-0.1,0-0.2,0.1-0.3c0.1,0,0.2,0,0.4,0.1C22,3,22.1,3.1,22.1,3.2c0,0.1,0.1,0.2,0.1,0.4
				c0,0.2,0.1,0.4,0.1,0.5c0,0.2,0.1,0.4,0.1,0.7c0,0.3,0.1,0.5,0.1,0.6c0-0.5,0.1-0.9,0.2-1.3s0.2-0.6,0.4-0.6c0.1,0,0.2,0,0.4,0.1
				C23.8,3.9,23.9,4,24,4.1c0.1,0.1,0.1,0.3,0.2,0.6c0.1,0.3,0.1,0.6,0.1,0.9c0,0.3-0.1,0.5-0.2,0.5c-0.1,0-0.2,0-0.3-0.1
				c0-0.1-0.1-0.3-0.1-0.6c-0.1-0.4-0.1-0.6-0.2-0.7c0-0.1-0.1-0.1-0.1-0.1c-0.2,0.1-0.3,0.5-0.4,1.3c0,0.3-0.1,0.5-0.1,0.6
				s-0.1,0.2-0.2,0.3c-0.1,0-0.2,0-0.3-0.1c-0.2-0.1-0.2-0.1-0.3-0.2c0-0.1-0.1-0.2-0.1-0.3C22,6,22,5.8,22,5.6
				c-0.1-0.3-0.2-0.7-0.3-1.4C21.5,3.6,21.4,3.2,21.4,3.1z"/>
			<path class="st0" d="M26.3,3.8c-0.1,0.2-0.3,0.4-0.5,0.5c-0.2,0.1-0.4,0.2-0.6,0.2c0,0.1,0,0.2,0.1,0.3c0,0.1,0.1,0.1,0.1,0.2
				c0,0,0.1,0,0.2,0c0.2-0.1,0.4-0.2,0.6-0.3c0.1-0.1,0.2-0.2,0.2-0.2c0.1-0.1,0.2,0,0.2,0c0.1,0.1,0,0.3-0.1,0.5s-0.4,0.4-0.6,0.5
				c-0.3,0.1-0.5,0.1-0.7,0c-0.2-0.1-0.4-0.2-0.5-0.5c-0.1-0.2-0.1-0.5-0.1-0.8c0-0.3,0.1-0.6,0.2-0.8C24.8,3,25,2.8,25.2,2.7
				c0.2-0.1,0.4-0.1,0.7,0s0.4,0.3,0.5,0.5C26.4,3.4,26.4,3.6,26.3,3.8z M25.6,3.3c-0.1,0-0.2,0-0.2,0s-0.1,0.1-0.2,0.2
				c-0.1,0.1-0.1,0.3-0.1,0.4c0,0,0.1,0,0.1-0.1c0.4-0.2,0.6-0.4,0.5-0.5C25.8,3.4,25.7,3.3,25.6,3.3z"/>
		</g>
		<g class="st1">
			<path class="st0" d="M5.9,19.7c0.1,0,0.1,0.1,0.1,0.1s0,0.1,0.1,0.3c0,0.1,0,0.3,0.1,0.3c0,0.1,0,0.1,0,0.2c0,0,0,0.1,0,0.1
				c0,0,0,0.1,0,0.1c0,0,0,0.1,0,0.1c0,0,0,0,0,0.1c0,0,0,0.1,0,0.1c0,0,0,0,0,0.1c0,0,0,0.1-0.1,0.1c0,0-0.1,0-0.2-0.1
				c-0.1-0.1-0.2-0.1-0.3-0.2c-0.2,0.4-0.3,0.7-0.5,0.8c-0.1,0.1-0.3,0.1-0.5,0c-0.2-0.1-0.4-0.2-0.4-0.3s-0.1-0.4-0.1-0.7
				c0-0.3,0.1-0.7,0.2-1c0.1-0.3,0.3-0.6,0.5-0.7c0.1-0.1,0.3-0.1,0.6,0c0.2,0.1,0.4,0.2,0.4,0.3C5.9,19.3,5.9,19.5,5.9,19.7z
				 M4.9,21C5,21,5.1,20.8,5.2,20.5c0.1-0.3,0.2-0.5,0.1-0.8c0,0,0-0.1,0-0.1c-0.1-0.2-0.2-0.2-0.2-0.2c-0.1,0.1-0.2,0.2-0.3,0.4
				c-0.1,0.2-0.1,0.5-0.1,0.7C4.7,20.7,4.7,20.9,4.9,21C4.8,21,4.8,21,4.9,21C4.8,21,4.8,21,4.9,21z"/>
			<path class="st0" d="M8.9,17c0.1-0.1,0.3,0,0.4,0.1c0.2,0.1,0.3,0.2,0.3,0.4c0.1,0.1,0.1,0.3,0.2,0.6c0.1,0.3,0.1,0.6,0.1,0.9
				c0,0.3-0.1,0.5-0.2,0.5c-0.1,0-0.2,0-0.2-0.1c-0.1-0.1-0.1-0.4-0.2-0.7c-0.1-0.4-0.1-0.6-0.2-0.7c0-0.1-0.1-0.1-0.1-0.1
				c-0.1,0-0.1,0.1-0.1,0.3c0,0.2,0,0.4-0.1,0.7c0,0.3,0,0.5,0,0.6c0,0.1,0,0.1,0,0.2c0,0,0,0.1,0,0.2c0,0.2-0.2,0.3-0.4,0.2
				c-0.1,0-0.2-0.1-0.2-0.2c0,0,0-0.1-0.1-0.4c-0.1-0.2-0.1-0.5-0.3-0.8c-0.1-0.1-0.1-0.2-0.1-0.2c0,0-0.1,0.1-0.1,0.2
				c0,0.1,0,0.3,0,0.5c0,0.2,0,0.4,0,0.6c-0.1,0.6-0.2,0.9-0.3,0.9c-0.1,0-0.2,0-0.3-0.1c-0.2-0.1-0.2-0.1-0.3-0.2
				c0-0.1-0.1-0.2-0.1-0.5c0-0.3-0.1-0.5-0.2-0.8c-0.1-0.3-0.2-0.5-0.2-0.6c-0.1-0.2,0-0.2,0-0.3c0.1-0.1,0.3-0.1,0.4,0
				s0.2,0.1,0.3,0.2c0.1,0.2,0.2,0.5,0.2,1c0-0.6,0-1,0.1-1.3c0.1-0.3,0.2-0.4,0.3-0.5c0.1,0,0.2,0,0.4,0.1c0.2,0.1,0.3,0.2,0.4,0.3
				c0.1,0.1,0.1,0.2,0.1,0.3c0-0.3,0-0.6,0.1-0.9C8.6,17.2,8.7,17.1,8.9,17z"/>
			<path class="st0" d="M10.1,17c0.1-0.5,0.2-0.7,0.5-0.8c0.2-0.1,0.5-0.1,0.7,0c0.2,0.1,0.4,0.3,0.5,0.5c0.1,0.2,0.2,0.5,0.2,0.8
				c0,0.3-0.1,0.6-0.2,0.8s-0.3,0.4-0.5,0.5c-0.2,0.1-0.3,0.1-0.5,0c-0.2-0.1-0.3-0.2-0.4-0.5C10.1,17.9,10,17.5,10.1,17z
				 M11.3,17.6c0-0.3,0-0.5-0.1-0.7c-0.1-0.2-0.2-0.3-0.3-0.4c-0.1,0.1-0.2,0.4-0.2,0.7c0,0.3,0,0.6,0.1,0.7s0.2,0.3,0.2,0.3
				C11.2,18.1,11.3,17.9,11.3,17.6z"/>
			<path class="st0" d="M13.3,15.1c0-0.1,0-0.1,0.1-0.2s0.2,0,0.3,0.1c0.2,0.1,0.3,0.2,0.3,0.3c0,0,0,0.3,0.1,0.8
				c0.1,0.5,0.1,0.9,0.1,1.1c0,0.1,0,0.2-0.1,0.3c-0.1,0-0.1,0-0.2,0c-0.1,0-0.1-0.1-0.2-0.2c0-0.1-0.1-0.2-0.1-0.4
				c-0.1,0.6-0.3,0.9-0.4,1c-0.1,0-0.2,0-0.4,0c-0.2-0.1-0.3-0.2-0.4-0.3c-0.1-0.3-0.2-0.7-0.3-1.2c0-0.5,0-0.8,0.2-0.9
				c0.1,0,0.2,0,0.3,0c0.1,0,0.2,0.1,0.2,0.2c0,0,0,0.2,0,0.4c0,0.6,0,1,0.1,1.2c0,0,0,0,0,0c0,0,0.1-0.1,0.2-0.3
				c0.1-0.2,0.1-0.5,0.1-0.8C13.4,15.7,13.4,15.4,13.3,15.1z"/>
			<path class="st0" d="M15.6,13.9c0.2-0.1,0.3-0.1,0.5,0c0.2,0.1,0.3,0.2,0.4,0.4c0.1,0.3,0.2,0.6,0.3,0.9c0,0.3,0.1,0.6,0,0.8
				c0,0.2-0.1,0.3-0.2,0.4c-0.1,0-0.2,0-0.3-0.1c-0.1-0.1-0.1-0.4-0.2-0.7c-0.1-0.3-0.1-0.5-0.2-0.6c-0.1-0.1-0.1-0.2-0.1-0.2
				c0,0-0.1,0.1-0.1,0.1c0,0.1,0,0.1,0,0.2c0,0,0,0.1,0,0.2c0,0.1,0,0.1,0,0.2c0,0,0,0.1,0,0.2c0,0.1,0,0.1,0,0.2c0,0,0,0.1,0,0.2
				c0,0.7-0.1,1-0.3,1.1c-0.1,0-0.2,0-0.3-0.1c-0.2-0.1-0.2-0.1-0.3-0.2c0,0,0-0.1,0-0.3c0-0.1,0-0.2,0-0.3c0-0.1,0-0.1,0-0.2
				s0-0.2-0.1-0.2c0-0.1,0-0.1-0.1-0.2c0,0,0-0.1-0.1-0.2c-0.2-0.4-0.2-0.6-0.2-0.7c0-0.1,0-0.1,0-0.1c0.1-0.1,0.3-0.1,0.4,0
				c0.2,0,0.2,0.1,0.3,0.2c0.1,0.2,0.2,0.5,0.2,0.9c0-0.4,0.1-0.8,0.1-1.1C15.4,14.1,15.5,13.9,15.6,13.9z"/>
			<path class="st0" d="M17.9,13.9c0,0.2,0,0.4,0.1,0.6c0,0.3,0.1,0.4,0.1,0.4c0,0,0,0,0.1,0s0.2-0.1,0.3-0.3
				c0.2-0.2,0.3-0.2,0.3-0.3c0.1,0,0.1,0,0.2,0.1c0,0.1,0,0.3-0.1,0.5c-0.1,0.2-0.3,0.4-0.5,0.5c-0.1,0-0.2,0-0.4,0
				c-0.2,0-0.3-0.1-0.4-0.2c0-0.1-0.1-0.3-0.1-0.6s-0.1-0.6-0.1-0.7c-0.1,0.1-0.2,0.1-0.2,0.2s-0.1,0-0.3,0
				c-0.1-0.1-0.2-0.1-0.2-0.2c0-0.1,0.2-0.3,0.6-0.6c-0.1-0.3-0.2-0.6-0.3-0.8c0-0.1,0-0.2,0.1-0.2c0.1,0,0.2,0,0.4,0
				c0.2,0,0.3,0.1,0.3,0.2s0.1,0.2,0.1,0.4c0.1-0.1,0.3-0.1,0.3-0.2c0.2-0.1,0.4-0.1,0.4,0c0,0.1,0,0.2-0.1,0.3
				c-0.1,0.1-0.3,0.3-0.5,0.4C17.9,13.6,17.9,13.7,17.9,13.9z"/>
			<path class="st0" d="M20.9,12.1c0.1-0.5,0.2-0.7,0.5-0.8c0.2-0.1,0.5-0.1,0.7,0c0.2,0.1,0.4,0.3,0.5,0.5c0.1,0.2,0.2,0.5,0.2,0.8
				c0,0.3-0.1,0.6-0.2,0.8c-0.1,0.3-0.3,0.4-0.5,0.5c-0.2,0.1-0.4,0.1-0.5,0c-0.2-0.1-0.3-0.2-0.4-0.5
				C20.8,12.9,20.8,12.5,20.9,12.1z M22.1,12.7c0-0.3,0-0.5-0.1-0.7c-0.1-0.2-0.2-0.3-0.3-0.4c-0.1,0.1-0.2,0.4-0.2,0.7
				c0,0.3,0,0.6,0.1,0.7s0.2,0.3,0.2,0.3C22,13.2,22,12.9,22.1,12.7z"/>
			<path class="st0" d="M24,9.5c0-0.1-0.1-0.1-0.2-0.2c-0.1,0-0.1-0.1-0.1,0c0,0-0.1,0.1-0.1,0.1c0,0.1,0,0.2,0,0.3
				c0,0.2,0.1,0.5,0.1,0.8c0.2-0.1,0.4-0.2,0.5-0.3c0.1-0.1,0.2-0.1,0.3-0.1c0.1,0,0.1,0,0.1,0.1c0,0.1,0,0.2-0.2,0.3
				c-0.1,0.1-0.4,0.3-0.7,0.5c0.1,0.7,0.2,1.2,0.2,1.4c0,0.2,0,0.3-0.1,0.3c-0.1,0-0.1,0-0.3-0.1c-0.1-0.1-0.2-0.1-0.2-0.2
				c0,0,0-0.1,0-0.2c0-0.3-0.1-0.6-0.1-0.9c-0.1,0.1-0.2,0.1-0.2,0.2c-0.1,0-0.2,0-0.3,0c-0.1,0-0.2-0.1-0.2-0.2
				c-0.1-0.1,0.1-0.3,0.5-0.6C23,10.3,23,9.8,23,9.5c0-0.3,0.2-0.6,0.5-0.7c0.1-0.1,0.3-0.1,0.5,0c0.2,0.1,0.3,0.2,0.4,0.4
				c0.1,0.1,0.1,0.2,0.1,0.3c0,0.1,0,0.2-0.1,0.2c-0.1,0-0.1,0-0.2,0C24.1,9.6,24.1,9.6,24,9.5z"/>
		</g>
		<g class="st1">
			<path class="st0" d="M11.2,22.6c0.1-0.1,0.3,0,0.5,0.1c0.2,0.1,0.4,0.3,0.5,0.5c0.1,0.1,0.1,0.3,0,0.5c0,0.2-0.1,0.4-0.2,0.7
				c-0.1,0.2-0.2,0.4-0.4,0.6c-0.2,0.2-0.3,0.3-0.5,0.4l-0.1,0c0.2,0.9,0.2,1.4,0.1,1.4c-0.1,0-0.2,0-0.3-0.1
				c-0.1-0.1-0.2-0.1-0.2-0.2c0-0.1-0.1-0.3-0.2-0.7c-0.2-1.2-0.5-2.1-0.7-2.6c0-0.1,0-0.2,0.1-0.2c0.1,0,0.2,0,0.3,0
				c0.2,0,0.3,0.1,0.4,0.2C10.8,23,11,22.7,11.2,22.6z M11.5,24.2c0.1-0.3,0.1-0.6,0.1-0.7c-0.1-0.2-0.2-0.2-0.2-0.2
				c-0.1,0.1-0.2,0.2-0.3,0.4c0,0.1-0.1,0.2-0.1,0.4c0,0.2,0,0.3,0,0.5l0.1,0.3C11.2,24.8,11.4,24.5,11.5,24.2z"/>
			<path class="st0" d="M12.4,20.7c0.2,0.1,0.3,0.2,0.4,0.3c0.1,0.1,0.1,0.4,0.2,0.7c0.1,0.3,0.2,0.6,0.2,0.8
				c0.3,1.2,0.3,1.9,0.2,1.9c-0.1,0-0.2,0-0.3,0c-0.2-0.1-0.2-0.1-0.3-0.2c0,0,0-0.2-0.1-0.5c-0.1-0.4-0.2-0.8-0.3-1.3
				c-0.1-0.5-0.3-1-0.5-1.5c0-0.1,0-0.2,0.1-0.2C12.1,20.6,12.3,20.6,12.4,20.7z"/>
			<path class="st0" d="M15.7,21.8c0.1,0,0.1,0.1,0.1,0.1c0,0,0,0.1,0.1,0.3c0,0.1,0,0.3,0.1,0.3c0,0.1,0,0.1,0,0.2c0,0,0,0.1,0,0.1
				c0,0,0,0.1,0,0.1c0,0,0,0.1,0,0.1c0,0,0,0,0,0.1c0,0,0,0.1,0,0.1c0,0,0,0,0,0.1c0,0,0,0.1-0.1,0.1s-0.1,0-0.2-0.1
				c-0.1-0.1-0.2-0.1-0.3-0.2c-0.2,0.4-0.3,0.7-0.5,0.8c-0.1,0.1-0.3,0.1-0.5,0c-0.2-0.1-0.4-0.2-0.4-0.3c-0.1-0.1-0.1-0.4-0.1-0.7
				c0-0.3,0.1-0.7,0.2-1c0.1-0.3,0.3-0.6,0.5-0.7c0.1-0.1,0.3-0.1,0.6,0s0.4,0.2,0.4,0.3C15.7,21.5,15.7,21.6,15.7,21.8z M14.7,23.2
				c0.1-0.1,0.2-0.2,0.4-0.5c0.1-0.3,0.2-0.5,0.1-0.8c0,0,0-0.1,0-0.1c-0.1-0.2-0.2-0.2-0.2-0.2c-0.1,0.1-0.2,0.2-0.3,0.4
				c-0.1,0.2-0.1,0.5-0.1,0.7C14.5,22.9,14.5,23.1,14.7,23.2C14.6,23.2,14.6,23.2,14.7,23.2C14.6,23.2,14.6,23.2,14.7,23.2z"/>
			<path class="st0" d="M17.4,19.9c0-0.1,0-0.1,0.1-0.2c0.1,0,0.2,0,0.3,0c0.1,0.1,0.2,0.2,0.3,0.3c0,0.1,0.1,0.2,0.1,0.4
				c0,0.2,0,0.3,0,0.4c0,0.1,0,0.2,0,0.3c0,0.1,0,0.3,0,0.4c0,0.1,0,0.3,0,0.5c0,0.2,0,0.4,0.1,0.6c0,0.3,0,0.6-0.1,0.8
				c-0.1,0.2-0.2,0.4-0.4,0.5S17.5,24,17.2,24c-0.2,0-0.4-0.1-0.4-0.2c0-0.1,0-0.2,0-0.3c0-0.1,0.1-0.2,0.1-0.2c0,0,0.1,0,0.2,0
				c0.1,0,0.2,0.1,0.3,0.1c0.1,0,0.2,0,0.3,0c0,0,0.1-0.1,0.1-0.1c0,0,0-0.1,0-0.1c0,0,0-0.1,0-0.1s0-0.1,0-0.2c0-0.1,0-0.1,0-0.2
				c0-0.1,0-0.2,0-0.2c0-0.2,0-0.4-0.1-0.5c0,0.2-0.1,0.3-0.2,0.5c-0.1,0.1-0.2,0.2-0.2,0.3s-0.2,0-0.4,0c-0.2-0.1-0.3-0.2-0.4-0.4
				c-0.1-0.2-0.1-0.4-0.2-0.7c-0.1-0.3-0.1-0.6-0.1-0.9s0.1-0.4,0.1-0.5c0.1,0,0.2,0,0.3,0c0.1,0,0.2,0.1,0.2,0.2
				c0,0.1,0.1,0.2,0.1,0.4c0,0.2,0,0.4,0,0.6c0,0.2,0.1,0.4,0.1,0.6c0,0,0,0,0,0c0,0,0.1-0.1,0.1-0.3c0.1-0.2,0.1-0.5,0.1-0.8
				C17.4,20.6,17.4,20.2,17.4,19.9z"/>
			<path class="st0" d="M20.3,19.9c-0.1,0.2-0.3,0.4-0.5,0.5c-0.2,0.1-0.4,0.2-0.6,0.2c0,0.1,0,0.2,0.1,0.3c0,0.1,0.1,0.1,0.1,0.2
				c0,0,0.1,0,0.2,0c0.2-0.1,0.4-0.2,0.6-0.3c0.1-0.1,0.2-0.2,0.2-0.2c0.1-0.1,0.2,0,0.2,0c0.1,0.1,0,0.3-0.1,0.5
				c-0.1,0.2-0.4,0.4-0.6,0.5c-0.3,0.1-0.5,0.1-0.7,0c-0.2-0.1-0.4-0.2-0.5-0.5c-0.1-0.2-0.1-0.5-0.1-0.8c0-0.3,0.1-0.6,0.2-0.8
				c0.1-0.3,0.3-0.4,0.5-0.5c0.2-0.1,0.4-0.1,0.7,0c0.3,0.1,0.4,0.3,0.5,0.5C20.5,19.5,20.5,19.7,20.3,19.9z M19.7,19.5
				c-0.1,0-0.2,0-0.2,0c-0.1,0-0.1,0.1-0.2,0.2c-0.1,0.1-0.1,0.3-0.1,0.4c0,0,0.1,0,0.1-0.1c0.4-0.2,0.6-0.4,0.5-0.5
				C19.9,19.5,19.8,19.5,19.7,19.5z"/>
			<path class="st0" d="M20.8,19.1l-0.3-0.5c-0.1-0.2-0.1-0.3,0-0.3c0.1,0,0.1,0,0.2,0c0.1,0,0.2,0.1,0.2,0.2
				c0.1-0.1,0.1-0.3,0.2-0.4c0.1-0.1,0.2-0.2,0.3-0.2c0.2-0.1,0.4-0.1,0.4,0c0,0.1,0,0.1,0,0.1c0,0,0,0.1,0,0.1c0,0,0,0,0,0.1
				c0,0,0,0.1,0,0.1c0,0.1-0.1,0.1-0.1,0.2c-0.1,0.1-0.2,0.3-0.2,0.5c0,0.2,0,0.4,0,0.6c0.1,0.4,0.1,0.7,0.1,0.9s0,0.3-0.1,0.4
				c-0.1,0-0.2,0-0.3,0c-0.1-0.1-0.2-0.1-0.2-0.2c0-0.1-0.1-0.2-0.1-0.4c0-0.2,0-0.4-0.1-0.5C21,19.4,20.9,19.3,20.8,19.1z"/>
			<path class="st0" d="M23.4,17c0.1-0.1,0.3,0,0.4,0c0.2,0.1,0.3,0.2,0.3,0.3c0,0.1,0,0.1,0,0.2c0,0-0.1,0-0.2,0
				c-0.1,0-0.2,0-0.2,0.1c-0.1,0-0.2,0.1-0.3,0.2c-0.1,0.1-0.2,0.2-0.1,0.3c0,0,0.1,0.1,0.2,0.1c0.1,0,0.2,0,0.4,0.1
				c0.1,0,0.3,0.1,0.4,0.1c0.1,0.1,0.2,0.2,0.3,0.3c0.1,0.1,0,0.3-0.1,0.5c-0.1,0.2-0.3,0.4-0.6,0.5c-0.3,0.1-0.5,0.2-0.7,0.1
				c-0.2,0-0.4-0.1-0.4-0.2s0-0.2,0.1-0.2c0,0,0.1,0,0.2,0c0.2,0,0.4,0,0.6-0.1s0.3-0.2,0.3-0.3c0-0.1-0.1-0.1-0.2-0.1
				c-0.1,0-0.3-0.1-0.4-0.1s-0.3-0.1-0.4-0.1s-0.2-0.1-0.3-0.2c-0.1-0.2,0-0.4,0.2-0.8C23,17.3,23.2,17.1,23.4,17z"/>
		</g>
	</g>
</g>
</svg>
