<?xml version="1.0" encoding="utf-8"?>
<!-- Generator: Adobe Illustrator 24.1.3, SVG Export Plug-In . SVG Version: 6.00 Build 0)  -->
<svg version="1.1" id="Layer_1" xmlns="http://www.w3.org/2000/svg" xmlns:xlink="http://www.w3.org/1999/xlink" x="0px" y="0px"
	 viewBox="0 0 41.3 17.5" style="enable-background:new 0 0 41.3 17.5;" xml:space="preserve">
<style type="text/css">
	.st0{fill:#FFFFFF;}
	.st1{enable-background:new    ;}
</style>
<g id="Layer_2_1_">
	<g id="infoReset">
		<g id="infoArrow">
			<path class="st0" d="M0.5,3.3C2,3.2,3.4,3,4.9,2.7L4.2,2.1C4.1,3.2,4,4.4,4,5.6C4.1,5.8,4.4,6,4.7,5.9C4.8,5.8,4.9,5.7,5,5.6
				c0-1.1,0.1-2.1,0.2-3.2c0.1-0.3-0.1-0.6-0.4-0.7c-0.1,0-0.2,0-0.3,0c-1.3,0.2-2.7,0.4-4,0.5C0.2,2.2,0,2.5,0,2.8
				C0,3,0.2,3.3,0.5,3.3z"/>
			<path class="st0" d="M4.3,1.8C2.5,3.3,0.8,5.5,1.3,8c0.5,1.9,1.9,3.5,3.8,4.2C6.2,12.7,7.4,13,8.6,13c0.7,0,0.7-1,0-1.1
				c-2.2,0-4.4-1.1-5.7-2.9C1.4,6.6,3.2,4.2,5.1,2.6C5.6,2.2,4.9,1.4,4.3,1.8z"/>
		</g>
		<g class="st1">
			<path class="st0" d="M12.2,10.1c0,0.1-0.1,0.2-0.2,0.3c-0.3,0.1-0.6,0-0.9-0.2c-0.3-0.2-0.6-0.4-0.8-0.7c0,0.2,0,0.3,0,0.3
				c0,0.1,0,0.2,0,0.3c0,0.1,0,0.2,0,0.3c0,0.1,0,0.1,0,0.2c0,0.1-0.1,0.2-0.1,0.2c-0.1,0-0.2,0-0.3-0.1c-0.1-0.1-0.2-0.2-0.2-0.3
				c0-0.1,0-0.2,0-0.5c0.1-0.7,0.1-1.3,0-1.9C9.5,8,9.4,7.9,9.3,7.8C9.2,7.7,9.2,7.7,9.2,7.6c0-0.1,0.1-0.2,0.3-0.4
				c0.2-0.2,0.5-0.3,0.9-0.4s0.6-0.1,0.9,0.1c0.3,0.1,0.4,0.3,0.5,0.5c0,0.2,0,0.4,0,0.6c-0.1,0.2-0.2,0.4-0.3,0.5
				c-0.1,0.1-0.2,0.2-0.3,0.3S11,9,11,9.1c0,0.1,0.1,0.1,0.1,0.2s0.2,0.1,0.3,0.2c0.1,0.1,0.2,0.1,0.3,0.2c0.1,0,0.2,0.1,0.2,0.1
				c0.1,0,0.1,0.1,0.2,0.1C12.1,10,12.2,10,12.2,10.1z M11,7.7c0-0.1-0.2-0.2-0.5-0.1c-0.1,0-0.3,0.1-0.4,0.2
				c0.1,0.1,0.2,0.2,0.2,0.3c0,0.2,0.1,0.4,0.1,0.7c0,0,0.1-0.1,0.2-0.2c0.1-0.1,0.2-0.2,0.2-0.2c0-0.1,0.1-0.1,0.2-0.2
				C11,8,11,7.8,11,7.7z"/>
			<path class="st0" d="M14.2,8.6c-0.2,0.2-0.4,0.3-0.6,0.3C13.3,9,13.1,9,13,9c0,0.1,0,0.2,0,0.3c0,0.1,0,0.2,0.1,0.2
				c0,0,0.1,0,0.2,0c0.2-0.1,0.5-0.1,0.6-0.2c0.2-0.1,0.3-0.1,0.3-0.1c0.1,0,0.2,0,0.2,0.1c0,0.1-0.1,0.3-0.2,0.4
				C14,9.8,13.7,9.9,13.5,10c-0.3,0.1-0.5,0-0.7-0.1c-0.2-0.1-0.3-0.3-0.4-0.6c-0.1-0.2,0-0.5,0-0.8c0.1-0.3,0.2-0.5,0.4-0.8
				c0.2-0.2,0.4-0.4,0.6-0.4s0.4,0,0.6,0.2c0.2,0.2,0.4,0.4,0.4,0.6C14.4,8.2,14.4,8.4,14.2,8.6z M13.7,8c-0.1,0-0.2-0.1-0.2-0.1
				S13.3,8,13.3,8.1c-0.1,0.1-0.1,0.2-0.2,0.4c0,0,0.1,0,0.1,0c0.5-0.1,0.7-0.2,0.6-0.4C13.8,8.1,13.8,8.1,13.7,8z"/>
			<path class="st0" d="M16,6.8c0.1,0,0.3,0,0.4,0.1c0.2,0.1,0.2,0.2,0.3,0.4c0,0.1,0,0.1-0.1,0.1c0,0-0.1,0-0.2,0
				c-0.1,0-0.2,0-0.2,0c-0.1,0-0.2,0.1-0.3,0.2c-0.1,0.1-0.2,0.2-0.2,0.3c0,0,0.1,0.1,0.2,0.1C15.9,8,16,8,16.2,8.1
				c0.1,0,0.2,0.1,0.4,0.2c0.1,0.1,0.2,0.2,0.2,0.4c0,0.1,0,0.3-0.2,0.5s-0.4,0.3-0.7,0.4c-0.3,0.1-0.5,0-0.7,0
				c-0.2-0.1-0.3-0.2-0.4-0.3c0-0.1,0-0.2,0.1-0.2c0,0,0.1,0,0.2,0c0.2,0.1,0.4,0.1,0.6,0c0.2-0.1,0.4-0.1,0.3-0.2
				c0-0.1-0.1-0.1-0.2-0.2c-0.1-0.1-0.2-0.1-0.4-0.2c-0.1,0-0.2-0.1-0.4-0.2C15,8.1,15,8,14.9,7.9c0-0.2,0.1-0.4,0.4-0.7
				C15.6,7,15.8,6.8,16,6.8z"/>
			<path class="st0" d="M18.9,7.6c-0.2,0.2-0.4,0.3-0.6,0.3C18,8,17.8,8,17.7,8c0,0.1,0,0.2,0,0.3c0,0.1,0,0.2,0.1,0.2
				c0,0,0.1,0,0.2,0c0.2-0.1,0.5-0.1,0.6-0.2c0.2-0.1,0.3-0.1,0.3-0.1c0.1,0,0.2,0,0.2,0.1c0,0.1-0.1,0.3-0.2,0.4
				c-0.2,0.2-0.4,0.3-0.7,0.3c-0.3,0.1-0.5,0-0.7-0.1c-0.2-0.1-0.3-0.3-0.4-0.6c-0.1-0.2,0-0.5,0-0.8c0.1-0.3,0.2-0.5,0.4-0.8
				c0.2-0.2,0.4-0.4,0.6-0.4c0.2,0,0.4,0,0.6,0.2c0.2,0.2,0.4,0.4,0.4,0.6C19.2,7.2,19.1,7.4,18.9,7.6z M18.4,7
				c-0.1,0-0.2-0.1-0.2-0.1c-0.1,0-0.1,0.1-0.2,0.2c-0.1,0.1-0.1,0.2-0.2,0.4c0,0,0.1,0,0.1,0c0.5-0.1,0.7-0.2,0.6-0.4
				C18.5,7.1,18.5,7,18.4,7z"/>
			<path class="st0" d="M20.5,6.8c0,0.2,0,0.4-0.1,0.6c0,0.3,0,0.4,0,0.4c0,0,0,0,0.1,0s0.2-0.1,0.4-0.2c0.2-0.1,0.3-0.2,0.3-0.2
				c0.1,0,0.1,0,0.2,0.1c0,0.1-0.1,0.3-0.2,0.5c-0.2,0.2-0.4,0.3-0.6,0.4c-0.1,0-0.2,0-0.4-0.1c-0.2-0.1-0.3-0.2-0.3-0.3
				c0-0.1,0-0.3,0-0.7c0-0.3,0.1-0.6,0.1-0.7c-0.1,0.1-0.2,0.1-0.3,0.1c-0.1,0-0.1,0-0.2-0.1c-0.1-0.1-0.1-0.2-0.2-0.2
				c0-0.1,0.2-0.2,0.7-0.4c0-0.3,0-0.6-0.1-0.8c0-0.1,0-0.2,0.1-0.2c0.1,0,0.2,0,0.4,0.1c0.2,0.1,0.2,0.2,0.3,0.3c0,0.1,0,0.2,0,0.4
				c0.2,0,0.3-0.1,0.4-0.1c0.2-0.1,0.4,0,0.4,0.1c0,0.1,0,0.2-0.2,0.2c-0.1,0.1-0.3,0.2-0.6,0.3C20.5,6.5,20.5,6.6,20.5,6.8z"/>
		</g>
		<g class="st1">
			<path class="st0" d="M19.7,11.6c-0.2,0.2-0.4,0.3-0.6,0.3c-0.2,0-0.4,0.1-0.6,0.1c0,0.1,0,0.2,0,0.3c0,0.1,0,0.1,0.1,0.2
				c0,0,0.1,0,0.2,0c0.2-0.1,0.5-0.1,0.6-0.2c0.2-0.1,0.3-0.1,0.3-0.1c0.1,0,0.2,0,0.2,0.1c0,0.1-0.1,0.3-0.2,0.4
				c-0.2,0.2-0.4,0.3-0.7,0.3s-0.5,0-0.7-0.1c-0.2-0.1-0.3-0.3-0.4-0.6c-0.1-0.2,0-0.5,0-0.8c0.1-0.3,0.2-0.5,0.4-0.8
				c0.2-0.2,0.4-0.4,0.6-0.4c0.2,0,0.4,0,0.6,0.2c0.2,0.2,0.4,0.4,0.4,0.6C20,11.2,19.9,11.4,19.7,11.6z M19.2,11
				c-0.1,0-0.2-0.1-0.2-0.1c-0.1,0-0.1,0.1-0.2,0.2c-0.1,0.1-0.1,0.2-0.2,0.4c0,0,0.1,0,0.1,0c0.5-0.1,0.7-0.2,0.6-0.4
				C19.3,11.1,19.3,11,19.2,11z"/>
			<path class="st0" d="M21.7,9.7c0.1,0,0.2,0,0.3,0c0.1,0,0.1,0.1,0.2,0.2c0,0.1,0,0.4-0.1,0.9c-0.1,0.5-0.2,0.9-0.3,1.2
				c-0.1,0.3-0.2,0.5-0.3,0.5c0,0-0.1,0-0.2-0.1c-0.1,0-0.2-0.1-0.2-0.2c-0.1-0.2-0.3-0.5-0.5-1c-0.2-0.5-0.3-0.8-0.4-0.9
				c0-0.1,0-0.2,0.1-0.2c0.1,0,0.2,0,0.4,0.1c0.2,0.1,0.4,0.3,0.5,0.5c0,0.1,0.1,0.3,0.1,0.4c0,0.2,0.1,0.3,0.1,0.4
				c0-0.2,0.1-0.4,0.1-0.7s0.1-0.6,0.1-0.8C21.5,9.8,21.6,9.7,21.7,9.7z"/>
			<path class="st0" d="M24.2,10.6c-0.2,0.2-0.4,0.3-0.6,0.3C23.3,11,23.1,11,23,11c0,0.1,0,0.2,0,0.3c0,0.1,0,0.1,0.1,0.2
				c0,0,0.1,0,0.2,0c0.2-0.1,0.5-0.1,0.6-0.2c0.2-0.1,0.3-0.1,0.3-0.1c0.1,0,0.2,0,0.2,0.1c0,0.1-0.1,0.3-0.2,0.4
				C24,11.8,23.8,12,23.5,12s-0.5,0-0.7-0.1c-0.2-0.1-0.3-0.3-0.4-0.6c-0.1-0.2,0-0.5,0-0.8c0.1-0.3,0.2-0.5,0.4-0.8
				c0.2-0.2,0.4-0.4,0.6-0.4c0.2,0,0.4,0,0.6,0.2c0.2,0.2,0.4,0.4,0.4,0.6C24.5,10.3,24.4,10.4,24.2,10.6z M23.7,10
				c-0.1,0-0.2-0.1-0.2-0.1c-0.1,0-0.1,0.1-0.2,0.2c-0.1,0.1-0.1,0.2-0.2,0.4c0,0,0.1,0,0.1,0c0.5-0.1,0.7-0.2,0.6-0.4
				C23.8,10.1,23.8,10.1,23.7,10z"/>
			<path class="st0" d="M24.9,9.9l-0.2-0.6c0-0.2,0-0.3,0.1-0.3c0.1,0,0.1,0,0.2,0c0.1,0,0.1,0.1,0.2,0.2C25.3,9.2,25.5,9,25.6,9
				c0.1-0.1,0.2-0.1,0.3-0.2c0.2-0.1,0.4,0,0.4,0.1c0,0.1,0,0.1,0,0.1c0,0,0,0.1,0,0.1c0,0,0,0,0,0.1c0,0,0,0-0.1,0.1
				c-0.1,0.1-0.1,0.1-0.1,0.1c-0.1,0.1-0.2,0.3-0.3,0.4c-0.1,0.2-0.1,0.4-0.1,0.6c0,0.4,0,0.7-0.1,0.9c0,0.2-0.1,0.3-0.2,0.3
				c-0.1,0-0.2,0-0.3-0.1c-0.1-0.1-0.1-0.2-0.1-0.3c0-0.1,0-0.2,0-0.4c0-0.2,0-0.4,0-0.5C24.9,10.2,24.9,10.1,24.9,9.9z"/>
			<path class="st0" d="M28.1,8.5c0-0.1,0-0.1,0.1-0.2c0.1,0,0.2,0,0.3,0.1c0.1,0.1,0.2,0.2,0.2,0.4c0,0.1,0,0.2,0,0.4
				c0,0.2,0,0.3,0,0.4c0,0.1,0,0.2,0,0.3c0,0.1,0,0.3,0,0.4c0,0.1,0,0.3-0.1,0.5c0,0.2,0,0.4-0.1,0.6c0,0.3-0.1,0.6-0.2,0.8
				c-0.1,0.2-0.3,0.3-0.5,0.4c-0.2,0.1-0.5,0-0.7,0c-0.2-0.1-0.3-0.2-0.4-0.3c0-0.1,0-0.2,0-0.3c0-0.1,0.1-0.2,0.1-0.2
				c0,0,0.1,0,0.2,0.1c0.1,0.1,0.2,0.1,0.3,0.2c0.1,0.1,0.2,0.1,0.2,0.1c0,0,0.1,0,0.1-0.1c0,0,0-0.1,0-0.1c0,0,0-0.1,0-0.1
				c0-0.1,0-0.1,0-0.2c0,0,0-0.1,0-0.2c0-0.1,0-0.2,0-0.2c0-0.2,0-0.4,0-0.5c-0.1,0.2-0.2,0.3-0.3,0.4c-0.1,0.1-0.2,0.2-0.3,0.2
				c-0.1,0-0.2,0-0.4-0.1c-0.2-0.1-0.3-0.3-0.3-0.4c0-0.2,0-0.4,0-0.7c0-0.3,0.1-0.6,0.1-0.9c0.1-0.3,0.1-0.4,0.2-0.4
				c0.1,0,0.2,0,0.3,0.1c0.1,0.1,0.2,0.1,0.2,0.2s0,0.2,0,0.4c0,0.2-0.1,0.4-0.1,0.6c0,0.2,0,0.4,0,0.6c0,0,0,0,0,0
				c0,0,0.1-0.1,0.2-0.3c0.1-0.2,0.2-0.5,0.3-0.8C28,9.1,28.1,8.8,28.1,8.5z"/>
			<path class="st0" d="M30.2,8.9c0,0.2,0,0.4-0.1,0.6c0,0.3,0,0.4,0,0.4c0,0,0,0,0.1,0c0.1,0,0.2-0.1,0.4-0.2s0.3-0.2,0.3-0.2
				c0.1,0,0.1,0,0.2,0.1c0,0.1-0.1,0.3-0.2,0.5c-0.2,0.2-0.4,0.3-0.6,0.4c-0.1,0-0.2,0-0.4-0.1c-0.2-0.1-0.3-0.2-0.3-0.3
				c0-0.1,0-0.3,0-0.7s0.1-0.6,0.1-0.7c-0.1,0.1-0.2,0.1-0.3,0.1s-0.1,0-0.2-0.1c-0.1-0.1-0.1-0.2-0.2-0.2c0-0.1,0.2-0.3,0.7-0.4
				c0-0.3,0-0.6-0.1-0.8c0-0.1,0-0.2,0.1-0.2c0.1,0,0.2,0,0.4,0.1c0.2,0.1,0.2,0.2,0.3,0.3c0,0.1,0,0.2,0,0.4c0.2,0,0.3-0.1,0.4-0.1
				C30.9,7.8,31,7.9,31,8c0,0.1,0,0.2-0.2,0.2c-0.1,0.1-0.3,0.2-0.6,0.3C30.2,8.6,30.2,8.7,30.2,8.9z"/>
			<path class="st0" d="M31.4,6.4c0-0.1,0-0.2,0.1-0.2c0.1,0,0.2,0,0.4,0.2c0.1,0.1,0.2,0.2,0.3,0.3c0,0.1,0,0.3,0,0.5
				c0,0.2,0,0.4,0,0.6c0,0.2,0,0.4-0.1,0.7c0,0.3,0,0.5-0.1,0.7c0.1-0.5,0.3-0.9,0.5-1.2c0.2-0.3,0.4-0.5,0.5-0.5
				c0.1,0,0.2,0,0.4,0.2c0.2,0.2,0.3,0.3,0.3,0.4c0,0.1,0.1,0.4,0.1,0.6c0,0.3,0,0.6-0.1,0.9c-0.1,0.3-0.2,0.4-0.3,0.5
				c-0.1,0-0.2,0-0.2-0.2c0-0.1,0-0.3,0-0.6c0-0.4,0-0.6,0-0.7c0-0.1,0-0.1-0.1-0.1c-0.2,0-0.4,0.4-0.6,1.1
				c-0.1,0.2-0.1,0.4-0.2,0.6c-0.1,0.1-0.1,0.2-0.2,0.2c-0.1,0-0.2,0-0.3-0.1c-0.1-0.1-0.2-0.2-0.2-0.2c0-0.1,0-0.2,0-0.3
				c0-0.1,0-0.3,0-0.6c0-0.3,0-0.7,0-1.4C31.4,6.8,31.4,6.5,31.4,6.4z"/>
			<path class="st0" d="M34.2,6.4c0-0.1,0-0.2,0.1-0.3c0.1-0.1,0.1-0.2,0.2-0.2c0.1,0,0.2,0.1,0.3,0.2C34.9,6.3,35,6.4,35,6.5
				c0,0.1,0,0.1,0,0.2c0,0.1-0.1,0.1-0.2,0.1c-0.1,0-0.2,0-0.4-0.1C34.3,6.6,34.2,6.5,34.2,6.4z M34.4,7c0.1,0,0.2,0,0.4,0.1
				c0.1,0.1,0.2,0.2,0.2,0.4c0,0.1,0,0.3,0,0.7c0,0.4-0.1,0.8-0.1,1.2c0,0.1-0.1,0.2-0.2,0.2c-0.1,0-0.1,0-0.2,0
				c-0.1,0-0.1-0.1-0.1-0.2c0-0.1,0-0.3,0-0.7c0-0.4,0-0.7,0-0.9c0-0.3,0-0.4,0-0.6C34.3,7.1,34.3,7,34.4,7z"/>
			<path class="st0" d="M36.9,6.4c0.2,0,0.3,0,0.5,0.1c0.2,0.1,0.3,0.3,0.3,0.5c0.1,0.3,0.1,0.6,0.1,0.9c0,0.3-0.1,0.6-0.1,0.8
				C37.6,8.9,37.5,9,37.4,9c-0.1,0-0.2,0-0.2-0.2c0-0.1,0-0.4,0-0.8c0-0.3,0-0.5,0-0.7c0-0.1-0.1-0.2-0.1-0.2c0,0-0.1,0-0.1,0.1
				c0,0.1-0.1,0.1-0.1,0.1c0,0,0,0.1-0.1,0.1c0,0.1,0,0.1-0.1,0.2c0,0,0,0.1-0.1,0.2c0,0.1,0,0.1-0.1,0.2c0,0,0,0.1-0.1,0.2
				c-0.2,0.6-0.4,1-0.5,1c-0.1,0-0.2,0-0.3-0.1C35.6,9.1,35.5,9,35.5,9c0,0,0-0.1,0-0.2c0-0.1,0-0.2,0-0.3c0-0.1,0-0.1,0-0.2
				c0-0.1,0-0.2,0-0.2c0-0.1,0-0.2,0-0.2s0-0.1,0-0.2c-0.1-0.4-0.1-0.7-0.1-0.7c0-0.1,0-0.1,0.1-0.1c0.1,0,0.3,0,0.4,0.1
				s0.2,0.2,0.2,0.2c0,0.2,0.1,0.5,0,0.9c0.1-0.4,0.3-0.8,0.4-1.1C36.7,6.6,36.8,6.5,36.9,6.4z"/>
			<path class="st0" d="M40.1,6.9c0.1,0,0.1,0.1,0.1,0.2s0,0.2,0,0.3c0,0.2-0.1,0.5-0.1,0.8c0,0.3,0,0.6,0,0.7
				c0,0.2-0.1,0.4-0.1,0.5c0,0.1-0.1,0.3-0.2,0.4c-0.1,0.1-0.2,0.2-0.4,0.2c-0.2,0-0.4,0-0.6-0.1c-0.2-0.1-0.3-0.2-0.3-0.3
				c0-0.1,0-0.2,0-0.3c0-0.1,0.1-0.1,0.1-0.2c0,0,0.1,0,0.2,0c0.1,0,0.1,0.1,0.2,0.1c0.1,0.1,0.1,0.1,0.2,0.1s0.1,0.1,0.2,0
				s0.1-0.1,0.2-0.2s0.1-0.2,0.1-0.4c0-0.3,0-0.5,0-0.6c-0.2,0.2-0.4,0.3-0.5,0.3c-0.1,0-0.3,0-0.5-0.1c-0.2-0.1-0.3-0.3-0.3-0.4
				c0-0.1,0-0.3,0-0.5c0-0.2,0.1-0.4,0.2-0.7c0.1-0.2,0.2-0.4,0.3-0.6C38.9,6.1,39,6,39.2,5.9c0.1,0,0.2,0,0.3,0
				c0.1,0,0.2,0.1,0.2,0.2C39.9,6.3,40,6.5,40,6.8C40,6.8,40,6.8,40.1,6.9z M38.9,8C38.9,8,38.9,8,38.9,8c0.2,0,0.3-0.1,0.5-0.3
				c0.2-0.2,0.3-0.4,0.3-0.6l0-0.1c0-0.2-0.1-0.3-0.1-0.4c0,0-0.1,0-0.1,0c-0.2,0-0.3,0.2-0.4,0.6C38.9,7.6,38.8,7.8,38.9,8z"/>
		</g>
	</g>
</g>
</svg>
