<svg xmlns="http://www.w3.org/2000/svg" viewBox="0 0 41.28 17.55"><defs><style>.cls-1,.cls-2{fill:#fff;}.cls-2{font-size:5.07px;font-family:Kalam-Bold, Kalam;font-weight:700;}</style></defs><g id="Layer_2" data-name="Layer 2"><g id="infoReset"><g id="infoArrow"><path class="cls-1" d="M.54,3.29C2,3.16,3.43,3,4.86,2.74L4.2,2.07A27.3,27.3,0,0,0,4,5.56.54.54,0,0,0,5,5.56a26.19,26.19,0,0,1,.21-3.2.55.55,0,0,0-.67-.66c-1.33.22-2.67.38-4,.51A.56.56,0,0,0,0,2.75a.54.54,0,0,0,.54.54Z"/><path class="cls-1" d="M4.34,1.84C2.51,3.33.83,5.48,1.33,8A6.37,6.37,0,0,0,5.12,12.2,9.23,9.23,0,0,0,8.58,13c.7,0,.7-1,0-1.08A7.12,7.12,0,0,1,2.9,9C1.37,6.58,3.2,4.15,5.1,2.6c.54-.44-.23-1.2-.76-.76Z"/></g><text class="cls-2" transform="translate(9.45 10.92) rotate(-12.17)">Reset<tspan x="0" y="4.09" xml:space="preserve">    everything</tspan></text></g></g></svg>