<?xml version="1.0" encoding="utf-8"?>
<!-- Generator: Adobe Illustrator 24.1.3, SVG Export Plug-In . SVG Version: 6.00 Build 0)  -->
<svg version="1.1" id="Layer_1" xmlns="http://www.w3.org/2000/svg" xmlns:xlink="http://www.w3.org/1999/xlink" x="0px" y="0px"
	 viewBox="0 0 61.1 39.1" style="enable-background:new 0 0 61.1 39.1;" xml:space="preserve">
<style type="text/css">
	.st0{fill:#FFFFFF;}
	.st1{enable-background:new    ;}
</style>
<g id="Layer_2_1_">
	<g id="infoThemes">
		<g id="infoArrow">
			<path class="st0" d="M4.1,38.2c-1-0.8-2.1-1.5-3.2-2L1,37c0.7-1.2,1.5-2.4,2.4-3.5c0.1-0.3,0.1-0.6-0.2-0.7
				c-0.3-0.1-0.6-0.1-0.7,0.2c-0.9,1.1-1.6,2.3-2.4,3.5C-0.1,36.7,0,37,0.3,37.2c1.1,0.5,2.1,1.1,3,1.8c0.2,0.2,0.6,0.2,0.8,0
				C4.2,38.8,4.2,38.4,4.1,38.2L4.1,38.2z"/>
			<path class="st0" d="M1.1,37c9.1-2.2,17.5-6.5,24.7-12.5c2-1.7,3.9-3.5,5.6-5.5c0.5-0.5-0.3-1.3-0.8-0.8
				c-6.2,6.8-13.9,12.1-22.5,15.4c-2.4,0.9-4.9,1.7-7.4,2.3C0.1,36.1,0.4,37.1,1.1,37L1.1,37z"/>
		</g>
		<g class="st1">
			<path class="st0" d="M24.2,1.3c0.1,0,0.2,0.1,0.2,0.3c0.1,0.2,0.1,0.3,0,0.4c0,0.1-0.1,0.1-0.1,0.1c0,0-0.1,0-0.1-0.1
				c-0.1,0-0.1-0.1-0.2-0.1c-0.2-0.1-0.4,0-0.7,0.1c-0.3,0.1-0.5,0.3-0.8,0.6c-0.2,0.2-0.4,0.5-0.5,0.7c0,0.1,0,0.2,0,0.2
				c0,0.1,0.1,0.1,0.1,0.1C22.5,3.9,22.7,3.9,23,4c0.2,0,0.5,0,0.6,0c0.2,0,0.3,0,0.3,0s0,0,0,0.1c0,0,0,0.1,0,0.1
				c0,0.1-0.2,0.2-0.4,0.3c-0.2,0.1-0.5,0.2-0.8,0.2c-0.3,0-0.5,0-0.7-0.1c-0.2-0.1-0.4-0.3-0.5-0.6c-0.1-0.3-0.2-0.6-0.1-0.8
				c0.1-0.3,0.3-0.6,0.6-0.9c0.3-0.3,0.7-0.6,1.1-0.8S23.9,1.2,24.2,1.3z"/>
			<path class="st0" d="M25.8,1.8c0-0.1,0.1-0.2,0.2-0.2c0.1,0,0.2,0.1,0.2,0.3c0.1,0.2,0.1,0.3,0,0.4c0,0.1-0.1,0.2-0.2,0.4
				c-0.1,0.2-0.2,0.3-0.3,0.5c-0.1,0.1-0.2,0.3-0.4,0.6c-0.2,0.3-0.3,0.4-0.4,0.5c0.3-0.4,0.7-0.6,1-0.8c0.3-0.2,0.6-0.3,0.7-0.2
				c0.1,0,0.2,0.2,0.3,0.4c0.1,0.2,0.1,0.4,0,0.5s-0.1,0.3-0.3,0.6c-0.1,0.2-0.3,0.5-0.5,0.7s-0.4,0.3-0.5,0.2
				c-0.1,0-0.1-0.1-0.1-0.3c0-0.1,0.1-0.3,0.3-0.5c0.2-0.3,0.3-0.5,0.4-0.6c0-0.1,0-0.1,0-0.1c-0.2-0.1-0.6,0.2-1.1,0.7
				c-0.2,0.2-0.3,0.3-0.5,0.4c-0.1,0.1-0.2,0.1-0.3,0.1c-0.1,0-0.1-0.1-0.2-0.3c-0.1-0.2-0.1-0.3-0.1-0.3c0-0.1,0.1-0.2,0.1-0.3
				s0.2-0.3,0.3-0.5c0.1-0.2,0.4-0.6,0.7-1.2C25.6,2.2,25.8,1.8,25.8,1.8z"/>
			<path class="st0" d="M27.7,4.3C28.1,4,28.4,3.9,28.6,4c0.2,0.1,0.4,0.2,0.5,0.5c0.1,0.2,0.1,0.5,0,0.7S29,5.6,28.8,5.8
				c-0.2,0.2-0.4,0.4-0.7,0.5c-0.3,0.1-0.5,0.1-0.8,0c-0.2-0.1-0.3-0.2-0.4-0.4c-0.1-0.2-0.1-0.4,0-0.6C27.1,4.9,27.4,4.5,27.7,4.3z
				 M28.2,5.5c0.2-0.2,0.3-0.4,0.4-0.6c0.1-0.2,0.1-0.4,0.1-0.5c-0.2,0-0.4,0.2-0.6,0.4c-0.2,0.2-0.4,0.4-0.4,0.6
				c-0.1,0.2-0.1,0.3-0.1,0.4C27.8,5.8,28,5.7,28.2,5.5z"/>
			<path class="st0" d="M29.9,5c0.4-0.3,0.7-0.4,0.9-0.3c0.2,0.1,0.4,0.2,0.5,0.5c0.1,0.2,0.1,0.5,0,0.7S31.2,6.3,31,6.5
				c-0.2,0.2-0.4,0.4-0.7,0.5c-0.3,0.1-0.5,0.1-0.8,0c-0.2-0.1-0.3-0.2-0.4-0.4c-0.1-0.2-0.1-0.4,0-0.6C29.3,5.6,29.6,5.3,29.9,5z
				 M30.4,6.2c0.2-0.2,0.3-0.4,0.4-0.6s0.1-0.4,0.1-0.5c-0.2,0-0.4,0.2-0.6,0.4C30,5.8,29.9,6,29.8,6.2c-0.1,0.2-0.1,0.3-0.1,0.4
				C30,6.5,30.2,6.4,30.4,6.2z"/>
			<path class="st0" d="M33.5,5.6c0.1,0,0.2,0.2,0.3,0.3s0.1,0.3,0,0.4c0,0.1-0.1,0.1-0.1,0.1c0,0-0.1,0-0.2-0.1
				c-0.1-0.1-0.1-0.1-0.2-0.1c-0.1,0-0.2,0-0.4,0c-0.2,0-0.3,0-0.3,0.1c0,0,0,0.1,0.1,0.2c0.1,0.1,0.1,0.2,0.2,0.3
				c0.1,0.1,0.1,0.2,0.2,0.4c0,0.1,0.1,0.3,0,0.4S33,7.8,32.8,7.9c-0.2,0.1-0.5,0.1-0.8,0c-0.3-0.1-0.5-0.2-0.6-0.4
				c-0.1-0.2-0.2-0.3-0.2-0.5c0-0.1,0.1-0.2,0.2-0.1c0,0,0.1,0,0.1,0.1c0.1,0.1,0.3,0.3,0.6,0.3c0.2,0.1,0.4,0.1,0.4,0
				c0-0.1,0-0.2-0.1-0.3c-0.1-0.1-0.1-0.2-0.2-0.3c-0.1-0.1-0.2-0.2-0.2-0.3C32,6.2,32,6.1,32,6c0.1-0.2,0.3-0.3,0.7-0.4
				C33,5.5,33.3,5.5,33.5,5.6z"/>
			<path class="st0" d="M35.6,7.7c-0.3,0.1-0.5,0-0.7,0s-0.4-0.2-0.5-0.2c-0.1,0.1-0.1,0.2-0.1,0.2c0,0.1,0,0.2,0,0.2
				c0,0,0.1,0.1,0.2,0.1c0.2,0.1,0.5,0.1,0.6,0.1s0.3,0,0.3,0c0.1,0,0.2,0.1,0.2,0.2c0,0.1-0.2,0.2-0.4,0.3c-0.2,0-0.5,0-0.8-0.1
				c-0.3-0.1-0.5-0.2-0.6-0.5c-0.1-0.2-0.1-0.5,0-0.7c0.1-0.2,0.2-0.5,0.4-0.7s0.5-0.4,0.7-0.5c0.3-0.1,0.5-0.1,0.7-0.1
				c0.2,0.1,0.4,0.2,0.5,0.5c0.1,0.3,0.1,0.5,0.1,0.7C36,7.6,35.9,7.7,35.6,7.7z M35.5,7c0-0.1-0.1-0.1-0.2-0.2
				c-0.1,0-0.2,0-0.3,0.1S34.8,7,34.7,7.1c0,0,0.1,0,0.1,0c0.4,0.1,0.7,0.1,0.7,0C35.5,7.1,35.5,7.1,35.5,7z"/>
			<path class="st0" d="M40.4,7.4c0-0.1,0-0.2,0-0.2c0-0.1,0-0.1-0.1-0.1c0,0-0.1,0-0.1,0c-0.1,0-0.1,0.1-0.2,0.2
				c-0.1,0.2-0.3,0.4-0.4,0.7c0.2,0.1,0.4,0.1,0.6,0.2c0.1,0,0.2,0.1,0.3,0.1c0,0.1,0.1,0.1,0,0.2c0,0.1-0.1,0.1-0.3,0.1
				c-0.2,0-0.5,0-0.8-0.1c-0.4,0.6-0.6,1-0.8,1.1c-0.1,0.1-0.2,0.2-0.3,0.2c-0.1,0-0.1-0.1-0.2-0.2c0-0.1-0.1-0.2,0-0.3
				c0-0.1,0-0.1,0.1-0.2c0.2-0.2,0.4-0.5,0.5-0.7c-0.1,0-0.2,0-0.3,0s-0.1-0.1-0.2-0.2C38,8.1,38,8.1,38.1,8c0-0.1,0.3-0.1,0.8-0.1
				c0.3-0.6,0.6-1,0.8-1.2c0.3-0.2,0.5-0.3,0.9-0.2c0.2,0,0.3,0.2,0.3,0.4C41,7,41,7.2,40.9,7.4c0,0.1-0.1,0.2-0.2,0.3
				c-0.1,0.1-0.1,0.1-0.2,0.1c-0.1,0-0.1-0.1-0.1-0.1C40.4,7.6,40.4,7.5,40.4,7.4z"/>
			<path class="st0" d="M40.5,8.8l0.2-0.6C40.7,8,40.8,8,40.9,8C41,8,41,8.1,41.1,8.1c0,0.1,0.1,0.2,0.1,0.3
				c0.1-0.1,0.3-0.1,0.4-0.1c0.1,0,0.3,0,0.4,0c0.2,0.1,0.3,0.2,0.3,0.3c0,0.1,0,0.1-0.1,0.1s-0.1,0-0.1,0c0,0,0,0-0.1,0
				s-0.1,0-0.1,0c-0.1,0-0.2,0-0.2,0c-0.2,0-0.3,0.1-0.5,0.2c-0.1,0.1-0.3,0.2-0.4,0.5c-0.2,0.3-0.4,0.6-0.5,0.7
				c-0.1,0.2-0.3,0.2-0.4,0.2c-0.1,0-0.2-0.1-0.2-0.2c0-0.1,0-0.2,0-0.3c0-0.1,0.1-0.2,0.2-0.4c0.1-0.2,0.2-0.3,0.3-0.4
				C40.4,9.1,40.4,8.9,40.5,8.8z"/>
			<path class="st0" d="M42.4,9.1c0.4-0.3,0.7-0.4,0.9-0.3c0.2,0.1,0.4,0.2,0.5,0.5c0.1,0.2,0.1,0.5,0,0.7c-0.1,0.2-0.2,0.5-0.4,0.7
				c-0.2,0.2-0.4,0.4-0.7,0.5c-0.3,0.1-0.5,0.1-0.8,0c-0.2-0.1-0.3-0.2-0.4-0.4c-0.1-0.2-0.1-0.4,0-0.6C41.8,9.7,42,9.4,42.4,9.1z
				 M42.9,10.4c0.2-0.2,0.3-0.4,0.4-0.6c0.1-0.2,0.1-0.4,0.1-0.5c-0.2,0-0.4,0.2-0.6,0.4c-0.2,0.2-0.4,0.4-0.4,0.6
				c-0.1,0.2-0.1,0.3-0.1,0.4C42.5,10.6,42.7,10.5,42.9,10.4z"/>
			<path class="st0" d="M47.7,10.2c0.1,0,0.2,0.2,0.2,0.4s0,0.4,0,0.5c0,0.1-0.1,0.3-0.3,0.6c-0.1,0.3-0.3,0.5-0.5,0.7
				c-0.2,0.2-0.4,0.3-0.5,0.3c-0.1,0-0.1-0.1-0.1-0.3c0-0.1,0.2-0.4,0.4-0.7s0.3-0.5,0.3-0.6c0-0.1,0-0.2,0-0.2
				c-0.1,0-0.2,0-0.3,0.1c-0.1,0.1-0.3,0.3-0.5,0.5C46.2,11.8,46,11.9,46,12c-0.1,0.1-0.1,0.1-0.1,0.1c0,0-0.1,0.1-0.1,0.1
				c-0.2,0.1-0.3,0.1-0.4-0.1c-0.1-0.1-0.1-0.2-0.1-0.3c0,0,0.1-0.1,0.2-0.3c0.1-0.2,0.2-0.5,0.3-0.8c0-0.1,0-0.2,0-0.2
				c0,0-0.1,0-0.2,0.1c-0.1,0.1-0.2,0.2-0.4,0.3c-0.2,0.2-0.3,0.3-0.4,0.4c-0.4,0.4-0.7,0.5-0.8,0.5c-0.1,0-0.1-0.1-0.2-0.3
				s-0.1-0.3-0.1-0.3s0.1-0.2,0.3-0.4c0.2-0.2,0.3-0.5,0.4-0.7c0.1-0.3,0.2-0.5,0.3-0.6c0.1-0.1,0.1-0.2,0.2-0.2
				c0.1,0,0.2,0.1,0.3,0.3c0.1,0.1,0.1,0.2,0.1,0.3c-0.1,0.2-0.2,0.5-0.5,0.9c0.4-0.5,0.7-0.8,0.9-0.9c0.2-0.1,0.4-0.2,0.6-0.1
				c0.1,0,0.2,0.1,0.2,0.3c0.1,0.2,0.1,0.4,0,0.5c0,0.1-0.1,0.2-0.1,0.3c0.2-0.2,0.4-0.4,0.7-0.5C47.3,10.2,47.5,10.2,47.7,10.2z"/>
		</g>
		<g class="st1">
			<path class="st0" d="M24.3,7.5c0.1,0,0.2,0.1,0.2,0.3c0.1,0.2,0.1,0.3,0.1,0.5c0,0.1-0.2,0.3-0.4,0.7c-0.3,0.4-0.4,0.7-0.5,0.7
				c-0.6,1-1,1.5-1.1,1.5c-0.1,0-0.1-0.1-0.2-0.2c-0.1-0.1-0.1-0.2,0-0.3c0,0,0,0,0,0c-0.4,0.2-0.7,0.2-0.8,0.2
				c-0.1,0-0.2-0.2-0.3-0.4s-0.1-0.3-0.1-0.5c0-0.1,0.1-0.3,0.2-0.4c0.1-0.1,0.2-0.3,0.3-0.4c0.1-0.1,0.3-0.3,0.4-0.4
				c0.1-0.1,0.3-0.2,0.5-0.3c0.2-0.1,0.3-0.1,0.4,0c0.2,0.1,0.3,0.2,0.4,0.5c0.4-0.7,0.7-1.2,0.8-1.4C24.2,7.5,24.2,7.4,24.3,7.5z
				 M21.8,10.2c0.1,0,0.2,0,0.5-0.1c0.2-0.1,0.4-0.2,0.6-0.4c0,0,0-0.1,0.1-0.2c0-0.1,0-0.2,0-0.3c0-0.1-0.1-0.2-0.1-0.2
				c-0.1,0-0.2,0-0.3,0.1c-0.1,0.1-0.2,0.2-0.3,0.3C22,9.8,21.8,10,21.8,10.2C21.8,10.2,21.8,10.2,21.8,10.2
				C21.8,10.2,21.8,10.2,21.8,10.2z"/>
			<path class="st0" d="M25,9.2c0.1,0,0.2,0.1,0.2,0.3c0,0.2,0,0.3,0,0.4c0,0.1-0.1,0.3-0.4,0.6c-0.2,0.3-0.5,0.7-0.7,1
				c-0.1,0.1-0.2,0.1-0.3,0.1c-0.1,0-0.1-0.1-0.2-0.1s0-0.1,0-0.2s0.1-0.3,0.3-0.6c0.2-0.3,0.4-0.6,0.5-0.8c0.1-0.2,0.2-0.4,0.3-0.5
				C24.9,9.2,24.9,9.2,25,9.2z M25.1,8.5c0-0.1,0.1-0.2,0.2-0.2c0.1-0.1,0.2-0.1,0.3-0.1s0.1,0.1,0.2,0.3c0,0.2,0.1,0.3,0,0.4
				c0,0.1-0.1,0.1-0.1,0.2c-0.1,0-0.1,0-0.2,0c-0.1,0-0.2-0.1-0.3-0.3S25.1,8.6,25.1,8.5z"/>
			<path class="st0" d="M27.7,9.6c0-0.1,0-0.2,0-0.2c0-0.1,0-0.1-0.1-0.1c0,0-0.1,0-0.1,0c-0.1,0-0.1,0.1-0.2,0.2
				c-0.1,0.2-0.3,0.4-0.4,0.7c0.2,0.1,0.4,0.1,0.6,0.2c0.1,0,0.2,0.1,0.3,0.1s0.1,0.1,0,0.2c0,0.1-0.1,0.1-0.3,0.1
				c-0.2,0-0.5,0-0.8-0.1c-0.4,0.6-0.6,1-0.8,1.1c-0.1,0.1-0.2,0.2-0.3,0.2c-0.1,0-0.1-0.1-0.2-0.2s-0.1-0.2,0-0.3
				c0-0.1,0-0.1,0.1-0.2c0.2-0.2,0.4-0.5,0.5-0.7c-0.1,0-0.2,0-0.3,0c-0.1,0-0.1-0.1-0.2-0.2c-0.1-0.1-0.1-0.2,0-0.3
				c0-0.1,0.3-0.1,0.8-0.1c0.3-0.6,0.6-1,0.8-1.2c0.3-0.2,0.5-0.3,0.9-0.2c0.2,0,0.3,0.2,0.3,0.4s0.1,0.4,0,0.6
				c0,0.1-0.1,0.2-0.2,0.3C27.9,10,27.9,10,27.8,10c-0.1,0-0.1-0.1-0.1-0.1C27.7,9.8,27.7,9.7,27.7,9.6z"/>
			<path class="st0" d="M29.8,10.3c0-0.1,0-0.2,0-0.2c0-0.1,0-0.1-0.1-0.1c0,0-0.1,0-0.1,0c-0.1,0-0.1,0.1-0.2,0.2
				c-0.1,0.2-0.3,0.4-0.4,0.7c0.2,0.1,0.4,0.1,0.6,0.2c0.1,0,0.2,0.1,0.3,0.1c0,0.1,0.1,0.1,0,0.2c0,0.1-0.1,0.1-0.3,0.1
				c-0.2,0-0.5,0-0.8-0.1c-0.4,0.6-0.6,1-0.8,1.1s-0.2,0.2-0.3,0.2c-0.1,0-0.1-0.1-0.2-0.2c0-0.1-0.1-0.2,0-0.3c0-0.1,0-0.1,0.1-0.2
				c0.2-0.2,0.4-0.5,0.5-0.7c-0.1,0-0.2,0-0.3,0c-0.1,0-0.1-0.1-0.2-0.2c-0.1-0.1-0.1-0.2,0-0.3c0-0.1,0.3-0.1,0.8-0.1
				c0.3-0.6,0.6-1,0.8-1.2c0.3-0.2,0.5-0.3,0.9-0.2c0.2,0,0.3,0.2,0.3,0.4c0.1,0.2,0.1,0.4,0,0.6c0,0.1-0.1,0.2-0.2,0.3
				c-0.1,0.1-0.1,0.1-0.2,0.1c-0.1,0-0.1-0.1-0.1-0.1C29.8,10.5,29.8,10.4,29.8,10.3z"/>
			<path class="st0" d="M31.3,12.7c-0.3,0.1-0.5,0-0.7,0c-0.2-0.1-0.4-0.2-0.5-0.2c-0.1,0.1-0.1,0.2-0.1,0.2c0,0.1,0,0.2,0,0.2
				c0,0,0.1,0.1,0.2,0.1c0.2,0.1,0.5,0.1,0.6,0.1c0.2,0,0.3,0,0.3,0c0.1,0,0.2,0.1,0.2,0.2c0,0.1-0.2,0.2-0.4,0.3s-0.5,0-0.8-0.1
				c-0.3-0.1-0.5-0.2-0.6-0.5c-0.1-0.2-0.1-0.5,0-0.7c0.1-0.2,0.2-0.5,0.4-0.7c0.2-0.2,0.5-0.4,0.7-0.5c0.3-0.1,0.5-0.1,0.7-0.1
				c0.2,0.1,0.4,0.2,0.5,0.5c0.1,0.3,0.1,0.5,0.1,0.7C31.7,12.6,31.5,12.7,31.3,12.7z M31.1,12c0-0.1-0.1-0.1-0.2-0.2
				s-0.2,0-0.3,0.1s-0.2,0.1-0.4,0.2c0,0,0.1,0,0.1,0c0.4,0.1,0.7,0.1,0.7,0C31.2,12.1,31.2,12,31.1,12z"/>
			<path class="st0" d="M32.2,12.5l0.2-0.6c0.1-0.2,0.1-0.3,0.3-0.2c0.1,0,0.1,0.1,0.2,0.1s0.1,0.2,0.1,0.3C33,12,33.1,12,33.3,12
				c0.1,0,0.3,0,0.4,0c0.2,0.1,0.3,0.2,0.3,0.3c0,0.1,0,0.1-0.1,0.1c0,0-0.1,0-0.1,0c0,0,0,0-0.1,0c0,0-0.1,0-0.1,0
				c-0.1,0-0.2,0-0.2,0c-0.2,0-0.3,0.1-0.5,0.2c-0.1,0.1-0.3,0.2-0.4,0.5c-0.2,0.3-0.4,0.6-0.5,0.7c-0.1,0.2-0.3,0.2-0.4,0.2
				s-0.2-0.1-0.2-0.2c0-0.1,0-0.2,0-0.3c0-0.1,0.1-0.2,0.2-0.4c0.1-0.1,0.2-0.3,0.3-0.4C32.1,12.8,32.2,12.6,32.2,12.5z"/>
			<path class="st0" d="M35.4,14.1c-0.3,0.1-0.5,0-0.7,0s-0.4-0.2-0.5-0.2C34,13.9,34,14,34,14c0,0.1,0,0.2,0,0.2s0.1,0.1,0.2,0.1
				c0.2,0.1,0.5,0.1,0.6,0.1c0.2,0,0.3,0,0.3,0c0.1,0,0.2,0.1,0.2,0.2c0,0.1-0.2,0.2-0.4,0.3s-0.5,0-0.8-0.1
				c-0.3-0.1-0.5-0.2-0.6-0.5c-0.1-0.2-0.1-0.5,0-0.7c0.1-0.2,0.2-0.5,0.4-0.7c0.2-0.2,0.5-0.4,0.7-0.5c0.3-0.1,0.5-0.1,0.7-0.1
				c0.2,0.1,0.4,0.2,0.5,0.5c0.1,0.3,0.1,0.5,0.1,0.7C35.8,13.9,35.6,14,35.4,14.1z M35.2,13.3c0-0.1-0.1-0.1-0.2-0.2
				s-0.2,0-0.3,0.1s-0.2,0.1-0.4,0.2c0,0,0.1,0,0.1,0c0.4,0.1,0.7,0.1,0.7,0C35.3,13.5,35.3,13.4,35.2,13.3z"/>
			<path class="st0" d="M38.1,13.5c0.2,0.1,0.3,0.2,0.4,0.4s0.1,0.4,0,0.5c-0.1,0.3-0.2,0.5-0.4,0.8c-0.2,0.3-0.4,0.5-0.5,0.6
				s-0.3,0.2-0.4,0.1c-0.1,0-0.1-0.1-0.1-0.3c0-0.1,0.2-0.3,0.4-0.6c0.2-0.3,0.3-0.5,0.3-0.6s0-0.2,0-0.2c0,0-0.1,0-0.1,0
				s-0.1,0.1-0.1,0.1c0,0-0.1,0.1-0.1,0.1c0,0-0.1,0.1-0.1,0.1c0,0-0.1,0.1-0.1,0.1C37,14.7,37,14.7,37,14.8s-0.1,0.1-0.1,0.1
				c-0.5,0.5-0.8,0.7-1,0.6c-0.1,0-0.1-0.1-0.2-0.3c-0.1-0.2-0.1-0.3-0.1-0.3c0,0,0.1-0.1,0.1-0.2c0.1-0.1,0.1-0.2,0.2-0.2
				c0-0.1,0.1-0.1,0.1-0.2s0.1-0.1,0.1-0.2c0-0.1,0.1-0.1,0.1-0.2s0-0.1,0.1-0.2c0.2-0.4,0.3-0.6,0.3-0.7c0,0,0.1-0.1,0.1,0
				c0.1,0,0.2,0.1,0.3,0.3s0.1,0.2,0.1,0.3c-0.1,0.2-0.2,0.5-0.4,0.8c0.3-0.3,0.6-0.5,0.9-0.7C37.8,13.5,38,13.5,38.1,13.5z"/>
			<path class="st0" d="M39.8,15.1c-0.1,0.1-0.2,0.3-0.4,0.5c-0.1,0.2-0.2,0.3-0.2,0.3c0,0,0,0,0.1,0s0.2,0,0.4,0s0.4,0,0.4,0
				c0.1,0,0.1,0.1,0.1,0.2s-0.2,0.2-0.5,0.3c-0.3,0.1-0.5,0.1-0.8,0c-0.1,0-0.2-0.1-0.3-0.3c-0.1-0.2-0.1-0.3-0.1-0.4
				c0-0.1,0.1-0.3,0.3-0.6c0.2-0.3,0.3-0.5,0.4-0.6c-0.1,0-0.2,0-0.3,0c-0.1,0-0.1-0.1-0.2-0.2c0-0.1,0-0.2,0-0.3
				c0-0.1,0.3-0.1,0.8,0c0.2-0.3,0.3-0.5,0.3-0.7c0-0.1,0.1-0.1,0.2-0.1c0.1,0,0.2,0.1,0.3,0.3c0.1,0.1,0.1,0.3,0.1,0.4
				c0,0.1-0.1,0.2-0.2,0.4c0.2,0,0.3,0.1,0.4,0.1c0.2,0.1,0.3,0.2,0.3,0.3c0,0.1-0.1,0.1-0.3,0.1c-0.2,0-0.4,0-0.7,0
				C40,14.8,39.9,15,39.8,15.1z"/>
			<path class="st0" d="M43.8,16.4c-0.1,0.1-0.2,0.3-0.4,0.5s-0.2,0.3-0.2,0.3c0,0,0,0,0.1,0c0.1,0,0.2,0,0.4,0s0.4,0,0.4,0
				c0.1,0,0.1,0.1,0.1,0.2s-0.2,0.2-0.5,0.3c-0.3,0.1-0.5,0.1-0.8,0c-0.1,0-0.2-0.1-0.3-0.3c-0.1-0.2-0.1-0.3-0.1-0.4
				c0-0.1,0.1-0.3,0.3-0.6c0.2-0.3,0.3-0.5,0.4-0.6c-0.1,0-0.2,0-0.3,0c-0.1,0-0.1-0.1-0.2-0.2c0-0.1,0-0.2,0-0.3
				c0-0.1,0.3-0.1,0.8,0c0.2-0.3,0.3-0.5,0.3-0.7c0-0.1,0.1-0.1,0.2-0.1c0.1,0,0.2,0.1,0.3,0.3s0.1,0.3,0.1,0.4
				c0,0.1-0.1,0.2-0.2,0.4c0.2,0,0.3,0.1,0.4,0.1c0.2,0.1,0.3,0.2,0.3,0.3c0,0.1-0.1,0.1-0.3,0.1c-0.2,0-0.4,0-0.7-0.1
				C44,16.2,43.9,16.3,43.8,16.4z"/>
			<path class="st0" d="M46.1,14.9c0-0.1,0.1-0.2,0.2-0.2c0.1,0,0.2,0.1,0.2,0.3c0.1,0.2,0.1,0.3,0,0.4c0,0.1-0.1,0.2-0.2,0.4
				c-0.1,0.2-0.2,0.3-0.3,0.5c-0.1,0.1-0.2,0.3-0.4,0.6s-0.3,0.4-0.4,0.5c0.3-0.4,0.7-0.6,1-0.8c0.3-0.2,0.6-0.3,0.7-0.2
				c0.1,0,0.2,0.2,0.3,0.4c0.1,0.2,0.1,0.4,0,0.5s-0.1,0.3-0.3,0.6c-0.1,0.2-0.3,0.5-0.5,0.7s-0.4,0.3-0.5,0.2
				c-0.1,0-0.1-0.1-0.1-0.3c0-0.1,0.1-0.3,0.3-0.5c0.2-0.3,0.3-0.5,0.4-0.6c0-0.1,0-0.1,0-0.1c-0.2-0.1-0.6,0.2-1.1,0.7
				c-0.2,0.2-0.3,0.3-0.5,0.4c-0.1,0.1-0.2,0.1-0.3,0.1c-0.1,0-0.1-0.1-0.2-0.3c-0.1-0.2-0.1-0.3-0.1-0.3c0-0.1,0.1-0.2,0.1-0.3
				s0.2-0.3,0.3-0.5s0.4-0.6,0.7-1.2C45.9,15.3,46.1,15,46.1,14.9z"/>
			<path class="st0" d="M49.3,18.7c-0.3,0.1-0.5,0-0.7,0c-0.2-0.1-0.4-0.2-0.5-0.2c-0.1,0.1-0.1,0.2-0.1,0.2c0,0.1,0,0.2,0,0.2
				c0,0,0.1,0.1,0.2,0.1c0.2,0.1,0.5,0.1,0.6,0.1c0.2,0,0.3,0,0.3,0c0.1,0,0.2,0.1,0.2,0.2c0,0.1-0.2,0.2-0.4,0.3s-0.5,0-0.8-0.1
				s-0.5-0.2-0.6-0.5c-0.1-0.2-0.1-0.5,0-0.7c0.1-0.2,0.2-0.5,0.4-0.7c0.2-0.2,0.5-0.4,0.7-0.5c0.3-0.1,0.5-0.1,0.7-0.1
				c0.2,0.1,0.4,0.2,0.5,0.5c0.1,0.3,0.1,0.5,0.1,0.7C49.7,18.5,49.5,18.6,49.3,18.7z M49.2,17.9c0-0.1-0.1-0.1-0.2-0.2
				c-0.1,0-0.2,0-0.3,0.1s-0.2,0.1-0.4,0.2c0,0,0.1,0,0.1,0c0.4,0.1,0.7,0.1,0.7,0C49.2,18,49.2,18,49.2,17.9z"/>
			<path class="st0" d="M53.5,18.6c0.1,0,0.2,0.2,0.2,0.4c0,0.2,0,0.4,0,0.5c0,0.1-0.1,0.3-0.3,0.6c-0.1,0.3-0.3,0.5-0.5,0.7
				c-0.2,0.2-0.4,0.3-0.5,0.3c-0.1,0-0.1-0.1-0.1-0.3s0.2-0.4,0.4-0.7c0.2-0.3,0.3-0.5,0.3-0.6s0-0.2,0-0.2c-0.1,0-0.2,0-0.3,0.1
				c-0.1,0.1-0.3,0.3-0.5,0.5c-0.2,0.2-0.3,0.3-0.4,0.4c-0.1,0.1-0.1,0.1-0.1,0.1c0,0-0.1,0.1-0.1,0.1c-0.2,0.1-0.3,0.1-0.4-0.1
				C51,20.3,51,20.2,51,20.1c0,0,0.1-0.1,0.2-0.3c0.1-0.2,0.2-0.5,0.3-0.8c0-0.1,0-0.2,0-0.2c0,0-0.1,0-0.2,0.1
				c-0.1,0.1-0.2,0.2-0.4,0.3s-0.3,0.3-0.4,0.4c-0.4,0.4-0.7,0.5-0.8,0.5c-0.1,0-0.1-0.1-0.2-0.3c-0.1-0.2-0.1-0.3-0.1-0.3
				c0-0.1,0.1-0.2,0.3-0.4c0.2-0.2,0.3-0.5,0.4-0.7c0.1-0.3,0.2-0.5,0.3-0.6c0.1-0.1,0.1-0.2,0.2-0.2c0.1,0,0.2,0.1,0.3,0.3
				C51,18,51,18.1,51,18.2c-0.1,0.2-0.2,0.5-0.5,0.9c0.4-0.5,0.7-0.8,0.9-0.9c0.2-0.1,0.4-0.2,0.6-0.1c0.1,0,0.2,0.1,0.2,0.3
				c0.1,0.2,0.1,0.4,0,0.5s-0.1,0.2-0.1,0.3c0.2-0.2,0.4-0.4,0.7-0.5C53.1,18.6,53.3,18.5,53.5,18.6z"/>
			<path class="st0" d="M55.6,20.7c-0.3,0.1-0.5,0-0.7,0c-0.2-0.1-0.4-0.2-0.5-0.2c-0.1,0.1-0.1,0.2-0.1,0.2c0,0.1,0,0.2,0,0.2
				c0,0,0.1,0.1,0.2,0.1c0.2,0.1,0.5,0.1,0.6,0.1c0.2,0,0.3,0,0.3,0c0.1,0,0.2,0.1,0.2,0.2c0,0.1-0.2,0.2-0.4,0.3s-0.5,0-0.8-0.1
				c-0.3-0.1-0.5-0.2-0.6-0.5c-0.1-0.2-0.1-0.5,0-0.7c0.1-0.2,0.2-0.5,0.4-0.7c0.2-0.2,0.5-0.4,0.7-0.5c0.3-0.1,0.5-0.1,0.7-0.1
				c0.2,0.1,0.4,0.2,0.5,0.5c0.1,0.3,0.1,0.5,0.1,0.7C56,20.6,55.8,20.7,55.6,20.7z M55.4,20c0-0.1-0.1-0.1-0.2-0.2s-0.2,0-0.3,0.1
				s-0.2,0.1-0.4,0.2c0,0,0.1,0,0.1,0c0.4,0.1,0.7,0.1,0.7,0C55.5,20.1,55.5,20.1,55.4,20z"/>
			<path class="st0" d="M58.1,20.1c0.1,0,0.2,0.2,0.3,0.3s0.1,0.3,0,0.4c0,0.1-0.1,0.1-0.1,0.1c0,0-0.1,0-0.2-0.1
				c-0.1-0.1-0.1-0.1-0.2-0.1c-0.1,0-0.2,0-0.4,0c-0.2,0-0.3,0-0.3,0.1c0,0,0,0.1,0.1,0.2c0.1,0.1,0.1,0.2,0.2,0.3
				c0.1,0.1,0.1,0.2,0.2,0.4c0,0.1,0.1,0.3,0,0.4s-0.2,0.2-0.4,0.3c-0.2,0.1-0.5,0.1-0.8,0c-0.3-0.1-0.5-0.2-0.6-0.4
				c-0.1-0.2-0.2-0.3-0.2-0.5c0-0.1,0.1-0.2,0.2-0.1c0,0,0.1,0,0.1,0.1c0.1,0.1,0.3,0.3,0.6,0.3c0.2,0.1,0.4,0.1,0.4,0
				c0-0.1,0-0.2-0.1-0.3c-0.1-0.1-0.1-0.2-0.2-0.3c-0.1-0.1-0.2-0.2-0.2-0.3c-0.1-0.1-0.1-0.2,0-0.3c0.1-0.2,0.3-0.3,0.7-0.4
				C57.6,20,57.9,20,58.1,20.1z"/>
		</g>
	</g>
</g>
</svg>
