<svg xmlns="http://www.w3.org/2000/svg" viewBox="0 0 50.25 46.41"><defs><style>.cls-1,.cls-2{fill:#fff;}.cls-2{font-size:5.07px;font-family:Kalam-Bold, Kalam;font-weight:700;}</style></defs><g id="Layer_2" data-name="Layer 2"><g id="infoPlayers"><g id="infoArrow"><path class="cls-1" d="M49.86,43.44C40.67,41.87,31.32,38.64,25.42,31a35.37,35.37,0,0,1-3-4.6c-.34-.61-1.28-.06-.94.55a32.06,32.06,0,0,0,6.28,8.22,33.72,33.72,0,0,0,11.58,6.71,60.73,60.73,0,0,0,10.2,2.58c.68.11,1-.93.29-1.05Z"/><path class="cls-1" d="M47.48,46.25A16.88,16.88,0,0,1,50,44.49a.56.56,0,0,0,.19-.75l-1.6-3c-.33-.62-1.27-.07-.94.54l1.61,3,.19-.74a18.67,18.67,0,0,0-2.73,1.93.54.54,0,0,0,0,.77.56.56,0,0,0,.77,0Z"/></g><text class="cls-2" transform="matrix(0.91, -0.42, 0.42, 0.91, 1.86, 16.44)"><tspan xml:space="preserve"> Change the </tspan><tspan x="0" y="6.09">amount of </tspan><tspan x="0" y="12.18" xml:space="preserve">  players</tspan></text></g></g></svg>