<?xml version="1.0" encoding="utf-8"?>
<!-- Generator: Adobe Illustrator 24.1.3, SVG Export Plug-In . SVG Version: 6.00 Build 0)  -->
<svg version="1.1" id="Layer_1" xmlns="http://www.w3.org/2000/svg" xmlns:xlink="http://www.w3.org/1999/xlink" x="0px" y="0px"
	 viewBox="0 0 55.4 47.1" style="enable-background:new 0 0 55.4 47.1;" xml:space="preserve">
<style type="text/css">
	.st0{fill:#FFFFFF;}
	.st1{enable-background:new    ;}
</style>
<g id="Layer_2_1_">
	<g id="infoShuffle">
		<g id="infoArrow">
			<path class="st0" d="M54.8,45c-4.6-1.9-9-4.5-13-7.5c-4.5-3.4-8.5-7.4-11.8-11.9c-1.8-2.5-3.3-5.3-4.5-8.2
				c-0.2-0.6-1.3-0.4-1,0.3c2.1,5.3,5.3,10.2,9.4,14.2c3.9,4.1,8.4,7.6,13.3,10.5c2.3,1.4,4.8,2.6,7.3,3.6
				C55.2,46.3,55.4,45.2,54.8,45z"/>
			<path class="st0" d="M51,47.1l4.1-1c0.3-0.1,0.5-0.4,0.4-0.7c0,0,0-0.1,0-0.1c-0.6-1.3-1.3-2.6-2.1-3.8c-0.4-0.6-1.3,0-0.9,0.5
				c0.8,1.2,1.5,2.5,2.1,3.8l0.3-0.8l-4.1,1C50,46.2,50.3,47.2,51,47.1L51,47.1z"/>
		</g>
		<g class="st1">
			<path class="st0" d="M1.7,10.2c0,0.2,0.1,0.4,0.1,0.7c0,0.3,0,0.5,0,0.7s0,0.4,0,0.6c0,0.2,0,0.4,0,0.5c0,0.1,0,0.3,0,0.4
				c0,0.3-0.1,0.4-0.2,0.4c-0.1,0-0.2,0-0.3-0.1c-0.1-0.1-0.2-0.2-0.2-0.2c0-0.1,0-0.3,0-0.6c0-0.3,0-0.7,0-1.2c0-0.5-0.1-1-0.2-1.5
				c0-0.1,0-0.2,0.1-0.2s0.2,0,0.4,0.1C1.6,10,1.7,10.1,1.7,10.2z"/>
			<path class="st0" d="M3.2,13.2c-0.1,0-0.2,0-0.4-0.1c-0.2-0.1-0.2-0.2-0.3-0.3c0-0.1,0-0.2,0.1-0.3c0.1-0.1,0.1-0.2,0.2-0.2
				c0.1,0,0.2,0.1,0.3,0.2c0.1,0.2,0.2,0.3,0.2,0.4c0,0,0,0.1-0.1,0.2C3.3,13.2,3.2,13.2,3.2,13.2z"/>
			<path class="st0" d="M6,12.5c-0.1,0-0.2,0-0.3-0.1c-0.1-0.1-0.2-0.2-0.2-0.3c0-0.1,0-0.3,0-0.5c0.1-0.8,0.1-1.5,0-2.1
				C5.3,9.4,5.3,9.3,5.3,9.2c0-0.1,0.1-0.2,0.3-0.4S6,8.6,6.3,8.5c0.4-0.1,0.7-0.1,1,0.1C7.6,8.8,7.7,9,7.8,9.3
				c0.1,0.4,0,0.7-0.3,1.1c-0.3,0.4-0.7,0.7-1.2,0.9c0,0.6-0.1,0.9-0.1,1.1C6.1,12.4,6.1,12.5,6,12.5z M7.1,9.4
				c0-0.1-0.1-0.2-0.2-0.2c-0.1-0.1-0.2-0.1-0.3,0c-0.1,0-0.3,0.1-0.5,0.3c0.1,0.1,0.1,0.2,0.2,0.3c0,0.2,0,0.5,0,0.8
				c0.3-0.2,0.5-0.4,0.6-0.6C7.1,9.8,7.1,9.6,7.1,9.4z"/>
			<path class="st0" d="M9.6,9.2c0-0.1,0.1-0.1,0.1-0.2c0.1,0,0.2,0,0.3,0.1c0.1,0.1,0.2,0.2,0.2,0.3c0,0,0,0.3-0.1,0.8
				c-0.1,0.5-0.1,0.9-0.1,1.1c0,0.1-0.1,0.2-0.2,0.3c-0.1,0-0.1,0-0.2,0c-0.1,0-0.1-0.1-0.1-0.2c0-0.1,0-0.3,0-0.5
				c-0.2,0.6-0.5,0.9-0.7,0.9c-0.1,0-0.2,0-0.4-0.1c-0.2-0.1-0.3-0.2-0.3-0.4c-0.1-0.3-0.1-0.7,0-1.3c0.1-0.5,0.2-0.8,0.4-0.8
				c0.1,0,0.2,0,0.3,0.1C8.9,9.5,8.9,9.6,9,9.7c0,0,0,0.2-0.1,0.4c-0.1,0.6-0.2,1-0.1,1.2c0,0,0,0,0,0c0,0,0.1-0.1,0.2-0.3
				c0.1-0.2,0.2-0.4,0.3-0.8C9.5,9.9,9.5,9.5,9.6,9.2z"/>
			<path class="st0" d="M11.6,9.7c0,0.2,0,0.4-0.1,0.6c0,0.3,0,0.4,0,0.4c0,0,0,0,0.1,0s0.2-0.1,0.4-0.2c0.2-0.1,0.3-0.2,0.3-0.2
				c0.1,0,0.1,0,0.2,0.1c0,0.1-0.1,0.3-0.2,0.5c-0.2,0.2-0.4,0.3-0.6,0.4c-0.1,0-0.2,0-0.4-0.1c-0.2-0.1-0.3-0.2-0.3-0.3
				c0-0.1,0-0.3,0-0.7c0-0.3,0.1-0.6,0.1-0.7c-0.1,0.1-0.2,0.1-0.3,0.1c-0.1,0-0.1,0-0.2-0.1c-0.1-0.1-0.1-0.2-0.2-0.2
				c0-0.1,0.2-0.3,0.7-0.4c0-0.3,0-0.6-0.1-0.8c0-0.1,0-0.2,0.1-0.2c0.1,0,0.2,0,0.4,0.1c0.2,0.1,0.2,0.2,0.3,0.3c0,0.1,0,0.2,0,0.4
				c0.2,0,0.3-0.1,0.4-0.1c0.2-0.1,0.4,0,0.4,0.1c0,0.1,0,0.2-0.2,0.2c-0.1,0.1-0.3,0.2-0.6,0.3C11.6,9.4,11.6,9.5,11.6,9.7z"/>
			<path class="st0" d="M14.7,7.3c0-0.1,0-0.2,0.1-0.3c0.1-0.1,0.1-0.2,0.2-0.2c0.1,0,0.2,0.1,0.3,0.2c0.1,0.2,0.2,0.3,0.2,0.4
				c0,0.1,0,0.1,0,0.2c0,0.1-0.1,0.1-0.1,0.1c-0.1,0-0.2,0-0.4-0.1C14.8,7.5,14.8,7.4,14.7,7.3z M14.9,7.9c0.1,0,0.2,0,0.4,0.1
				c0.1,0.1,0.2,0.2,0.2,0.4c0,0.1,0,0.3,0,0.7c0,0.4-0.1,0.8-0.1,1.2c0,0.1-0.1,0.2-0.2,0.2c-0.1,0-0.1,0-0.2,0
				c-0.1,0-0.1-0.1-0.1-0.2c0-0.1,0-0.3,0-0.7c0-0.4,0-0.7,0-0.9c0-0.3,0-0.4,0-0.6C14.9,8,14.9,8,14.9,7.9z"/>
			<path class="st0" d="M17.5,7.4c0.2,0,0.3,0,0.5,0.1c0.2,0.1,0.3,0.3,0.3,0.5c0.1,0.3,0.1,0.6,0.1,0.9s-0.1,0.6-0.1,0.8
				C18.1,9.9,18,10,17.9,10c-0.1,0-0.2,0-0.2-0.2c0-0.1,0-0.4,0-0.8c0-0.3,0-0.5,0-0.7c0-0.1-0.1-0.2-0.1-0.2c0,0-0.1,0-0.1,0.1
				c0,0.1-0.1,0.1-0.1,0.1c0,0,0,0.1-0.1,0.1c0,0.1,0,0.1-0.1,0.2c0,0,0,0.1-0.1,0.2c0,0.1,0,0.1-0.1,0.2c0,0,0,0.1-0.1,0.2
				c-0.2,0.6-0.4,1-0.5,1c-0.1,0-0.2,0-0.3-0.1c-0.1-0.1-0.2-0.2-0.2-0.2c0,0,0-0.1,0-0.3c0-0.1,0-0.2,0-0.3c0-0.1,0-0.1,0-0.2
				c0-0.1,0-0.2,0-0.2c0-0.1,0-0.2,0-0.2c0,0,0-0.1,0-0.2C16,8,16,7.8,16,7.7c0-0.1,0-0.1,0.1-0.1c0.1,0,0.3,0,0.4,0.1
				c0.1,0.1,0.2,0.2,0.2,0.2c0,0.2,0.1,0.5,0,0.9c0.1-0.4,0.3-0.8,0.4-1.1C17.3,7.6,17.4,7.4,17.5,7.4z"/>
			<path class="st0" d="M22.7,7.5c0.1,0,0.1,0.1,0.1,0.1c0,0,0,0.1,0,0.3c0,0.1,0,0.3,0,0.3c0,0.1,0,0.1,0,0.2c0,0,0,0.1,0,0.1
				c0,0,0,0.1,0,0.1c0,0,0,0.1,0,0.1c0,0,0,0,0,0.1c0,0,0,0.1,0,0.1c0,0,0,0,0,0.1c0,0,0,0.1-0.1,0.1c0,0-0.1,0-0.2-0.1
				c-0.1-0.1-0.2-0.2-0.2-0.3c-0.2,0.4-0.5,0.6-0.7,0.6c-0.1,0-0.3,0-0.5-0.1c-0.2-0.1-0.3-0.3-0.3-0.4c0-0.2,0-0.4,0.1-0.7
				C20.9,7.6,21,7.3,21.2,7c0.2-0.3,0.4-0.5,0.7-0.5c0.1,0,0.3,0,0.5,0.1c0.2,0.1,0.3,0.3,0.4,0.4C22.8,7.1,22.8,7.3,22.7,7.5z
				 M21.4,8.6c0.1,0,0.3-0.2,0.5-0.4c0.2-0.2,0.3-0.5,0.3-0.8c0,0,0-0.1,0.1-0.1c0-0.2-0.1-0.3-0.2-0.3c-0.1,0-0.3,0.1-0.4,0.4
				c-0.1,0.2-0.2,0.4-0.3,0.6C21.3,8.3,21.3,8.4,21.4,8.6C21.3,8.6,21.3,8.6,21.4,8.6C21.4,8.6,21.4,8.6,21.4,8.6z"/>
			<path class="st0" d="M23.6,4.9c0.2,0.1,0.2,0.2,0.3,0.4C23.9,5.4,24,5.6,24,6c0,0.3,0,0.6,0,0.8c0,1.3-0.1,1.9-0.2,1.9
				c-0.1,0-0.2,0-0.3-0.1s-0.2-0.2-0.2-0.3c0,0,0-0.2,0-0.5c0-0.4,0-0.8,0-1.4c0-0.6-0.1-1.1-0.2-1.6c0-0.1,0-0.2,0.1-0.2
				C23.4,4.7,23.5,4.7,23.6,4.9z"/>
			<path class="st0" d="M24.9,4.6c0.2,0.1,0.2,0.2,0.3,0.4s0.1,0.4,0.1,0.7c0,0.3,0,0.6,0,0.8c0,1.3-0.1,1.9-0.2,1.9
				c-0.1,0-0.2,0-0.3-0.1s-0.2-0.2-0.2-0.3c0,0,0-0.2,0-0.5c0-0.4,0-0.8,0-1.4c0-0.6-0.1-1.1-0.2-1.6c0-0.1,0-0.2,0.1-0.2
				C24.7,4.4,24.8,4.5,24.9,4.6z"/>
			<path class="st0" d="M29.2,4.9c0.1,0,0.3,0.1,0.5,0.2S30,5.5,30,5.7c0,0.1,0,0.3-0.1,0.5c-0.1,0.2-0.2,0.4-0.3,0.6
				c-0.1,0.2-0.3,0.4-0.5,0.5c-0.2,0.2-0.4,0.3-0.6,0.3l-0.1,0c0,0.9-0.1,1.4-0.2,1.4c-0.1,0-0.2,0-0.3-0.1
				c-0.1-0.1-0.2-0.2-0.2-0.3s0-0.3,0-0.7c0-1.2,0-2.1-0.1-2.7c0-0.1,0-0.2,0.1-0.2c0.1,0,0.2,0,0.3,0.1c0.1,0.1,0.2,0.2,0.3,0.3
				C28.7,5.1,29,4.9,29.2,4.9z M29.2,6.5c0.2-0.3,0.3-0.5,0.2-0.7c0-0.2-0.1-0.2-0.2-0.2c-0.1,0-0.3,0.1-0.4,0.3
				c0,0.1-0.1,0.2-0.1,0.3c0,0.1-0.1,0.3-0.1,0.5l0,0.3C28.8,7,29,6.8,29.2,6.5z"/>
			<path class="st0" d="M30.9,3.3c0.2,0.1,0.2,0.2,0.3,0.4s0.1,0.4,0.1,0.7c0,0.3,0,0.6,0,0.8c0,1.3-0.1,1.9-0.2,1.9
				c-0.1,0-0.2,0-0.3-0.1c-0.1-0.1-0.2-0.2-0.2-0.3c0,0,0-0.2,0-0.5c0-0.4,0-0.8,0-1.4c0-0.6-0.1-1.1-0.2-1.6c0-0.1,0-0.2,0.1-0.2
				C30.6,3.1,30.7,3.2,30.9,3.3z"/>
			<path class="st0" d="M33.8,5.1c0.1,0,0.1,0.1,0.1,0.1c0,0,0,0.1,0,0.3c0,0.1,0,0.3,0,0.3c0,0.1,0,0.1,0,0.2c0,0,0,0.1,0,0.1
				c0,0,0,0.1,0,0.1c0,0,0,0.1,0,0.1c0,0,0,0,0,0.1c0,0,0,0.1,0,0.1c0,0,0,0,0,0.1c0,0,0,0.1-0.1,0.1c0,0-0.1,0-0.2-0.1
				c-0.1-0.1-0.2-0.2-0.2-0.3c-0.2,0.4-0.5,0.6-0.7,0.6c-0.1,0-0.3,0-0.5-0.1c-0.2-0.1-0.3-0.3-0.3-0.4c0-0.2,0-0.4,0.1-0.7
				c0.1-0.3,0.2-0.6,0.4-0.9c0.2-0.3,0.4-0.5,0.7-0.5c0.1,0,0.3,0,0.5,0.1c0.2,0.1,0.3,0.3,0.4,0.4C33.9,4.8,33.8,4.9,33.8,5.1z
				 M32.5,6.2c0.1,0,0.3-0.2,0.5-0.4c0.2-0.2,0.3-0.5,0.3-0.8c0,0,0-0.1,0.1-0.1c0-0.2-0.1-0.3-0.2-0.3c-0.1,0-0.3,0.1-0.4,0.4
				s-0.2,0.4-0.3,0.6C32.4,5.9,32.4,6.1,32.5,6.2C32.4,6.2,32.4,6.2,32.5,6.2C32.4,6.2,32.5,6.2,32.5,6.2z"/>
			<path class="st0" d="M35.8,3.6c0-0.1,0-0.1,0.1-0.2c0.1,0,0.2,0,0.3,0.1c0.1,0.1,0.2,0.2,0.2,0.4c0,0.1,0,0.2,0,0.4
				c0,0.2,0,0.3,0,0.4c0,0.1,0,0.2,0,0.3c0,0.1,0,0.3,0,0.4c0,0.1,0,0.3-0.1,0.5c0,0.2,0,0.4-0.1,0.6c0,0.3-0.1,0.6-0.2,0.8
				c-0.1,0.2-0.3,0.3-0.5,0.4c-0.2,0.1-0.5,0-0.7-0.1c-0.2-0.1-0.3-0.2-0.4-0.3c0-0.1,0-0.2,0-0.3c0-0.1,0.1-0.2,0.1-0.2
				c0,0,0.1,0,0.2,0.1C35,6.9,35.1,7,35.2,7.1c0.1,0.1,0.2,0.1,0.2,0.1c0,0,0.1,0,0.1-0.1c0,0,0-0.1,0-0.1s0-0.1,0-0.1
				c0-0.1,0-0.1,0-0.2c0-0.1,0-0.1,0-0.2s0-0.2,0-0.2c0-0.2,0-0.4,0-0.5c-0.1,0.2-0.2,0.3-0.3,0.4c-0.1,0.1-0.2,0.2-0.3,0.2
				c-0.1,0-0.2,0-0.4-0.1c-0.2-0.1-0.3-0.3-0.3-0.4c0-0.2-0.1-0.4,0-0.7c0-0.3,0.1-0.6,0.1-0.9c0.1-0.3,0.1-0.4,0.2-0.4
				c0.1,0,0.2,0,0.3,0.1c0.1,0.1,0.2,0.1,0.2,0.2c0,0.1,0,0.2,0,0.4c0,0.2-0.1,0.4-0.1,0.6c0,0.2,0,0.4,0,0.6c0,0,0,0,0,0
				c0,0,0.1-0.1,0.2-0.3c0.1-0.2,0.2-0.5,0.3-0.8C35.7,4.2,35.8,3.9,35.8,3.6z"/>
			<path class="st0" d="M38.7,4.3c-0.2,0.2-0.4,0.3-0.6,0.3c-0.2,0-0.4,0.1-0.6,0.1c0,0.1,0,0.2,0,0.3c0,0.1,0,0.1,0.1,0.2
				c0,0,0.1,0,0.2,0C38.1,5.1,38.3,5,38.5,5c0.2-0.1,0.3-0.1,0.3-0.1c0.1,0,0.2,0,0.2,0.1c0,0.1-0.1,0.3-0.2,0.4
				c-0.2,0.2-0.4,0.3-0.7,0.3c-0.3,0.1-0.5,0-0.7-0.1S36.9,5.2,36.9,5s0-0.5,0-0.8c0.1-0.3,0.2-0.5,0.4-0.8s0.4-0.4,0.6-0.4
				c0.2,0,0.4,0,0.7,0.2c0.2,0.2,0.4,0.4,0.4,0.6C39,3.9,38.9,4.1,38.7,4.3z M38.2,3.7c-0.1,0-0.2-0.1-0.2-0.1
				c-0.1,0-0.1,0.1-0.2,0.2c-0.1,0.1-0.1,0.2-0.2,0.4c0,0,0.1,0,0.1,0c0.5-0.1,0.7-0.2,0.6-0.4C38.4,3.8,38.3,3.7,38.2,3.7z"/>
			<path class="st0" d="M39.4,3.6L39.3,3c0-0.2,0-0.3,0.1-0.3c0.1,0,0.1,0,0.2,0c0.1,0,0.1,0.1,0.2,0.2c0.1-0.1,0.2-0.2,0.3-0.3
				c0.1-0.1,0.2-0.1,0.3-0.2c0.2-0.1,0.4,0,0.4,0.1c0,0.1,0,0.1,0,0.1c0,0,0,0.1,0,0.1c0,0,0,0,0,0.1c0,0,0,0-0.1,0.1
				C40.6,3,40.6,3,40.6,3c-0.1,0.1-0.2,0.3-0.3,0.4c-0.1,0.2-0.1,0.4-0.1,0.6c0,0.4,0,0.7-0.1,0.9c0,0.2-0.1,0.3-0.2,0.3
				c-0.1,0-0.2,0-0.3-0.1c-0.1-0.1-0.1-0.2-0.1-0.3c0-0.1,0-0.2,0-0.4c0-0.2,0-0.4,0-0.5C39.5,3.9,39.5,3.7,39.4,3.6z"/>
			<path class="st0" d="M42.3,2.1c0.1,0,0.3,0,0.4,0.1C42.9,2.3,43,2.5,43,2.6c0,0.1,0,0.1-0.1,0.1c0,0-0.1,0-0.2,0
				c-0.1,0-0.2,0-0.2,0s-0.2,0.1-0.3,0.2C42.1,3,42,3,42,3.1c0,0,0.1,0.1,0.2,0.1c0.1,0,0.2,0.1,0.3,0.1c0.1,0,0.2,0.1,0.4,0.2
				c0.1,0.1,0.2,0.2,0.2,0.4c0,0.1,0,0.3-0.2,0.5c-0.2,0.2-0.4,0.3-0.7,0.4c-0.3,0.1-0.5,0-0.7,0c-0.2-0.1-0.3-0.2-0.4-0.3
				c0-0.1,0-0.2,0.1-0.2c0,0,0.1,0,0.2,0c0.2,0.1,0.4,0.1,0.6,0c0.2-0.1,0.4-0.1,0.3-0.2c0-0.1-0.1-0.1-0.2-0.2
				c-0.1-0.1-0.2-0.1-0.4-0.2c-0.1,0-0.2-0.1-0.4-0.2c-0.1-0.1-0.2-0.2-0.2-0.3c0-0.2,0.1-0.4,0.4-0.7C41.9,2.3,42.2,2.1,42.3,2.1z"
				/>
		</g>
		<g class="st1">
			<path class="st0" d="M2.9,18.7c0.6-0.2,1-0.4,1.3-0.5c0.3-0.1,0.5,0,0.5,0.1c0,0.1-0.2,0.3-0.7,0.6c-0.5,0.3-0.9,0.4-1.2,0.5
				c-0.1,0-0.3,0-0.5-0.1c-0.2-0.1-0.3-0.2-0.3-0.3c0-0.1,0.2-0.3,0.5-0.8C2.7,18,2.9,17.8,3,17.6c0.1-0.2,0.3-0.4,0.3-0.6
				c0.1-0.2,0.1-0.4,0.1-0.5c0-0.1-0.1-0.2-0.2-0.2c-0.1,0-0.2,0.1-0.2,0.2c-0.1,0.1-0.1,0.2-0.1,0.3c0,0.1,0,0.1-0.1,0.1
				c-0.1,0-0.2,0-0.4-0.1c-0.2-0.1-0.2-0.1-0.2-0.2c0-0.2,0-0.4,0.2-0.6c0.2-0.2,0.4-0.3,0.7-0.4c0.3-0.1,0.5,0,0.7,0.1
				s0.3,0.3,0.4,0.6c0.1,0.4,0,0.8-0.2,1.2C3.7,18,3.4,18.4,2.9,18.7z"/>
			<path class="st0" d="M5.8,18.9c-0.1,0-0.2,0-0.4-0.1c-0.2-0.1-0.2-0.2-0.3-0.3c0-0.1,0-0.2,0.1-0.3C5.3,18.1,5.4,18,5.4,18
				c0.1,0,0.2,0.1,0.3,0.2C5.9,18.4,6,18.5,6,18.6c0,0,0,0.1-0.1,0.2C5.9,18.9,5.9,18.9,5.8,18.9z"/>
			<path class="st0" d="M10.4,16.8c0.1,0.3,0,0.6-0.2,0.8C10,17.8,9.7,18,9.3,18.1c-0.3,0.1-0.6,0-0.9-0.1c-0.2-0.1-0.4-0.3-0.4-0.5
				c0-0.2,0-0.3,0.1-0.3c0.1,0,0.2,0,0.3,0.1c0.1,0.1,0.2,0.1,0.3,0.2c0.1,0.1,0.3,0.1,0.4,0c0.1,0,0.3-0.1,0.4-0.3
				c0.1-0.1,0.2-0.3,0.2-0.3c0-0.1-0.1-0.2-0.4-0.3c-0.2-0.1-0.5-0.3-0.7-0.4c-0.2-0.1-0.4-0.3-0.4-0.4c0-0.1,0-0.2,0-0.4
				c0-0.1,0-0.2,0.1-0.3c0.1-0.2,0.3-0.4,0.6-0.6c0.3-0.2,0.5-0.3,0.7-0.4c0.1,0,0.2,0,0.3,0.1c0.1,0.1,0.2,0.2,0.2,0.3
				c0,0,0,0.1-0.1,0.1c-0.1,0-0.2,0.1-0.3,0.2c-0.1,0.1-0.3,0.1-0.4,0.2C9.1,15.3,9,15.4,9,15.5c0,0,0.1,0.1,0.2,0.2
				c0.1,0.1,0.3,0.2,0.5,0.2c0.2,0.1,0.3,0.2,0.5,0.4C10.3,16.4,10.4,16.6,10.4,16.8z"/>
			<path class="st0" d="M10.9,13.8c0-0.1,0-0.2,0.1-0.2c0.1,0,0.2,0,0.4,0.2c0.1,0.1,0.2,0.2,0.3,0.3c0,0.1,0,0.3,0,0.5
				c0,0.2,0,0.4,0,0.6c0,0.2,0,0.4-0.1,0.7c0,0.3,0,0.5-0.1,0.7c0.1-0.5,0.3-0.9,0.5-1.2c0.2-0.3,0.4-0.5,0.5-0.5
				c0.1,0,0.2,0,0.4,0.2c0.2,0.2,0.3,0.3,0.3,0.4c0,0.1,0,0.4,0.1,0.6c0,0.3,0,0.6-0.1,0.9c-0.1,0.3-0.2,0.4-0.3,0.5
				c-0.1,0-0.2,0-0.2-0.2c0-0.1,0-0.3,0-0.6c0-0.4,0-0.6,0-0.7c0-0.1,0-0.1-0.1-0.1c-0.2,0-0.4,0.4-0.6,1.1
				c-0.1,0.2-0.1,0.4-0.2,0.6c-0.1,0.1-0.1,0.2-0.2,0.2c-0.1,0-0.2,0-0.3-0.1c-0.1-0.1-0.2-0.2-0.2-0.3c0-0.1,0-0.2,0-0.3
				c0-0.1,0-0.3,0-0.6c0-0.3,0-0.7,0-1.4C10.9,14.3,10.9,13.9,10.9,13.8z"/>
			<path class="st0" d="M15.1,14.3c0-0.1,0.1-0.1,0.1-0.2c0.1,0,0.2,0,0.3,0.1s0.2,0.2,0.2,0.3c0,0,0,0.3-0.1,0.8
				c-0.1,0.5-0.1,0.9-0.1,1.1c0,0.1-0.1,0.2-0.2,0.3c-0.1,0-0.1,0-0.2,0c-0.1,0-0.1-0.1-0.1-0.2c0-0.1,0-0.3,0-0.5
				c-0.2,0.6-0.5,0.9-0.7,0.9c-0.1,0-0.2,0-0.4-0.1c-0.2-0.1-0.3-0.2-0.3-0.4c-0.1-0.3-0.1-0.7,0-1.3c0.1-0.5,0.2-0.8,0.4-0.8
				c0.1,0,0.2,0,0.3,0.1c0.1,0.1,0.2,0.2,0.2,0.3c0,0,0,0.2-0.1,0.4c-0.1,0.6-0.2,1-0.1,1.2c0,0,0,0,0,0c0,0,0.1-0.1,0.2-0.3
				c0.1-0.2,0.2-0.4,0.3-0.8C15,14.9,15,14.6,15.1,14.3z"/>
			<path class="st0" d="M17.6,13.2c0-0.1-0.1-0.1-0.1-0.2c0-0.1-0.1-0.1-0.1-0.1s-0.1,0-0.1,0.1c0,0.1,0,0.2-0.1,0.3
				c0,0.2,0,0.5,0,0.8c0.2-0.1,0.4-0.1,0.6-0.1c0.1,0,0.2,0,0.3,0c0.1,0,0.1,0.1,0.1,0.1c0,0.1-0.1,0.2-0.2,0.3
				c-0.2,0.1-0.4,0.2-0.8,0.3c0,0.7,0,1.2-0.1,1.4c0,0.2-0.1,0.3-0.2,0.3c-0.1,0-0.1,0-0.3-0.1c-0.1-0.1-0.2-0.2-0.2-0.2
				c0-0.1,0-0.1,0-0.2c0-0.3,0.1-0.6,0.1-0.9c-0.1,0-0.2,0.1-0.3,0.1c-0.1,0-0.2,0-0.3-0.1c-0.1-0.1-0.1-0.1-0.2-0.2
				c0-0.1,0.2-0.3,0.6-0.5c0-0.7,0-1.1,0.1-1.5c0.1-0.3,0.3-0.5,0.7-0.6c0.2,0,0.3,0,0.5,0.1c0.2,0.1,0.3,0.3,0.3,0.5
				c0,0.1,0,0.2,0,0.3s-0.1,0.1-0.1,0.2c-0.1,0-0.1,0-0.2-0.1C17.6,13.3,17.6,13.3,17.6,13.2z"/>
			<path class="st0" d="M18.3,14.4c-0.1,0-0.2,0-0.3-0.1c-0.1-0.1-0.1-0.1-0.2-0.2c0-0.1,0.1-0.2,0.5-0.3c0-0.3-0.1-0.6-0.1-0.8
				c0-0.2,0-0.4,0.1-0.6c0.1-0.2,0.2-0.3,0.4-0.3c0.2,0,0.3,0,0.5,0.1c0.1,0.1,0.2,0.2,0.2,0.3c0,0.1,0,0.1,0,0.2
				c0,0.1-0.1,0.1-0.1,0.1c-0.1,0-0.1,0-0.2,0c-0.1,0-0.1,0-0.1,0c0,0-0.1,0.1-0.1,0.2c0,0.1,0,0.2,0,0.4c0,0.1,0.1,0.3,0.1,0.4
				c0.6-0.2,0.8-0.5,0.7-0.8c0-0.2-0.1-0.4-0.1-0.6c0-0.2,0-0.3,0.1-0.3c0.1,0,0.2,0,0.4,0.1c0.1,0.1,0.2,0.2,0.2,0.3
				c0,0.1,0.1,0.4,0.1,0.7c0,0.4,0,0.8,0,1.2c0,0.4,0,0.8-0.1,1.1c-0.1,0.3-0.1,0.5-0.3,0.5c-0.1,0-0.2,0-0.2-0.1
				c-0.1-0.1-0.1-0.2-0.2-0.3c0-0.1,0-0.3,0-0.7c0-0.3,0.1-0.7,0.1-1.1c-0.2,0.2-0.4,0.4-0.8,0.5c0,0.5,0,0.9,0,1.3
				c0,0.4-0.1,0.6-0.3,0.6c-0.1,0-0.1,0-0.2-0.1c-0.1-0.1-0.2-0.2-0.2-0.3c0,0,0-0.2,0-0.4C18.4,15.1,18.4,14.8,18.3,14.4L18.3,14.4
				z"/>
			<path class="st0" d="M22.6,14c-0.2,0.2-0.4,0.3-0.6,0.3c-0.2,0-0.4,0.1-0.6,0.1c0,0.1,0,0.2,0,0.3c0,0.1,0,0.2,0.1,0.2
				c0,0,0.1,0,0.2,0c0.2-0.1,0.5-0.1,0.6-0.2c0.2-0.1,0.3-0.1,0.3-0.1c0.1,0,0.2,0,0.2,0.1c0,0.1-0.1,0.3-0.2,0.4
				c-0.2,0.2-0.4,0.3-0.7,0.3c-0.3,0.1-0.5,0-0.7-0.1c-0.2-0.1-0.3-0.3-0.4-0.6c-0.1-0.2,0-0.5,0-0.8c0.1-0.3,0.2-0.5,0.4-0.8
				c0.2-0.2,0.4-0.4,0.6-0.4c0.2,0,0.4,0,0.6,0.2c0.2,0.2,0.4,0.4,0.4,0.6C22.9,13.6,22.8,13.8,22.6,14z M22.1,13.4
				c-0.1,0-0.2-0.1-0.2-0.1c-0.1,0-0.1,0.1-0.2,0.2c-0.1,0.1-0.1,0.2-0.2,0.4c0,0,0.1,0,0.1,0c0.5-0.1,0.7-0.2,0.6-0.4
				C22.3,13.5,22.2,13.4,22.1,13.4z"/>
			<path class="st0" d="M27.1,12.8c0.1,0,0.1,0.1,0.1,0.1s0,0.1,0,0.3c0,0.1,0,0.3,0,0.3c0,0.1,0,0.1,0,0.2c0,0,0,0.1,0,0.1
				c0,0,0,0.1,0,0.1c0,0,0,0.1,0,0.1c0,0,0,0,0,0.1c0,0,0,0.1,0,0.1c0,0,0,0,0,0.1c0,0,0,0.1-0.1,0.1s-0.1,0-0.2-0.1
				c-0.1-0.1-0.2-0.2-0.2-0.3c-0.2,0.4-0.5,0.6-0.7,0.6c-0.1,0-0.3,0-0.5-0.1c-0.2-0.1-0.3-0.3-0.3-0.4c0-0.2,0-0.4,0.1-0.7
				c0.1-0.3,0.2-0.6,0.4-0.9c0.2-0.3,0.4-0.5,0.7-0.5c0.1,0,0.3,0,0.5,0.1c0.2,0.1,0.3,0.3,0.4,0.4S27.2,12.6,27.1,12.8z M25.9,13.9
				c0.1,0,0.3-0.2,0.5-0.4c0.2-0.2,0.3-0.5,0.3-0.8c0,0,0-0.1,0.1-0.1c-0.1-0.2-0.1-0.3-0.2-0.3c-0.1,0-0.3,0.1-0.4,0.4
				c-0.1,0.2-0.2,0.4-0.3,0.6C25.8,13.6,25.7,13.7,25.9,13.9C25.8,13.9,25.8,13.9,25.9,13.9C25.8,13.9,25.8,13.9,25.9,13.9z"/>
			<path class="st0" d="M28.1,10.1c0.2,0.1,0.2,0.2,0.3,0.4c0,0.1,0.1,0.4,0.1,0.7c0,0.3,0,0.6,0,0.8c0,1.3-0.1,1.9-0.2,1.9
				c-0.1,0-0.2,0-0.3-0.1c-0.1-0.1-0.2-0.2-0.2-0.3c0,0,0-0.2,0-0.5c0-0.4,0-0.8,0-1.4c0-0.5-0.1-1.1-0.2-1.6c0-0.1,0-0.2,0.1-0.2
				C27.8,10,27.9,10,28.1,10.1z"/>
			<path class="st0" d="M29.4,9.9c0.2,0.1,0.2,0.2,0.3,0.4c0,0.1,0.1,0.4,0.1,0.7c0,0.3,0.1,0.6,0.1,0.8c0,1.3-0.1,1.9-0.2,1.9
				c-0.1,0-0.2,0-0.3-0.1c-0.1-0.1-0.2-0.2-0.2-0.3c0,0,0-0.2,0-0.5c0-0.4,0-0.8,0-1.4c0-0.5-0.1-1.1-0.2-1.6c0-0.1,0-0.2,0.1-0.2
				C29.1,9.7,29.2,9.7,29.4,9.9z"/>
			<path class="st0" d="M33.2,11.3c0,0.2,0,0.4-0.1,0.6c0,0.3,0,0.4,0,0.4c0,0,0,0,0.1,0c0.1,0,0.2-0.1,0.4-0.2
				c0.2-0.1,0.3-0.2,0.3-0.2c0.1,0,0.1,0,0.2,0.1s-0.1,0.3-0.2,0.5c-0.2,0.2-0.4,0.3-0.6,0.4c-0.1,0-0.2,0-0.4-0.1
				c-0.2-0.1-0.3-0.2-0.3-0.3c0-0.1,0-0.3,0-0.7c0-0.3,0.1-0.6,0.1-0.7c-0.1,0.1-0.2,0.1-0.3,0.1s-0.1,0-0.2-0.1
				c-0.1-0.1-0.1-0.2-0.2-0.2c0-0.1,0.2-0.2,0.7-0.4c0-0.3,0-0.6-0.1-0.8c0-0.1,0-0.2,0.1-0.2c0.1,0,0.2,0,0.4,0.1s0.2,0.2,0.3,0.3
				c0,0.1,0,0.2,0,0.4c0.2,0,0.3-0.1,0.4-0.1c0.2-0.1,0.4,0,0.4,0.1c0,0.1,0,0.2-0.2,0.2c-0.1,0.1-0.3,0.2-0.6,0.3
				C33.3,11,33.3,11.1,33.2,11.3z"/>
			<path class="st0" d="M36.3,11c-0.2,0.2-0.4,0.3-0.6,0.3c-0.2,0-0.4,0.1-0.6,0.1c0,0.1,0,0.2,0,0.3c0,0.1,0,0.2,0.1,0.2
				c0,0,0.1,0,0.2,0c0.2-0.1,0.5-0.1,0.6-0.2c0.2-0.1,0.3-0.1,0.3-0.1c0.1,0,0.2,0,0.2,0.1c0,0.1-0.1,0.3-0.2,0.4
				c-0.2,0.2-0.4,0.3-0.7,0.3s-0.5,0-0.7-0.1c-0.2-0.1-0.3-0.3-0.4-0.6c-0.1-0.2,0-0.5,0.1-0.8c0.1-0.3,0.2-0.5,0.4-0.8
				c0.2-0.2,0.4-0.4,0.6-0.4c0.2,0,0.4,0,0.6,0.2c0.2,0.2,0.4,0.4,0.4,0.6C36.6,10.7,36.5,10.9,36.3,11z M35.8,10.5
				c-0.1,0-0.2-0.1-0.2-0.1c-0.1,0-0.1,0.1-0.2,0.2c-0.1,0.1-0.1,0.2-0.2,0.4c0,0,0.1,0,0.1,0c0.5-0.1,0.7-0.2,0.6-0.4
				C35.9,10.5,35.9,10.5,35.8,10.5z"/>
			<path class="st0" d="M38.9,10.3c0.1,0,0.1,0.1,0.1,0.1c0,0,0,0.1,0,0.3c0,0.1,0,0.3,0,0.3c0,0.1,0,0.1,0,0.2s0,0.1,0,0.1
				c0,0,0,0.1,0,0.1c0,0,0,0.1,0,0.1c0,0,0,0,0,0.1c0,0,0,0.1,0,0.1c0,0,0,0,0,0.1c0,0,0,0.1-0.1,0.1c0,0-0.1,0-0.2-0.1
				c-0.1-0.1-0.2-0.2-0.2-0.3c-0.2,0.4-0.5,0.6-0.7,0.6c-0.1,0-0.3,0-0.5-0.1c-0.2-0.1-0.3-0.3-0.3-0.4c0-0.2,0-0.4,0.1-0.7
				c0.1-0.3,0.2-0.6,0.4-0.9c0.2-0.3,0.4-0.5,0.7-0.5c0.1,0,0.3,0,0.5,0.1s0.3,0.3,0.4,0.4C39,9.9,38.9,10.1,38.9,10.3z M37.6,11.4
				c0.1,0,0.3-0.2,0.5-0.4c0.2-0.2,0.3-0.5,0.3-0.8c0,0,0-0.1,0.1-0.1c-0.1-0.2-0.1-0.3-0.2-0.3c-0.1,0-0.3,0.1-0.4,0.4
				c-0.1,0.2-0.2,0.4-0.3,0.6C37.5,11.1,37.5,11.2,37.6,11.4C37.5,11.3,37.5,11.4,37.6,11.4C37.6,11.4,37.6,11.4,37.6,11.4z"/>
			<path class="st0" d="M42.4,8.3c0.1,0,0.3,0,0.4,0.2C42.9,8.6,43,8.8,43,8.9c0,0.1,0,0.4,0.1,0.7c0,0.3,0,0.6-0.1,0.9
				c-0.1,0.3-0.2,0.4-0.3,0.5c-0.1,0-0.2,0-0.2-0.2c0-0.1,0-0.4,0-0.8c0-0.4,0-0.6,0-0.7c0-0.1-0.1-0.2-0.1-0.1
				c-0.1,0-0.1,0.1-0.2,0.3c-0.1,0.2-0.1,0.4-0.2,0.7c-0.1,0.3-0.1,0.5-0.1,0.5c0,0.1,0,0.1,0,0.2c0,0,0,0.1,0,0.1
				c-0.1,0.2-0.2,0.2-0.4,0.1c-0.1-0.1-0.2-0.1-0.2-0.2c0,0,0-0.1,0-0.4c0-0.3,0-0.5-0.1-0.8c0-0.1-0.1-0.2-0.1-0.2
				c0,0-0.1,0.1-0.1,0.1c0,0.1-0.1,0.3-0.2,0.5c-0.1,0.2-0.1,0.4-0.2,0.6c-0.2,0.5-0.3,0.8-0.5,0.8c-0.1,0-0.2,0-0.3-0.1
				c-0.1-0.1-0.2-0.2-0.2-0.2c0-0.1,0-0.2,0-0.5c0-0.3,0-0.5,0-0.8s-0.1-0.5-0.1-0.7c0-0.2,0-0.2,0.1-0.3c0.1,0,0.3,0,0.4,0.1
				c0.1,0.1,0.2,0.2,0.2,0.2c0,0.2,0,0.6,0,1.1c0.1-0.6,0.2-1,0.3-1.2c0.1-0.2,0.3-0.4,0.4-0.4c0.1,0,0.2,0,0.4,0.2
				c0.2,0.1,0.3,0.3,0.3,0.4s0.1,0.3,0.1,0.4c0-0.3,0.2-0.6,0.3-0.8C42,8.5,42.2,8.3,42.4,8.3z"/>
			<path class="st0" d="M44.7,7.8c0.1,0,0.3,0,0.4,0.1c0.2,0.1,0.2,0.2,0.3,0.4c0,0.1,0,0.1-0.1,0.1c0,0-0.1,0-0.2,0
				c-0.1,0-0.2,0-0.2,0c-0.1,0-0.2,0.1-0.3,0.2c-0.1,0.1-0.2,0.2-0.2,0.3c0,0,0.1,0.1,0.2,0.1c0.1,0,0.2,0.1,0.3,0.1
				c0.1,0,0.2,0.1,0.4,0.2c0.1,0.1,0.2,0.2,0.2,0.4c0,0.1,0,0.3-0.2,0.5s-0.4,0.3-0.7,0.4c-0.3,0.1-0.5,0-0.7,0
				c-0.2-0.1-0.3-0.2-0.4-0.3c0-0.1,0-0.2,0.1-0.2c0,0,0.1,0,0.2,0c0.2,0.1,0.4,0.1,0.7,0c0.2-0.1,0.4-0.1,0.3-0.2
				c0-0.1-0.1-0.1-0.2-0.2c-0.1-0.1-0.2-0.1-0.4-0.2c-0.1,0-0.2-0.1-0.4-0.2c-0.1-0.1-0.2-0.2-0.2-0.3c0-0.2,0.1-0.4,0.4-0.7
				C44.3,8,44.5,7.9,44.7,7.8z"/>
		</g>
	</g>
</g>
</svg>
