<svg xmlns="http://www.w3.org/2000/svg" viewBox="0 0 55.44 47.09"><defs><style>.cls-1,.cls-2{fill:#fff;}.cls-2{font-size:5.07px;font-family:Kalam-Bold, Kalam;font-weight:700;}</style></defs><g id="Layer_2" data-name="Layer 2"><g id="infoShuffle"><g id="infoArrow"><path class="cls-1" d="M54.8,45a56.5,56.5,0,0,1-13-7.53A55.85,55.85,0,0,1,30,25.54a37.5,37.5,0,0,1-4.49-8.22c-.24-.65-1.29-.37-1,.29a42.82,42.82,0,0,0,9.39,14.23A63.39,63.39,0,0,0,47.17,42.38,52.31,52.31,0,0,0,54.51,46c.65.26.93-.79.29-1Z"/><path class="cls-1" d="M51,47.08l4.08-1a.55.55,0,0,0,.32-.8,37.23,37.23,0,0,0-2.11-3.81c-.37-.59-1.31,0-.94.55a37.23,37.23,0,0,1,2.11,3.81l.33-.8-4.08,1c-.68.16-.39,1.21.29,1Z"/></g><text class="cls-2" transform="matrix(0.98, -0.21, 0.21, 0.98, 0.93, 13.69)">1. Put in all players<tspan x="0" y="6.09">2. Shuffle all teams</tspan></text></g></g></svg>