<?xml version="1.0" encoding="utf-8"?>
<!-- Generator: Adobe Illustrator 24.1.2, SVG Export Plug-In . SVG Version: 6.00 Build 0)  -->
<svg version="1.1" id="Layer_1" xmlns="http://www.w3.org/2000/svg" xmlns:xlink="http://www.w3.org/1999/xlink" x="0px" y="0px"
	 viewBox="0 0 16 26" style="enable-background:new 0 0 16 26;" xml:space="preserve">
<style type="text/css">
	.st0{fill:#EBB683;}
	.st1{fill:#CD814F;}
	.st2{fill:#9A2C18;}
	.st3{fill:#EA8867;}
	.st4{fill:#C7472B;}
	.st5{fill:#904830;}
</style>
<g>
	<path class="st0" d="M14,0v2H2V0H14z M16,2h-2v2h2V2z M2,2H0v2h2V2z"/>
	<g>
		<polygon class="st1" points="16,4 16,14 14,14 14,16 2,16 2,14 0,14 0,4 2,4 2,2 14,2 14,4 		"/>
	</g>
	<rect x="4" y="18" class="st2" width="8" height="2"/>
	<path class="st3" d="M10,22v2H6v-2H10z M6,24H4v2h2V24z M12,24h-2v2h2V24z"/>
	<polygon class="st4" points="12,20 12,24 10,24 10,22 6,22 6,24 4,24 4,20 	"/>
	<path class="st5" d="M2,16H0v-2h2V16z M16,14h-2v2h2V14z M2,16v2h12v-2H2z"/>
</g>
<polygon class="st0" points="11.2,7.3 11.2,6 12.5,6 12.5,4.7 11.2,4.7 9.9,4.7 8.6,4.7 7.4,4.7 6.1,4.7 4.8,4.7 4.8,6 6.1,6 7.4,6 
	8.6,6 8.6,7.3 7.4,7.3 7.4,8.5 6.1,8.5 6.1,9.8 7.4,9.8 8.6,9.8 9.9,9.8 9.9,11.1 9.9,12.4 8.6,12.4 7.4,12.4 6.1,12.4 6.1,11.1 
	4.8,11.1 3.5,11.1 3.5,12.4 4.8,12.4 4.8,13.6 6.1,13.6 7.4,13.6 8.6,13.6 9.9,13.6 11.2,13.6 11.2,12.4 12.5,12.4 12.5,11.1 
	12.5,9.8 11.2,9.8 11.2,8.5 9.9,8.5 9.9,7.3 "/>
</svg>
