<?xml version="1.0" encoding="utf-8"?>
<!-- Generator: Adobe Illustrator 24.1.2, SVG Export Plug-In . SVG Version: 6.00 Build 0)  -->
<svg version="1.1" id="Layer_1" xmlns="http://www.w3.org/2000/svg" xmlns:xlink="http://www.w3.org/1999/xlink" x="0px" y="0px"
	 viewBox="0 0 58 25" style="enable-background:new 0 0 58 25;" xml:space="preserve">
<style type="text/css">
	.st0{opacity:0.5;fill:#1A2B33;}
	.st1{fill:#63B4E5;}
	.st2{fill:#FFFFFF;}
	.st3{fill:#E63125;}
</style>
<path class="st0" d="M57,3V2h-1V1h-1h-1v1h-1v1h-1H7H6V2H5V1H4H3v1H2v1H1v1v1h1v1h1v1v12v1H2v1H1v1v1h1v1h1v1h1h1v-1h1v-1h1h45h1v1
	h1v1h1h1v-1h1v-1h1v-1v-1h-1v-1h-1v-1V7V6h1V5h1V4V3H57z"/>
<g>
	<rect x="52" y="5" class="st1" width="1" height="1"/>
	<rect x="52" y="18" class="st1" width="1" height="1"/>
	<rect x="51" y="4" class="st1" width="1" height="1"/>
	<rect x="51" y="19" class="st1" width="1" height="1"/>
	<rect x="6" y="2" width="45" height="1"/>
	<rect x="6" y="3" class="st1" width="45" height="1"/>
	<rect x="6" y="20" class="st1" width="45" height="1"/>
	<rect x="6" y="21" width="45" height="1"/>
	<rect x="54" y="6" width="1" height="12"/>
	<rect x="53" y="6" class="st1" width="1" height="12"/>
	<rect x="4" y="5" class="st1" width="1" height="1"/>
	<rect x="4" y="18" class="st1" width="1" height="1"/>
	<rect x="5" y="4" class="st1" width="1" height="1"/>
	<rect x="5" y="19" class="st1" width="1" height="1"/>
	<rect x="2" y="6" width="1" height="12"/>
	<rect x="3" y="6" class="st1" width="1" height="12"/>
	<polygon points="52,6 52,5 51,5 51,4 6,4 6,5 5,5 5,6 4,6 4,18 5,18 5,19 6,19 6,20 51,20 51,19 52,19 52,18 53,18 53,6 	"/>
	<g>
		<polygon points="54,0 53,0 53,1 54,1 55,1 55,0 		"/>
		<polygon points="54,5 53,5 53,6 54,6 55,6 55,5 		"/>
		<rect x="53" y="1" class="st2" width="1" height="1"/>
		<rect x="55" y="1" width="1" height="1"/>
		<rect x="52" y="1" width="1" height="1"/>
		<rect x="55" y="4" width="1" height="1"/>
		<rect x="52" y="4" width="1" height="1"/>
		<polygon class="st3" points="55,2 55,1 54,1 54,2 53,2 52,2 52,3 53,3 54,3 55,3 56,3 56,2 		"/>
		<polygon points="56,2 56,3 56,4 57,4 57,3 57,2 		"/>
		<polygon class="st2" points="55,3 54,3 53,3 52,3 52,4 53,4 53,5 54,5 55,5 55,4 56,4 56,3 		"/>
		<polygon points="51,2 51,3 51,4 52,4 52,3 52,2 		"/>
	</g>
	<g>
		<polygon points="54,18 53,18 53,19 54,19 55,19 55,18 		"/>
		<polygon points="54,23 53,23 53,24 54,24 55,24 55,23 		"/>
		<rect x="53" y="19" class="st2" width="1" height="1"/>
		<rect x="55" y="19" width="1" height="1"/>
		<rect x="52" y="19" width="1" height="1"/>
		<rect x="55" y="22" width="1" height="1"/>
		<rect x="52" y="22" width="1" height="1"/>
		<polygon class="st3" points="55,20 55,19 54,19 54,20 53,20 52,20 52,21 53,21 54,21 55,21 56,21 56,20 		"/>
		<polygon points="56,20 56,21 56,22 57,22 57,21 57,20 		"/>
		<polygon class="st2" points="55,21 54,21 53,21 52,21 52,22 53,22 53,23 54,23 55,23 55,22 56,22 56,21 		"/>
		<polygon points="51,20 51,21 51,22 52,22 52,21 52,20 		"/>
	</g>
	<g>
		<polygon points="3,18 2,18 2,19 3,19 4,19 4,18 		"/>
		<polygon points="3,23 2,23 2,24 3,24 4,24 4,23 		"/>
		<rect x="2" y="19" class="st2" width="1" height="1"/>
		<rect x="4" y="19" width="1" height="1"/>
		<rect x="1" y="19" width="1" height="1"/>
		<rect x="4" y="22" width="1" height="1"/>
		<rect x="1" y="22" width="1" height="1"/>
		<polygon class="st3" points="4,20 4,19 3,19 3,20 2,20 1,20 1,21 2,21 3,21 4,21 5,21 5,20 		"/>
		<polygon points="5,20 5,21 5,22 6,22 6,21 6,20 		"/>
		<polygon class="st2" points="4,21 3,21 2,21 1,21 1,22 2,22 2,23 3,23 4,23 4,22 5,22 5,21 		"/>
		<polygon points="0,20 0,21 0,22 1,22 1,21 1,20 		"/>
	</g>
	<g>
		<polygon points="3,0 2,0 2,1 3,1 4,1 4,0 		"/>
		<polygon points="3,5 2,5 2,6 3,6 4,6 4,5 		"/>
		<rect x="2" y="1" class="st2" width="1" height="1"/>
		<rect x="4" y="1" width="1" height="1"/>
		<rect x="1" y="1" width="1" height="1"/>
		<rect x="4" y="4" width="1" height="1"/>
		<rect x="1" y="4" width="1" height="1"/>
		<polygon class="st3" points="4,2 4,1 3,1 3,2 2,2 1,2 1,3 2,3 3,3 4,3 5,3 5,2 		"/>
		<polygon points="5,2 5,3 5,4 6,4 6,3 6,2 		"/>
		<polygon class="st2" points="4,3 3,3 2,3 1,3 1,4 2,4 2,5 3,5 4,5 4,4 5,4 5,3 		"/>
		<polygon points="0,2 0,3 0,4 1,4 1,3 1,2 		"/>
	</g>
</g>
</svg>
